<svg xmlns="http://www.w3.org/2000/svg" viewBox="0 0 350 350"><defs><style>.cls-1{fill:#ff217c;}.cls-2{fill:#ff5c7a;}.cls-3{fill:#db0d79;}.cls-4{fill:#f8a384;}.cls-5{fill:#b22074;}</style></defs><title>orange</title><g id="Layer_8" data-name="Layer 8"><g id="Layer_2" data-name="Layer 2"><g id="Layer_3" data-name="Layer 3"><circle class="cls-1" cx="175.17" cy="174.83" r="172.54"/><path class="cls-2" d="M298.23,54.58a172.29,172.29,0,0,0-148-50.2L345,203.71A172.24,172.24,0,0,0,298.23,54.58Z"/><path class="cls-2" d="M72.22,49l0,0c2.22,2.26,5.34,2.83,6.94,1.27l28.45-27.8.85-.83c1.6-1.56,4.72-1,6.93,1.27l0,.06c2,2.08,2.62,4.89,1.46,6.55L94,52c-1.6,1.57-1.1,4.7,1.12,7l0,0c2.21,2.26,5.33,2.84,6.93,1.27l27.42-26.79c1.6-1.56,4.72-1,6.93,1.27l.06.06c2.21,2.26,2.71,5.39,1.11,7l-5.72,5.59L117.66,61.28c-1.61,1.56-1.11,4.69,1.11,7l0,.05c2.21,2.27,5.33,2.84,6.94,1.27L140,55.63l9.65-9.43,2.82-2.76c1.6-1.56,4.72-1,6.93,1.27l.05,0c2.22,2.27,2.72,5.4,1.12,7l-2.82,2.75-9.65,9.43-8.46,8.26c-1.6,1.57-1.1,4.7,1.12,7l.05,0c2.21,2.26,5.33,2.84,6.93,1.27l8.46-8.26L159.46,69c1.6-1.57,4.72-1,6.93,1.27l.05,0c2.22,2.26,2.72,5.4,1.12,7L148.43,96c-1.6,1.57-1.1,4.7,1.11,7l.05,0c2.22,2.27,5.34,2.84,6.94,1.27l15.89-15.52,9.64-9.43,9.66-9.44c1.6-1.56,4.72-1,6.94,1.28l.05,0c2.21,2.26,2.71,5.4,1.11,7l-9.66,9.44-9.65,9.43L174.45,103c-1.6,1.56-1.1,4.7,1.12,7l.05,0c2.21,2.27,5.33,2.84,6.93,1.28l15.71-15.35h0l7.61-7.44c1.6-1.56,4.72-1,6.93,1.28l.06,0c2.21,2.26,2.71,5.4,1.11,7l-17.26,16.86-.25.25c-1.6,1.56-1.1,4.7,1.12,7l0,.05c2.21,2.27,5.33,2.84,6.93,1.28l.25-.25,9.65-9.43,4-3.92c1.6-1.57,4.72-1,6.93,1.27l.06.05c2.21,2.27,2.71,5.4,1.11,7l-4,3.92-9.65,9.43-4,3.92c-1.6,1.56-1.1,4.7,1.12,7l0,.05c2.21,2.27,5.33,2.84,6.93,1.28l4-3.92,7.09-6.93c1.6-1.56,4.72-1,6.93,1.28l.05,0c2.22,2.26,2.72,5.4,1.12,7l-7.09,6.93-10.25,10c-1.6,1.56-1.1,4.7,1.12,7l.05.06c2.21,2.26,5.33,2.83,6.93,1.27l10.25-10,9.65-9.43,12.3-12c1.61-1.56,4.73-1,6.94,1.27l0,0c2.21,2.27,2.71,5.4,1.11,7l-12.3,12-9.65,9.43-3.16,3.09c-1.6,1.56-1.1,4.69,1.12,7l0,.05c2.21,2.27,5.33,2.84,6.93,1.27l3.16-3.08,9.65-9.43,5.3-5.18c1.6-1.56,4.72-1,6.93,1.28l0,0c2.22,2.26,2.72,5.4,1.12,7l-5.3,5.18L261.51,180,249,192.13c-1.6,1.57-1.1,4.7,1.11,7l0,.05c2.22,2.26,5.34,2.84,6.94,1.27l12.47-12.18,2.47-2.42c1.6-1.56,4.72-1,6.93,1.27l.06.06c2.21,2.26,2.71,5.39,1.11,7l-2.47,2.42-19.48,19c-1.6,1.56-1.1,4.7,1.11,7l.05,0c2.22,2.27,5.34,2.84,6.94,1.28l19.48-19,9.65-9.43,1.45-1.42c1.6-1.56,4.72-1,6.93,1.28l.05,0c2.22,2.26,2.72,5.4,1.12,7l-1.46,1.42-9.64,9.43-12.47,12.19c-1.61,1.56-1.1,4.7,1.11,7l.05.05c2.21,2.27,5.33,2.84,6.94,1.27L302,221.39l6.49-6.34c1.6-1.57,4.72-1,6.94,1.27l.05.05c2.21,2.27,2.71,5.4,1.11,7l-6.49,6.34-24,23.46c-1.6,1.56-1.1,4.69,1.11,7l.05,0c2.22,2.27,5.34,2.84,6.94,1.27l24-23.45,3.24-3.17c1.61-1.57,4.73-1,6.94,1.27l.05.05a6.43,6.43,0,0,1,2,5.11L294.88,276c-1.6,1.57-1.1,4.7,1.12,7l.05.05c2.21,2.26,5.33,2.84,6.93,1.27l18.45-18A171.75,171.75,0,0,0,345,203.83L150.09,4.4A171.63,171.63,0,0,0,86.71,26.78L71.11,42C69.51,43.59,70,46.72,72.22,49Z"/><path class="cls-3" d="M51.42,295.76a172.07,172.07,0,0,0,127.65,51.9L2.48,167A172.1,172.1,0,0,0,51.42,295.76Z"/><path class="cls-3" d="M280.33,297.87l-.05-.05c-2.21-2.26-5.63-2.53-7.61-.6L237.6,331.5l-1,1c-2,1.93-5.39,1.66-7.6-.6l0-.05a5.55,5.55,0,0,1-.86-7.11l28.27-27.63c2-1.93,1.78-5.36-.42-7.62l0-.05c-2.21-2.26-5.63-2.52-7.61-.59l-33.8,33c-2,1.93-5.4,1.66-7.6-.6l-.05-.05c-2.21-2.26-2.4-5.69-.43-7.62l7.06-6.89L231,289.56c2-1.93,1.79-5.36-.42-7.62l0-.05c-2.21-2.26-5.63-2.53-7.6-.6l-17.59,17.19-11.9,11.63L190,313.5c-2,1.93-5.4,1.66-7.61-.6l0,0c-2.21-2.26-2.4-5.68-.42-7.61l3.48-3.4,11.89-11.63L207.68,280c2-1.93,1.78-5.36-.43-7.61l-.05-.06c-2.2-2.25-5.63-2.52-7.6-.59L189.18,282l-4,3.9c-2,1.93-5.39,1.67-7.6-.59l-.05-.05c-2.21-2.26-2.4-5.69-.42-7.62l23.58-23c2-1.93,1.78-5.35-.42-7.61l-.05-.05c-2.21-2.26-5.63-2.53-7.61-.6L173,265.42l-11.9,11.63-11.91,11.63c-2,1.93-5.39,1.66-7.6-.6l-.05-.05c-2.21-2.26-2.4-5.68-.42-7.61l11.9-11.64L165,257.16l7.47-7.3c2-1.93,1.79-5.36-.42-7.62l-.05-.05c-2.21-2.26-5.63-2.53-7.6-.6L145,260.52h0l-9.38,9.16c-2,1.93-5.4,1.66-7.6-.6l0-.05c-2.21-2.26-2.4-5.68-.43-7.61l21.28-20.79.31-.3c2-1.93,1.78-5.36-.43-7.62l-.05-.05c-2.2-2.26-5.63-2.53-7.6-.6l-.31.3L128.82,244l-4.95,4.84c-2,1.93-5.39,1.66-7.6-.6l0,0c-2.21-2.26-2.4-5.69-.42-7.62l5-4.83,11.9-11.63,4.94-4.83c2-1.93,1.78-5.36-.42-7.62l0-.05c-2.21-2.26-5.63-2.53-7.61-.6l-4.94,4.84-8.74,8.53c-2,1.93-5.39,1.66-7.6-.6l0-.05c-2.21-2.26-2.4-5.68-.42-7.61l8.73-8.54,12.64-12.35c2-1.93,1.78-5.35-.42-7.61l-.05-.05c-2.21-2.26-5.63-2.53-7.61-.6l-12.63,12.35-11.9,11.62L81.35,225.76c-2,1.93-5.4,1.66-7.6-.6l0,0c-2.21-2.26-2.4-5.69-.43-7.62l15.17-14.82L100.34,191l3.89-3.8c2-1.93,1.79-5.36-.42-7.61l0-.06c-2.21-2.25-5.63-2.52-7.6-.59l-3.89,3.8L80.37,194.4l-6.53,6.39c-2,1.93-5.4,1.66-7.61-.6l0-.05c-2.2-2.26-2.39-5.69-.42-7.62l6.53-6.38,11.9-11.63,15.37-15c2-1.93,1.79-5.36-.42-7.61l0-.06c-2.21-2.26-5.63-2.52-7.6-.59l-15.38,15-3,3c-2,1.93-5.4,1.66-7.61-.6l0,0c-2.2-2.26-2.39-5.69-.42-7.62L68,158l24-23.46c2-1.93,1.79-5.36-.42-7.62l0-.05c-2.21-2.26-5.63-2.53-7.61-.6L60,149.72l-11.9,11.63-1.79,1.75c-2,1.93-5.39,1.66-7.6-.6l-.05-.05c-2.21-2.26-2.4-5.69-.42-7.62L40,153.08l11.9-11.62,15.37-15c2-1.93,1.78-5.35-.42-7.61l0,0c-2.21-2.26-5.63-2.53-7.61-.6l-15.37,15-8,7.82c-2,1.93-5.4,1.66-7.6-.6l-.05,0c-2.21-2.26-2.4-5.69-.43-7.62l8-7.81L65.33,96c2-1.93,1.79-5.35-.42-7.61l0,0c-2.21-2.26-5.63-2.53-7.61-.6L27.66,116.66l-4,3.91c-2,1.93-5.39,1.66-7.6-.6l0,0a5.92,5.92,0,0,1-1.65-5.44L58.2,71.64c2-1.93,1.79-5.36-.42-7.62l-.05,0c-2.21-2.26-5.63-2.53-7.6-.6L27.19,85.79a172.18,172.18,0,0,0-24.7,81L179.24,347.66a172.24,172.24,0,0,0,82-23.09l19.53-19.08C282.72,303.56,282.53,300.13,280.33,297.87Z"/><path class="cls-4" d="M298.58,54.24A171.67,171.67,0,0,0,218.23,7.72l125,127.92A171.76,171.76,0,0,0,298.58,54.24Z"/><path class="cls-4" d="M147.05,25.39l0,0c1.73,1.77,4.09,2.29,5.26,1.15L173,6.36l.62-.61c1.17-1.13,3.53-.62,5.26,1.15l0,0c1.59,1.63,2.11,3.77,1.28,5l-16.68,16.3c-1.17,1.14-.7,3.52,1,5.29l0,0c1.73,1.77,4.1,2.28,5.27,1.14l19.94-19.49c1.17-1.13,3.53-.62,5.26,1.15l0,0c1.73,1.77,2.19,4.15,1,5.29L192,25.75,181.62,35.89c-1.16,1.14-.7,3.52,1,5.29l0,0c1.73,1.77,4.1,2.29,5.26,1.15l10.38-10.14,7-6.86,2.05-2c1.16-1.14,3.53-.63,5.26,1.14l0,0c1.73,1.77,2.19,4.15,1,5.29l-2.06,2-7,6.86-6.15,6c-1.17,1.14-.71,3.52,1,5.29l0,0c1.73,1.77,4.1,2.29,5.26,1.15l6.15-6,2.36-2.3c1.17-1.14,3.53-.62,5.26,1.14l0,0c1.73,1.76,2.19,4.14,1,5.28L205.75,63c-1.16,1.14-.7,3.52,1,5.29l0,0c1.73,1.77,4.1,2.28,5.26,1.15l11.56-11.3,7-6.86,7-6.86c1.17-1.14,3.54-.62,5.27,1.15l0,0c1.73,1.77,2.2,4.15,1,5.28l-7,6.87-7,6.86-4.41,4.31c-1.17,1.13-.71,3.51,1,5.28l0,0c1.73,1.77,4.1,2.29,5.27,1.15l11.42-11.17h0l5.54-5.4c1.16-1.14,3.53-.62,5.26,1.14l0,0c1.73,1.76,2.19,4.14,1,5.28L242.62,77.56l-.18.18c-1.16,1.13-.7,3.51,1,5.28l0,0c1.73,1.77,4.09,2.29,5.26,1.15L249,84l7-6.86,2.92-2.85c1.17-1.14,3.54-.62,5.26,1.15l0,0c1.73,1.77,2.19,4.15,1,5.29l-2.92,2.85-7,6.86-2.92,2.85c-1.16,1.14-.7,3.52,1,5.29l0,0c1.73,1.77,4.09,2.28,5.26,1.15L261.61,97l5.15-5c1.17-1.14,3.53-.62,5.26,1.15l0,0c1.73,1.77,2.19,4.15,1,5.28l-5.16,5-7.45,7.29c-1.17,1.13-.7,3.51,1,5.28l0,0c1.72,1.77,4.09,2.29,5.26,1.15l7.45-7.28,7-6.86,9-8.75c1.17-1.14,3.54-.62,5.27,1.15l0,0c1.72,1.77,2.19,4.15,1,5.29l-8.95,8.74-7,6.86-2.29,2.24c-1.17,1.14-.71,3.52,1,5.29l0,0c1.73,1.77,4.1,2.29,5.26,1.15l2.3-2.24,7-6.86,3.85-3.77c1.17-1.14,3.54-.62,5.26,1.15l0,0c1.73,1.77,2.19,4.15,1,5.29l-3.85,3.76-7,6.86-9.07,8.87c-1.17,1.14-.71,3.52,1,5.28l0,.05c1.73,1.77,4.1,2.28,5.26,1.14l9.07-8.86,1.8-1.76c1.17-1.14,3.54-.62,5.26,1.15l0,0c1.73,1.77,2.2,4.15,1,5.29l-1.8,1.75-14.17,13.85c-1.16,1.14-.7,3.52,1,5.29l0,0c1.73,1.77,4.1,2.28,5.26,1.15l14.17-13.85,7-6.86,1.06-1c1.16-1.14,3.53-.62,5.26,1.15l0,0c1.73,1.77,2.19,4.14,1,5.28l-1.05,1-7,6.86-9.07,8.86c-1.17,1.14-.71,3.52,1,5.29l0,0c1.73,1.77,4.1,2.28,5.26,1.15l9.08-8.87,4.72-4.61c1.16-1.14,3.53-.62,5.26,1.15l0,0c1.73,1.77,2.19,4.15,1,5.28l-4.72,4.62-17.46,17.06c-1.16,1.14-.7,3.52,1,5.29l0,0c1.73,1.77,4.09,2.29,5.26,1.15l17.46-17.07,2.36-2.3c1.16-1.14,3.53-.62,5.26,1.15l0,0a5.14,5.14,0,0,1,1.65,3.9L321,202.76c-1.17,1.14-.71,3.52,1,5.29l0,0c1.73,1.77,4.1,2.28,5.27,1.15L347.05,190a173,173,0,0,0-3.79-54.17L218.09,7.69a173.06,173.06,0,0,0-54.22-5L146,20.1C144.86,21.24,145.32,23.62,147.05,25.39Z"/><path class="cls-5" d="M51.77,295.42A172.15,172.15,0,0,0,101.62,331L17.39,244.77A172.09,172.09,0,0,0,51.77,295.42Z"/><path class="cls-5" d="M18.2,163.7l0,0c-1.56-1.6-3.66-2.1-4.68-1.11L2.64,173.16c0,3.73,0,7.45.25,11.18l16.3-15.93C20.21,167.42,19.76,165.3,18.2,163.7Z"/><path class="cls-5" d="M148.13,344.27c-1.44-1.47-1.93-3.37-1.21-4.44l14.51-14.18c1-1,.57-3.11-1-4.71l0,0c-1.56-1.6-3.66-2.09-4.68-1.1l-17.35,16.95c-1,1-3.12.5-4.68-1.1l0,0c-1.56-1.6-2-3.72-1-4.71l3.62-3.54,9-8.82c1-1,.56-3.1-1-4.7l0,0c-1.56-1.59-3.67-2.09-4.68-1.1l-9,8.82-6.11,6-1.78,1.75c-1,1-3.12.49-4.68-1.11l0,0c-1.56-1.6-2-3.72-1-4.71l1.78-1.74,6.11-6,5.35-5.23c1-1,.57-3.1-1-4.7l0,0c-1.56-1.59-3.66-2.09-4.68-1.1l-5.35,5.23-2.05,2c-1,1-3.12.5-4.68-1.1l0,0c-1.56-1.6-2-3.72-1-4.71l12.11-11.83c1-1,.57-3.11-1-4.7l0,0c-1.56-1.6-3.66-2.09-4.68-1.1l-10.05,9.83-6.11,6-6.11,6c-1,1-3.12.49-4.68-1.1l0,0c-1.56-1.6-2-3.71-1-4.71l6.11-6,6.11-6,3.83-3.74c1-1,.57-3.11-1-4.71l0,0c-1.56-1.6-3.66-2.1-4.68-1.11l-9.94,9.72h0l-4.81,4.7c-1,1-3.12.5-4.68-1.1l0,0c-1.56-1.6-2-3.72-1-4.71l10.92-10.67.16-.15c1-1,.56-3.11-1-4.71l0,0c-1.56-1.6-3.67-2.1-4.68-1.11l-.16.16-6.11,6-2.54,2.48c-1,1-3.12.5-4.68-1.1l0,0c-1.56-1.59-2-3.71-1-4.7l2.54-2.49,6.11-6,2.54-2.48c1-1,.57-3.11-1-4.71l0,0c-1.56-1.6-3.67-2.1-4.68-1.11l-2.54,2.48L69,267.51c-1,1-3.12.49-4.68-1.1l0,0c-1.56-1.6-2-3.71-1-4.7l4.48-4.39,6.49-6.34c1-1,.57-3.1-1-4.7l0,0c-1.56-1.59-3.66-2.09-4.68-1.1l-6.48,6.34-6.11,6L48.17,265c-1,1-3.12.5-4.68-1.1l0,0c-1.56-1.59-2-3.71-1-4.7l7.79-7.61,6.11-6,2-1.95c1-1,.57-3.11-1-4.71l0,0c-1.56-1.6-3.67-2.09-4.68-1.1l-2,1.95-6.11,6L41.19,249c-1,1-3.12.5-4.68-1.1l0,0c-1.56-1.59-2-3.71-1-4.7l3.35-3.28,6.11-6,7.89-7.72c1-1,.57-3.1-1-4.7l0,0c-1.56-1.59-3.66-2.09-4.68-1.1l-7.89,7.71-1.56,1.53c-1,1-3.12.5-4.68-1.1l0,0c-1.56-1.59-2-3.71-1-4.7l1.56-1.53,12.33-12c1-1,.57-3.11-1-4.71l0,0c-1.56-1.59-3.66-2.09-4.68-1.1l-12.33,12-6.1,6-.92.9c-1,1-3.12.49-4.68-1.1l0,0c-1.56-1.6-2-3.71-1-4.7l.92-.9,6.11-6L30,202.84c1-1,.56-3.11-1-4.71l0,0c-1.56-1.6-3.67-2.1-4.68-1.11l-7.89,7.72-4.11,4c-1,1-3.12.49-4.68-1.1l0,0c-1.56-1.6-2-3.71-1-4.7l4.11-4L25.88,184c1-1,.57-3.11-1-4.71l0,0c-1.56-1.6-3.66-2.1-4.68-1.11L5,193l-1.26,1.23a172.15,172.15,0,0,0,13.6,50.35L101.78,331a172.29,172.29,0,0,0,48,14.47,6.07,6.07,0,0,1-1.66-1.2Z"/><path class="cls-5" d="M176.1,328.43l0,0c-1.56-1.6-3.67-2.09-4.68-1.1l-18,17.59-.54.53a1.74,1.74,0,0,1-.75.42q5.43.74,10.87,1.11l14.13-13.81C178.11,332.14,177.66,330,176.1,328.43Z"/></g></g></g></svg>