<svg xmlns="http://www.w3.org/2000/svg" viewBox="0 0 417.26 176.88"><defs><style>.cls-1{fill:#fff;}.cls-2{fill:#231f20;}.cls-3{fill:#005da4;}</style></defs><title>中華電信</title><rect class="cls-1" width="417.26" height="176.88"/><path class="cls-2" d="M309.55,71.45a1.81,1.81,0,0,1,1.05.67,2,2,0,0,1,.24,1.43A49.55,49.55,0,0,1,308.77,81v23.23a1.73,1.73,0,0,1-.51,1.34,1.82,1.82,0,0,1-1.21.51,1.62,1.62,0,0,1-1.22-.5,1.85,1.85,0,0,1-.45-1.35V87.5c-.87,1.24-1.41,1.37-1.81,1.41a1.64,1.64,0,0,1-1.21-.33,1.93,1.93,0,0,1-.58-1.15,2.29,2.29,0,0,1,.47-1.39A31,31,0,0,0,307.51,73a1.84,1.84,0,0,1,.7-1.25A2,2,0,0,1,309.55,71.45Zm5.56,21.91H334a2.54,2.54,0,0,1,1.89.69,2,2,0,0,1,.69,1.55v7.27a2.57,2.57,0,0,1-.83,1.82,2.42,2.42,0,0,1-1.75.78h-19a1.93,1.93,0,0,1-1.57-.76,2.6,2.6,0,0,1-.64-1.84V95.58a2.24,2.24,0,0,1,2.23-2.22Zm2.21,3.28c-.52,0-.66.13-.78.24a1,1,0,0,0-.24.72v3.59a1,1,0,0,0,.24.76,1.05,1.05,0,0,0,.82.23h14.77A1.36,1.36,0,0,0,333,102a1.16,1.16,0,0,0,.21-.77V97.7A1.16,1.16,0,0,0,333,97a1.2,1.2,0,0,0-.85-.31Zm-2.39-8.74a1.7,1.7,0,0,0-1.21.48,1.64,1.64,0,0,0-.43,1.15,1.74,1.74,0,0,0,.43,1.17,1.71,1.71,0,0,0,1.21.47H334.6a1.71,1.71,0,0,0,1.19-2.83,1.55,1.55,0,0,0-1.19-.44Zm0-5.15a1.51,1.51,0,0,0-1.21.47,1.81,1.81,0,0,0-.43,1.17,1.51,1.51,0,0,0,.43,1.13,1.53,1.53,0,0,0,1.21.5H334.6a1.62,1.62,0,0,0,1.19-.51,1.52,1.52,0,0,0,.42-1.12,1.55,1.55,0,0,0-.42-1.12,1.75,1.75,0,0,0-1.19-.52Zm-2.39-5.26a1.46,1.46,0,0,0-1.22.52,1.56,1.56,0,0,0-.44,1.14,1.58,1.58,0,0,0,.44,1.14,1.47,1.47,0,0,0,1.22.47H337a1.64,1.64,0,0,0,1.21-.47,1.73,1.73,0,0,0,.41-1.14,1.62,1.62,0,0,0-.45-1.14,1.53,1.53,0,0,0-1.15-.52Zm2.39-5.14a1.54,1.54,0,0,0-1.21.49,1.46,1.46,0,0,0-.43,1.12,1.61,1.61,0,0,0,.43,1.21,1.69,1.69,0,0,0,1.21.45H334.6a1.59,1.59,0,0,0,1.19-.45,1.53,1.53,0,0,0,.42-1.21,1.53,1.53,0,0,0-1.61-1.61Z"/><path class="cls-2" d="M250.58,75a1.73,1.73,0,0,1-.4,1.11,1.62,1.62,0,0,1-1.14.49h-7.76v.1A1.8,1.8,0,0,1,240.8,78a1.71,1.71,0,0,1-1.23.49,1.63,1.63,0,0,1-1.22-.49,1.77,1.77,0,0,1-.49-1.33v-.1h-9.71v.1a1.77,1.77,0,0,1-.49,1.33,1.71,1.71,0,0,1-1.21.5,1.73,1.73,0,0,1-1.23-.5,1.8,1.8,0,0,1-.48-1.33v-.1H217a1.56,1.56,0,0,1-1.14-.45,1.72,1.72,0,0,1-.44-1.15,1.8,1.8,0,0,1,.44-1.11,1.6,1.6,0,0,1,1.14-.42h7.73v-.79a1.71,1.71,0,1,1,3.41,0v.79h9.71v-.77a1.74,1.74,0,0,1,.49-1.32,1.7,1.7,0,0,1,1.22-.52,1.74,1.74,0,0,1,1.23.52,1.77,1.77,0,0,1,.48,1.32v.77H249a1.61,1.61,0,0,1,1.11.45A1.65,1.65,0,0,1,250.58,75ZM226,88.81V92h5.3V88.81Zm8.71-6.41v3.3H240V82.4Zm5.3,6.88v-.47h-5.3V92h13.35a1.45,1.45,0,0,1,1.11.43,1.91,1.91,0,0,1,.43,1.15,1.75,1.75,0,0,1-.43,1.08,1.46,1.46,0,0,1-1.11.45H234.74v2.6H249a1.56,1.56,0,0,1,1.12.41,1.73,1.73,0,0,1,.43,1.16,1.83,1.83,0,0,1-.43,1.14,1.33,1.33,0,0,1-1.12.42H234.74v3.42a1.76,1.76,0,0,1-.5,1.32,1.58,1.58,0,0,1-1.2.51,1.64,1.64,0,0,1-1.25-.52,1.74,1.74,0,0,1-.46-1.31V100.8H217a1.41,1.41,0,0,1-1.12-.45,1.69,1.69,0,0,1-.43-1.11,1.87,1.87,0,0,1,.42-1.14,1.54,1.54,0,0,1,1.15-.43h14.3v-2.6H218a1.59,1.59,0,0,1-1.17-.4,1.82,1.82,0,0,1-.4-1.13,1.66,1.66,0,0,1,.43-1.1A1.54,1.54,0,0,1,218,92h4.63V88.81H216a1.47,1.47,0,0,1-1.12-.43,1.64,1.64,0,0,1-.46-1.12,1.79,1.79,0,0,1,.46-1.11A1.38,1.38,0,0,1,216,85.7h6.62v-.36A1.78,1.78,0,0,1,223.1,84a1.74,1.74,0,0,1,1.24-.49,1.68,1.68,0,0,1,1.21.49,1.82,1.82,0,0,1,.48,1.33v.36h5.3V82.4l-13.33,0a1.62,1.62,0,0,1-1.15-.4,2.16,2.16,0,0,1-.44-1.15,2,2,0,0,1,.44-1.11,1.56,1.56,0,0,1,1.15-.45h30.09a1.64,1.64,0,0,1,1.11.41,1.88,1.88,0,0,1,.43,1.15,1.81,1.81,0,0,1-.43,1.1,1.46,1.46,0,0,1-1.11.47h-4.64v3.3H250a1.36,1.36,0,0,1,1.12.43,1.55,1.55,0,0,1,.42,1.13,1.44,1.44,0,0,1-.42,1.08,1.41,1.41,0,0,1-1.12.47h-6.58v.47a1.85,1.85,0,0,1-.5,1.23,1.79,1.79,0,0,1-1.21.49,1.84,1.84,0,0,1-1.23-.49,1.8,1.8,0,0,1-.46-1.23Z"/><path class="cls-2" d="M186.59,71.36a1.93,1.93,0,0,0-.45,1.35v2.64H173.66a3.43,3.43,0,0,0-2.37.92,3.17,3.17,0,0,0-.95,2.3V96.49a3.08,3.08,0,0,0,1,2.26,3.4,3.4,0,0,0,2.3,1h12.48v4.32a2.14,2.14,0,0,0,.48,1.48A2,2,0,0,0,188,106a1.86,1.86,0,0,0,1.31-.52,2.19,2.19,0,0,0,.53-1.47V99.73H202.3a3.35,3.35,0,0,0,3.31-3.33V78.67a3.54,3.54,0,0,0-.86-2.32,3.14,3.14,0,0,0-2.45-1H189.81V72.71a1.83,1.83,0,0,0-.48-1.35,2.06,2.06,0,0,0-1.36-.52A2.2,2.2,0,0,0,186.59,71.36ZM174.2,95.85a1.1,1.1,0,0,1-.32-.74V80a1.33,1.33,0,0,1,.32-.79,1.1,1.1,0,0,1,.8-.35h11.14v17.3H175A1.18,1.18,0,0,1,174.2,95.85Zm26.71-17a1.08,1.08,0,0,1,.83.35,1,1,0,0,1,.32.79V95.11a1.34,1.34,0,0,1-.34.76,1,1,0,0,1-.74.31H189.81V78.88Z"/><path class="cls-2" d="M270.89,81.1a1.21,1.21,0,0,1,.88.31,1.3,1.3,0,0,1,.32.86,1.38,1.38,0,0,1-.32.88,1.12,1.12,0,0,1-.88.35h-6a1.15,1.15,0,0,1-.89-.35,1.2,1.2,0,0,1-.32-.88,1.33,1.33,0,0,1,.32-.86,1.25,1.25,0,0,1,.89-.31ZM273,84.76a1.16,1.16,0,0,1,.85.32,1.14,1.14,0,0,1,.32.85,1.21,1.21,0,0,1-.32.86,1,1,0,0,1-.85.38h-6a1.08,1.08,0,0,1-.89-.38,1.13,1.13,0,0,1-.32-.86,1.24,1.24,0,0,1,.32-.85,1.21,1.21,0,0,1,.89-.32Zm14.18-3.66a1.21,1.21,0,0,1,.86.31,1.35,1.35,0,0,1,.31.86,1.43,1.43,0,0,1-.31.88,1.11,1.11,0,0,1-.86.35h-6a1.17,1.17,0,0,1-.88-.35,1.13,1.13,0,0,1-.33-.88,1.24,1.24,0,0,1,.33-.86,1.27,1.27,0,0,1,.88-.31Zm2,3.66a1.1,1.1,0,0,1,1.19,1.17,1.3,1.3,0,0,1-.32.86,1.08,1.08,0,0,1-.87.38h-6a1.18,1.18,0,0,1-1.2-1.24,1.23,1.23,0,0,1,.31-.85,1.26,1.26,0,0,1,.89-.32ZM265.06,92a1,1,0,0,1,.22-.64,1,1,0,0,1,.66-.18h9.39v2H265.06Zm10.27,3.89v2h-9.39a.85.85,0,0,1-.66-.23.92.92,0,0,1-.22-.64V95.9Zm12.78-4.71a.92.92,0,0,1,.72.26,1,1,0,0,1,.16.65v1.09H278.73v-2ZM289,95.9V97a.81.81,0,0,1-.23.64,1,1,0,0,1-.65.23h-9.38v-2Zm3.19,6.76H280.23a1.71,1.71,0,0,1-1.23-.38c-.31-.3-.27-.93-.27-1.7H290a2.29,2.29,0,0,0,1.55-.66,2.37,2.37,0,0,0,.76-1.66V90.51a1.82,1.82,0,0,0-.62-1.42A2.54,2.54,0,0,0,290,88.5H263.78a1.91,1.91,0,0,0-1.43.55,1.93,1.93,0,0,0-.55,1.46v7.75a2.27,2.27,0,0,0,.58,1.65,1.84,1.84,0,0,0,1.38.67h11.57v1.22a3.77,3.77,0,0,0,1.39,2.91,3.89,3.89,0,0,0,2.44.76h13a1.38,1.38,0,0,0,1.42-1.39A1.41,1.41,0,0,0,292.18,102.66Zm-1-22.91a.83.83,0,0,1,.55.25,1,1,0,0,1,.21.57v5a2,2,0,0,0,.52,1.33,1.69,1.69,0,0,0,1.16.43,1.91,1.91,0,0,0,1.12-.49,1.87,1.87,0,0,0,.47-1.27v-6a2.51,2.51,0,0,0-.76-1.9,2.63,2.63,0,0,0-1.89-.79H278.66V75.2h11.9a1.5,1.5,0,0,0,1-.44,1.6,1.6,0,0,0,.39-1,1.66,1.66,0,0,0-.39-1,1.33,1.33,0,0,0-1-.38h-27a1.36,1.36,0,0,0-1,.4,1.32,1.32,0,0,0-.41,1,1.42,1.42,0,0,0,1.44,1.47h11.85v1.74H261.5a2.6,2.6,0,0,0-1.88.79,2.56,2.56,0,0,0-.77,1.9v6a2,2,0,0,0,.46,1.27,2,2,0,0,0,1.15.49,1.68,1.68,0,0,0,1.15-.43,2.11,2.11,0,0,0,.51-1.33v-5a.89.89,0,0,1,.22-.57.87.87,0,0,1,.53-.25h12.54v6.13a1.94,1.94,0,0,0,.46,1.32,1.76,1.76,0,0,0,1.16.44,1.81,1.81,0,0,0,1.16-.44,2,2,0,0,0,.47-1.32V79.75Z"/><path class="cls-3" d="M115.32,51.78a36.11,36.11,0,0,0-15.63,3.5H131A36.31,36.31,0,0,0,115.32,51.78Zm-11.73,7h-9.8a38.78,38.78,0,0,0-4.15,3.52h9A27.34,27.34,0,0,1,103.59,58.74Zm18.78,10.49h24.2a33.85,33.85,0,0,0-2.47-3.49H122.37ZM95.31,65.74h-8.8a41,41,0,0,0-2.44,3.49h8.85A29.89,29.89,0,0,1,95.31,65.74Zm27.06-3.48H141a38.45,38.45,0,0,0-4.12-3.52H122.37ZM152,88.46c0-.6,0-1.19,0-1.76H139.3a28.32,28.32,0,0,0-1.73-3.49h14a32.61,32.61,0,0,0-.67-3.49H135.18a29.14,29.14,0,0,0-3.35-3.5h18.08c-.44-1.21-.92-2.36-1.44-3.49H108.23V90.2h14.14v17.47H84.07a40.86,40.86,0,0,0,2.44,3.48h21.72v3.5H89.64a34.22,34.22,0,0,0,4.15,3.47h14.44v3.5H99.69a36.86,36.86,0,0,0,31.27,0h-4a26.75,26.75,0,0,0,4.92-3.5h5a33.94,33.94,0,0,0,4.12-3.47h-5.73a28.27,28.27,0,0,0,2.37-3.5h6.48a33.72,33.72,0,0,0,2.47-3.48h-7.25a25.53,25.53,0,0,0,1.14-3.5h8c.52-1.15,1-2.32,1.44-3.5h-8.77a30.27,30.27,0,0,0,.19-3.47v0h9.61a34.11,34.11,0,0,0,.67-3.49h-10.5a26.74,26.74,0,0,0-.67-3.48H152C152,89.61,152,89,152,88.46ZM95.32,100.67H80.72c.44,1.18.92,2.35,1.45,3.5h16.5A27,27,0,0,1,95.32,100.67Zm-4.11-7H79c.18,1.18.4,2.34.68,3.49H92.92A30.52,30.52,0,0,1,91.21,93.68Zm-2-10.47a26.57,26.57,0,0,1,.23-3.49H79.7c-.28,1.14-.5,2.29-.68,3.49Zm2-10.48h-9c-.53,1.13-1,2.28-1.45,3.49h9.34A25.46,25.46,0,0,1,91.21,72.73Zm-1.8,14H78.67c0,.57,0,1.16,0,1.76s0,1.15,0,1.74H90.06A24.25,24.25,0,0,1,89.41,86.7Z"/></svg>