<svg xmlns="http://www.w3.org/2000/svg" viewBox="0 0 250 250"><defs><style>.cls-1{fill:#74b8cb;}.cls-2{fill:#46a1ba;}.cls-3{fill:#1889a9;}.cls-4{fill:#12677f;}</style></defs><title>blue_planet</title><g id="Layer_9" data-name="Layer 9"><circle class="cls-1" cx="124.86" cy="125.11" r="124.85"/><path class="cls-2" d="M224.53,49.32A124.54,124.54,0,0,0,137.5.65L248.16,146.19A124.52,124.52,0,0,0,224.53,49.32Z"/><path class="cls-2" d="M60.34,27.36l0,0a3.92,3.92,0,0,0,5.4,1.11L94,7l.84-.64a3.93,3.93,0,0,1,5.41,1.11l0,0a4,4,0,0,1,0,5.18L77.52,30a3.92,3.92,0,0,0-.37,5.5l0,.05a3.93,3.93,0,0,0,5.4,1.1L109.81,16a3.92,3.92,0,0,1,5.4,1.11l0,0a3.94,3.94,0,0,1-.38,5.51L109.19,27,95,37.74a3.93,3.93,0,0,0-.38,5.5l0,0a3.94,3.94,0,0,0,5.41,1.11l14.16-10.77,9.58-7.28,2.8-2.13A3.93,3.93,0,0,1,132,25.32l0,0a3.93,3.93,0,0,1-.38,5.5L128.89,33l-9.58,7.29-8.39,6.38a3.94,3.94,0,0,0-.38,5.51l0,0A3.94,3.94,0,0,0,116,53.32l8.39-6.39,3.22-2.44A3.94,3.94,0,0,1,133,45.6l0,0a3.93,3.93,0,0,1-.38,5.5l-19,14.45a3.93,3.93,0,0,0-.38,5.5l0,0a3.94,3.94,0,0,0,5.41,1.11l15.78-12L144.08,53l9.59-7.29a3.92,3.92,0,0,1,5.4,1.11l0,0a3.93,3.93,0,0,1-.37,5.51l-9.59,7.29-9.58,7.28-6,4.58a3.93,3.93,0,0,0-.38,5.5l0,0a3.94,3.94,0,0,0,5.41,1.1l15.6-11.86h0l7.55-5.74a3.94,3.94,0,0,1,5.41,1.11l0,0a3.94,3.94,0,0,1-.38,5.51l-17.13,13-.25.19a3.94,3.94,0,0,0-.38,5.51l0,0a3.94,3.94,0,0,0,5.41,1.11l.25-.19,9.58-7.29,4-3a3.92,3.92,0,0,1,5.4,1.11l0,0a3.94,3.94,0,0,1-.38,5.51l-4,3-9.58,7.29-4,3a3.94,3.94,0,0,0-.38,5.51l0,0a3.94,3.94,0,0,0,5.41,1.11l4-3,7-5.35a3.92,3.92,0,0,1,5.4,1.11l0,0a3.93,3.93,0,0,1-.37,5.51l-7,5.35-10.17,7.73a3.94,3.94,0,0,0-.38,5.51l0,0a3.93,3.93,0,0,0,5.41,1.11L175,113.49l9.58-7.28,12.22-9.29A3.93,3.93,0,0,1,202.19,98l0,0a3.93,3.93,0,0,1-.38,5.5l-12.21,9.29L180,120.15l-3.13,2.38a3.94,3.94,0,0,0-.38,5.51l0,0a3.92,3.92,0,0,0,5.4,1.11l3.13-2.38,9.59-7.29,5.26-4a3.92,3.92,0,0,1,5.4,1.11l0,0a3.93,3.93,0,0,1-.37,5.51l-5.26,4-9.58,7.28-12.39,9.42a3.92,3.92,0,0,0-.37,5.5l0,0a3.92,3.92,0,0,0,5.4,1.11l12.39-9.41,2.45-1.87a3.94,3.94,0,0,1,5.41,1.11l0,0a3.94,3.94,0,0,1-.38,5.51l-2.45,1.86L181,161.48a3.93,3.93,0,0,0-.38,5.5l0,.05a3.94,3.94,0,0,0,5.41,1.1l19.34-14.7,9.58-7.29,1.44-1.09a3.94,3.94,0,0,1,5.41,1.1l0,0a3.93,3.93,0,0,1-.38,5.5L220,152.8l-9.58,7.28L198,169.5a3.94,3.94,0,0,0-.38,5.51l0,0a4,4,0,0,0,5.41,1.11l12.38-9.42,6.44-4.9a3.93,3.93,0,0,1,5.41,1.11l0,0a3.94,3.94,0,0,1-.38,5.51l-6.44,4.9-23.84,18.12a3.93,3.93,0,0,0-.37,5.51l0,0a3.92,3.92,0,0,0,5.4,1.11l23.84-18.13,3.22-2.44a3.94,3.94,0,0,1,5.41,1.1l0,0a4.27,4.27,0,0,1,.69,4.05l-35.3,26.84a3.94,3.94,0,0,0-.38,5.51l0,0a3.93,3.93,0,0,0,5.41,1.11l18.47-14.05a124.62,124.62,0,0,0,25-55.95L137.38.64A124.69,124.69,0,0,0,76.45,9.89l-15.73,12A3.94,3.94,0,0,0,60.34,27.36Z"/><path class="cls-3" d="M224.25,49.53a125,125,0,0,0-32.62-30L244.41,89A124.69,124.69,0,0,0,224.25,49.53Z"/><path class="cls-3" d="M236.59,147.12l0,0c1,1.28,2.44,1.83,3.26,1.21l8.73-6.64q.54-4,.82-8.05l-13.13,10C235.48,144.27,235.61,145.83,236.59,147.12Z"/><path class="cls-3" d="M159.42,5.85c.9,1.18,1.08,2.59.47,3.3L148.2,18c-.81.62-.68,2.18.29,3.46l0,0c1,1.29,2.44,1.83,3.26,1.21l14-10.63c.81-.62,2.28-.07,3.26,1.21l0,0c1,1.29,1.11,2.85.29,3.47L166.42,19l-7.27,5.53c-.82.62-.69,2.18.29,3.47l0,0c1,1.29,2.45,1.83,3.26,1.21L170,23.74,174.91,20l1.44-1.09c.82-.62,2.29-.08,3.26,1.21l0,0c1,1.29,1.11,2.85.29,3.47l-1.44,1.09-4.92,3.74-4.31,3.28c-.81.62-.68,2.18.3,3.47l0,0c1,1.28,2.44,1.83,3.26,1.21l4.31-3.28,1.65-1.26c.82-.62,2.29-.07,3.26,1.21l0,0c1,1.29,1.11,2.85.29,3.47L172.63,44c-.82.62-.69,2.18.29,3.47l0,0c1,1.28,2.45,1.83,3.27,1.21l8.09-6.16,4.92-3.74,4.93-3.74c.81-.62,2.28-.08,3.26,1.21l0,0c1,1.29,1.11,2.85.29,3.47l-4.92,3.74-4.92,3.74-3.09,2.35c-.81.62-.68,2.18.3,3.47l0,0c1,1.28,2.44,1.83,3.26,1.21l8-6.09h0l3.88-2.95c.81-.62,2.28-.08,3.26,1.21l0,0c1,1.28,1.11,2.84.29,3.47L195,56.67l-.13.1c-.82.62-.69,2.18.29,3.47l0,0c1,1.28,2.45,1.83,3.27,1.21l.12-.1,4.92-3.74,2.05-1.56c.82-.62,2.28-.08,3.26,1.21l0,0c1,1.29,1.11,2.85.3,3.47l-2,1.55-4.92,3.74-2,1.56c-.82.62-.69,2.18.29,3.46l0,0c1,1.29,2.45,1.83,3.26,1.21l2.05-1.55L209.38,68c.82-.62,2.29-.08,3.26,1.21l0,0c1,1.29,1.1,2.85.29,3.47l-3.61,2.74-5.23,4c-.81.63-.68,2.19.3,3.47l0,0c1,1.29,2.44,1.83,3.26,1.21l5.22-4,4.92-3.74,6.28-4.77c.81-.62,2.28-.08,3.26,1.21l0,0c1,1.28,1.11,2.84.29,3.46l-6.27,4.77L216.5,84.9l-1.61,1.23c-.81.62-.68,2.18.3,3.46l0,0c1,1.29,2.44,1.83,3.26,1.21l1.61-1.22L225,85.87l2.7-2.06c.81-.62,2.28-.07,3.26,1.21l0,0c1,1.29,1.11,2.85.3,3.47l-2.71,2-4.91,3.74-6.36,4.84c-.82.62-.68,2.18.29,3.46l0,0c1,1.29,2.44,1.83,3.26,1.21L227.23,99l1.26-1c.82-.62,2.29-.08,3.27,1.21l0,0c1,1.28,1.11,2.84.29,3.46l-1.26,1-9.93,7.55c-.81.62-.68,2.18.3,3.47l0,0c1,1.28,2.44,1.83,3.26,1.21l9.93-7.55,4.92-3.74.74-.57c.81-.62,2.28-.07,3.26,1.21l0,0c1,1.29,1.11,2.85.29,3.47l-.74.56L238,113.13,231.61,118c-.82.63-.69,2.19.29,3.47l0,0c1,1.29,2.45,1.83,3.27,1.21l6.35-4.83,3.31-2.52c.82-.62,2.28-.07,3.26,1.21l0,0c1,1.29,1.11,2.85.3,3.47l-3.31,2.51-12.24,9.31c-.81.62-.68,2.18.3,3.46l0,0c1,1.29,2.44,1.83,3.26,1.21l12.24-9.3,1-.77a124.71,124.71,0,0,0-5.26-37.37L191.51,19.49a124.54,124.54,0,0,0-33.2-14.68,4.47,4.47,0,0,1,1.09,1Z"/><path class="cls-3" d="M137.92,14.73l0,0c1,1.29,2.44,1.83,3.26,1.21l14.5-11,.43-.33a1.34,1.34,0,0,1,.58-.23q-3.83-1-7.7-1.77l-11.39,8.65C136.81,11.88,136.94,13.44,137.92,14.73Z"/><circle class="cls-4" cx="111.3" cy="208.76" r="6.04"/><circle class="cls-3" cx="103.75" cy="81.95" r="7.55"/><circle class="cls-4" cx="44.88" cy="131.77" r="15.1"/><rect class="cls-2" x="149.5" y="120.88" width="8.63" height="7.52" rx="1.97" ry="1.97" transform="translate(351.8 125.58) rotate(141.25)"/></g></svg>