<svg xmlns="http://www.w3.org/2000/svg" xmlns:xlink="http://www.w3.org/1999/xlink" viewBox="0 0 250 250"><defs><style>.cls-1{fill:url(#linear-gradient);}.cls-2{fill:#d421ff;}.cls-3{fill:#ff5cfa;}.cls-4{fill:#9c0ddb;}.cls-5{fill:#f884c0;}.cls-6{fill:#7f1fb3;}.cls-7{fill:url(#linear-gradient-2);}</style><linearGradient id="linear-gradient" x1="-30.98" y1="125" x2="280.98" y2="125" gradientTransform="translate(-51.78 125) rotate(-45)" gradientUnits="userSpaceOnUse"><stop offset="0" stop-color="#7e20b3"/><stop offset="1" stop-color="#f884c0"/></linearGradient><linearGradient id="linear-gradient-2" x1="73.5" y1="150.79" x2="228.12" y2="150.79" gradientTransform="matrix(1, 0, 0, 1, 0, 0)" xlink:href="#linear-gradient"/></defs><title>pink_planet-02</title><g id="Layer_8" data-name="Layer 8"><g id="Layer_2" data-name="Layer 2"><g id="Layer_3" data-name="Layer 3"><path class="cls-1" d="M75.32,75.32C14.4,136.23-12.74,207.86,14.7,235.3s99.07.3,160-60.62,88.06-132.54,60.62-160S136.23,14.4,75.32,75.32Zm87.73,87.73c-46.65,46.64-101.5,67.42-122.51,46.41S40.31,133.6,87,87s101.5-67.42,122.51-46.41S209.69,116.4,163.05,163.05Z"/><circle class="cls-2" cx="125.11" cy="124.9" r="105.11"/><path class="cls-3" d="M200.07,51.64A105,105,0,0,0,109.9,21.06L228.57,142.49A105,105,0,0,0,200.07,51.64Z"/><path class="cls-3" d="M62.39,48.23l0,0c1.35,1.38,3.25,1.73,4.23.78L84,32.1l.51-.5c1-1,2.88-.61,4.23.77l0,0c1.24,1.26,1.59,3,.89,4l-14,13.65c-1,1-.67,2.86.68,4.24l0,0c1.35,1.38,3.25,1.73,4.22.78L97.31,38.78c1-1,2.87-.61,4.22.77l0,0c1.35,1.38,1.65,3.29.68,4.24l-3.48,3.41-8.69,8.49c-1,1-.67,2.86.67,4.24l0,0c1.35,1.38,3.25,1.73,4.23.78l8.69-8.49,5.88-5.75,1.72-1.68c1-1,2.87-.6,4.22.78l0,0c1.35,1.38,1.66,3.29.68,4.24l-1.72,1.68-5.88,5.75-5.15,5c-1,1-.67,2.86.68,4.24l0,0c1.35,1.38,3.25,1.73,4.23.78l5.15-5,2-1.93c1-1,2.88-.61,4.23.77l0,0c1.35,1.38,1.65,3.29.68,4.25L108.81,76.88c-1,1-.67,2.87.68,4.25l0,0c1.35,1.38,3.25,1.73,4.23.77l9.68-9.46,5.87-5.74L135.19,61c1-.95,2.87-.6,4.22.78l0,0c1.35,1.38,1.66,3.29.68,4.24l-5.88,5.75-5.88,5.74-3.69,3.61c-1,1-.67,2.86.68,4.24l0,0c1.34,1.37,3.25,1.72,4.22.77l9.57-9.35h0l4.63-4.53c1-1,2.88-.6,4.23.78l0,0c1.35,1.38,1.65,3.29.68,4.24L138.23,87.62l-.15.15c-1,1-.68,2.86.67,4.24l0,0c1.35,1.38,3.25,1.73,4.23.78l.15-.15L149,86.93l2.45-2.39c1-1,2.87-.61,4.22.77l0,0c1.35,1.38,1.66,3.29.68,4.24L154,92l-5.87,5.74-2.45,2.39c-1,1-.67,2.86.68,4.24l0,0c1.35,1.38,3.25,1.73,4.23.78l2.44-2.39,4.32-4.22c1-1,2.87-.6,4.22.78l0,0c1.35,1.38,1.66,3.29.68,4.24L158,107.82l-6.24,6.1c-1,1-.67,2.86.68,4.24l0,0c1.35,1.38,3.25,1.73,4.23.78l6.24-6.1,5.88-5.75,7.49-7.32c1-1,2.88-.61,4.23.77l0,0c1.35,1.38,1.65,3.29.68,4.25l-7.5,7.32-5.88,5.75-1.92,1.87c-1,1-.67,2.87.68,4.25l0,0c1.35,1.38,3.25,1.73,4.22.77l1.93-1.87,5.87-5.75,3.23-3.15c1-1,2.88-.61,4.23.77l0,0c1.35,1.38,1.65,3.29.68,4.25l-3.23,3.15L177.7,128l-7.6,7.43c-1,.95-.67,2.86.68,4.24l0,0c1.35,1.38,3.25,1.73,4.23.78l7.59-7.43,1.51-1.47c1-1,2.88-.6,4.23.78l0,0c1.34,1.38,1.65,3.29.67,4.24l-1.5,1.47-11.87,11.6c-1,.95-.67,2.86.68,4.24l0,0c1.35,1.38,3.25,1.73,4.23.78l11.86-11.6,5.88-5.74.89-.87c1-1,2.87-.6,4.22.78l0,0c1.35,1.38,1.65,3.29.68,4.24l-.89.87-5.87,5.74-7.6,7.42c-1,1-.67,2.87.68,4.25l0,0c1.35,1.38,3.25,1.73,4.22.77l7.6-7.42,3.95-3.86c1-1,2.88-.61,4.23.77l0,0c1.35,1.37,1.65,3.28.68,4.24l-4,3.86L192.68,172.6c-1,1-.67,2.86.68,4.24l0,0c1.35,1.38,3.25,1.73,4.22.78l14.63-14.29,2-1.93c1-1,2.88-.61,4.23.77l0,0a3.89,3.89,0,0,1,1.22,3.1L198,186.51c-1,1-.67,2.86.68,4.24l0,0c1.35,1.38,3.25,1.72,4.23.77l11.23-11a104.47,104.47,0,0,0,14.35-38L109.83,21.07A104.54,104.54,0,0,0,71.21,34.71L61.71,44C60.74,44.94,61,46.85,62.39,48.23Z"/><path class="cls-4" d="M49.72,198.57a104.83,104.83,0,0,0,77.76,31.61L19.9,120.1A104.87,104.87,0,0,0,49.72,198.57Z"/><path class="cls-4" d="M189.16,199.85l0,0a3.31,3.31,0,0,0-4.63-.36l-21.37,20.88-.63.62a3.32,3.32,0,0,1-4.64-.36l0,0a3.38,3.38,0,0,1-.52-4.33l17.22-16.83a3.31,3.31,0,0,0-.25-4.64l0,0a3.31,3.31,0,0,0-4.64-.36L149,214.49a3.31,3.31,0,0,1-4.63-.37l0,0a3.31,3.31,0,0,1-.26-4.64l4.3-4.19,10.71-10.47a3.31,3.31,0,0,0-.26-4.64l0,0a3.31,3.31,0,0,0-4.63-.37l-10.71,10.47-7.25,7.08-2.12,2.07a3.3,3.3,0,0,1-4.63-.36l0,0a3.31,3.31,0,0,1-.26-4.64l2.12-2.07,7.25-7.08,6.35-6.21a3.32,3.32,0,0,0-.26-4.64l0,0A3.31,3.31,0,0,0,140,184l-6.35,6.2-2.44,2.38a3.31,3.31,0,0,1-4.63-.36l0,0a3.32,3.32,0,0,1-.26-4.64l14.37-14a3.31,3.31,0,0,0-.26-4.64l0,0a3.31,3.31,0,0,0-4.63-.37L123.8,180.08l-7.25,7.09-7.25,7.08a3.31,3.31,0,0,1-4.64-.36l0,0a3.31,3.31,0,0,1-.25-4.64l7.25-7.09,7.25-7.08,4.55-4.45a3.31,3.31,0,0,0-.26-4.64l0,0a3.31,3.31,0,0,0-4.63-.36l-11.8,11.53h0L101,182.68a3.32,3.32,0,0,1-4.63-.36l0,0a3.31,3.31,0,0,1-.25-4.64L109,165l.19-.18a3.32,3.32,0,0,0-.26-4.64l0,0a3.31,3.31,0,0,0-4.63-.37l-.19.19L96.87,167l-3,2.95a3.31,3.31,0,0,1-4.63-.37l0,0a3.32,3.32,0,0,1-.26-4.64L92,162l7.25-7.08,3-2.94a3.31,3.31,0,0,0-.26-4.64l0,0a3.31,3.31,0,0,0-4.63-.37l-3,2.95L89,155.08a3.32,3.32,0,0,1-4.64-.37l0,0A3.31,3.31,0,0,1,84,150l5.32-5.2,7.7-7.52a3.32,3.32,0,0,0-.26-4.64l0,0a3.3,3.3,0,0,0-4.63-.36l-7.7,7.52-7.25,7.08-9.24,9a3.31,3.31,0,0,1-4.63-.36l0,0a3.31,3.31,0,0,1-.26-4.64l9.24-9,7.25-7.09,2.37-2.31a3.31,3.31,0,0,0-.26-4.64l0,0a3.31,3.31,0,0,0-4.63-.37l-2.37,2.32-7.25,7.08-4,3.89a3.32,3.32,0,0,1-4.63-.36l0,0a3.31,3.31,0,0,1-.26-4.64l4-3.88,7.25-7.09L79,115.55a3.31,3.31,0,0,0-.25-4.64l0,0a3.32,3.32,0,0,0-4.64-.36l-9.36,9.15-1.86,1.81a3.31,3.31,0,0,1-4.63-.36l0,0a3.32,3.32,0,0,1-.26-4.64l1.86-1.82,14.63-14.29a3.31,3.31,0,0,0-.26-4.64l0,0a3.31,3.31,0,0,0-4.63-.37L54.92,109.6l-7.25,7.08-1.09,1.07a3.31,3.31,0,0,1-4.63-.37l0,0a3.31,3.31,0,0,1-.26-4.64l1.09-1.06L50,104.57l9.37-9.16a3.32,3.32,0,0,0-.26-4.64l0,0a3.31,3.31,0,0,0-4.63-.36l-9.37,9.15-4.87,4.76a3.31,3.31,0,0,1-4.63-.36l0,0a3.31,3.31,0,0,1-.25-4.64l4.87-4.76,18-17.62a3.31,3.31,0,0,0-.26-4.64l0,0a3.31,3.31,0,0,0-4.63-.37l-18,17.62-2.43,2.38a3.32,3.32,0,0,1-4.64-.36l0,0a3.61,3.61,0,0,1-1-3.31L53.85,62a3.31,3.31,0,0,0-.26-4.64l0,0A3.31,3.31,0,0,0,48.93,57L35,70.65a104.87,104.87,0,0,0-15,49.34L127.58,230.18a105,105,0,0,0,49.94-14.06l11.9-11.63A3.31,3.31,0,0,0,189.16,199.85Z"/><path class="cls-5" d="M200.28,51.43a104.64,104.64,0,0,0-48.95-28.34L227.49,101A104.73,104.73,0,0,0,200.28,51.43Z"/><path class="cls-5" d="M108,33.86l0,0c1,1.08,2.49,1.4,3.2.7l12.61-12.32.37-.36c.71-.7,2.16-.38,3.21.7l0,0c1,1,1.29,2.29.78,3L118,35.59c-.71.69-.43,2.14.63,3.22l0,0c1,1.08,2.5,1.4,3.21.7L134,27.66c.71-.69,2.15-.38,3.2.7l0,0c1,1.08,1.33,2.53.62,3.22l-2.53,2.48L129,40.26c-.71.69-.42,2.14.63,3.22l0,0c1.06,1.08,2.5,1.4,3.21.7L139.21,38l4.28-4.18,1.25-1.22c.71-.7,2.15-.38,3.2.69l0,0c1.05,1.08,1.33,2.53.62,3.22l-1.25,1.22L143.07,42l-3.75,3.66c-.71.69-.43,2.14.62,3.22l0,0c1.05,1.08,2.49,1.39,3.2.7l3.75-3.66,1.44-1.41c.71-.69,2.15-.38,3.2.7l0,0c1,1.07,1.33,2.52.62,3.22l-8.48,8.28c-.7.69-.42,2.14.63,3.22l0,0c1.06,1.07,2.5,1.39,3.21.7l7-6.88,4.28-4.18,4.28-4.19c.71-.69,2.15-.37,3.2.7l0,0c1.05,1.08,1.33,2.53.62,3.22l-4.28,4.18-4.27,4.18-2.69,2.62c-.71.7-.43,2.15.62,3.23l0,0c1.05,1.08,2.49,1.39,3.2.7l7-6.8h0l3.37-3.3c.71-.69,2.15-.38,3.2.7l0,0c1.05,1.07,1.33,2.52.62,3.22l-7.64,7.47-.12.11c-.71.69-.42,2.14.63,3.22l0,0c1.06,1.08,2.5,1.4,3.21.7l.11-.11,4.28-4.17,1.78-1.74c.71-.7,2.15-.38,3.2.7l0,0c1,1.08,1.33,2.53.62,3.22l-1.78,1.74-4.27,4.18-1.78,1.74c-.71.69-.43,2.14.62,3.22l0,0c1.05,1.08,2.49,1.39,3.2.7l1.78-1.74,3.14-3.06c.71-.7,2.15-.38,3.21.69l0,0c1.05,1.08,1.33,2.53.63,3.22l-3.15,3.07-4.54,4.44c-.71.69-.42,2.14.63,3.22l0,0c1.06,1.08,2.5,1.4,3.21.7l4.54-4.44,4.28-4.17,5.45-5.33c.71-.7,2.15-.38,3.21.7l0,0c1,1.08,1.33,2.53.62,3.22l-5.45,5.33-4.28,4.18-1.39,1.37c-.71.69-.43,2.14.62,3.22l0,0c1,1.08,2.49,1.39,3.2.7l1.4-1.37,4.28-4.18,2.34-2.29c.71-.69,2.16-.38,3.21.7l0,0c1.06,1.08,1.34,2.53.63,3.23L201.31,93,197,97.2l-5.52,5.4c-.71.69-.43,2.14.62,3.22l0,0c1.05,1.08,2.49,1.4,3.2.7l5.53-5.4,1.09-1.07c.71-.69,2.16-.38,3.21.7l0,0c1.06,1.07,1.34,2.52.63,3.22l-1.1,1.07-8.63,8.43c-.71.7-.43,2.15.63,3.22l0,0c1.06,1.08,2.5,1.39,3.21.7L208.6,109l4.28-4.18.64-.62c.71-.7,2.15-.38,3.21.69l0,0c1.05,1.08,1.33,2.53.62,3.22l-.64.63L212.45,113l-5.52,5.4c-.71.69-.43,2.14.62,3.22l0,0c1,1.08,2.49,1.4,3.2.7l5.53-5.4,2.87-2.81c.71-.69,2.16-.38,3.21.7l0,0c1.06,1.07,1.34,2.52.63,3.22l-2.88,2.81-10.63,10.39c-.71.7-.43,2.15.62,3.22l0,0c1,1.08,2.49,1.39,3.2.7L224,124.81l1.44-1.4c.71-.69,2.15-.38,3.2.7l0,0a3.16,3.16,0,0,1,1,2.38l-15.76,15.4c-.71.69-.42,2.14.63,3.22l0,0c1.06,1.07,2.5,1.39,3.21.7l12-11.75a105.62,105.62,0,0,0-2.3-33l-76.26-78a105.75,105.75,0,0,0-33-3.06L107.35,30.64C106.64,31.33,106.92,32.78,108,33.86Z"/><path class="cls-6" d="M49.93,198.36A104.73,104.73,0,0,0,80.3,220L29,167.5A104.71,104.71,0,0,0,49.93,198.36Z"/><path class="cls-6" d="M29.48,118.12l0,0c-.95-1-2.24-1.28-2.85-.68L20,123.88q0,3.41.15,6.81L30.08,121C30.7,120.38,30.43,119.09,29.48,118.12Z"/><path class="cls-6" d="M108.63,228.12c-.87-.89-1.17-2.06-.74-2.71l8.84-8.64c.62-.6.35-1.89-.6-2.86l0,0c-1-1-2.24-1.28-2.85-.68l-10.58,10.34c-.61.6-1.9.3-2.85-.68l0,0c-1-1-1.22-2.26-.6-2.86l2.2-2.16,5.5-5.37c.62-.61.35-1.9-.6-2.87l0,0c-1-1-2.23-1.28-2.85-.67l-5.5,5.37-3.72,3.64L93.13,219c-.62.6-1.9.3-2.86-.67l0,0c-1-1-1.22-2.26-.6-2.87l1.09-1.06,3.72-3.64,3.26-3.18c.61-.6.34-1.89-.61-2.87l0,0c-1-1-2.23-1.27-2.85-.67L91,207.16l-1.25,1.22c-.62.6-1.9.3-2.85-.67l0,0c-1-1-1.23-2.26-.61-2.86l7.38-7.21c.61-.6.34-1.89-.61-2.87l0,0c-1-1-2.23-1.27-2.85-.67L84,200l-3.72,3.63-3.72,3.64c-.62.61-1.9.3-2.85-.67l0,0c-.95-1-1.23-2.26-.61-2.87l3.72-3.64,3.73-3.63,2.33-2.28c.62-.61.35-1.9-.6-2.87l0,0c-1-1-2.24-1.28-2.86-.67l-6.05,5.92h0l-2.94,2.86c-.61.61-1.9.3-2.85-.67l0,0c-1-1-1.22-2.26-.6-2.87l6.65-6.5.1-.09c.61-.61.34-1.9-.61-2.87l0,0c-1-1-2.23-1.28-2.85-.67l-.1.09-3.72,3.64L64.84,191c-.61.61-1.9.3-2.85-.67l0,0c-.95-1-1.22-2.26-.6-2.87l1.54-1.51,3.72-3.64,1.55-1.51c.62-.6.35-1.89-.6-2.86l0,0c-1-1-2.23-1.28-2.85-.68l-1.54,1.51-2.74,2.67c-.61.61-1.9.31-2.85-.67l0,0c-.95-1-1.22-2.26-.6-2.86l2.73-2.67,4-3.87c.62-.6.35-1.89-.6-2.86l0,0c-1-1-2.23-1.28-2.85-.67l-3.95,3.86-3.72,3.63-4.74,4.64c-.62.6-1.9.3-2.85-.67l0,0c-1-1-1.22-2.27-.6-2.87L49,171.64,52.72,168l1.22-1.19c.62-.6.35-1.89-.6-2.87l0,0c-1-1-2.23-1.27-2.85-.67l-1.21,1.19-3.72,3.64-2.05,2c-.62.61-1.9.3-2.85-.67l0,0c-1-1-1.22-2.26-.61-2.87l2-2,3.72-3.64,4.81-4.7c.61-.6.34-1.89-.61-2.86l0,0c-1-1-2.23-1.27-2.85-.67l-4.81,4.7-.95.93c-.62.61-1.9.3-2.85-.67l0,0c-1-1-1.23-2.26-.61-2.87l1-.93,7.51-7.34c.62-.6.35-1.89-.6-2.86l0,0c-1-1-2.24-1.28-2.85-.67l-7.51,7.33-3.73,3.64-.56.55c-.61.6-1.9.3-2.85-.67l0,0c-.95-1-1.22-2.26-.6-2.86l.56-.55,3.72-3.63,4.81-4.7c.61-.61.34-1.9-.61-2.87l0,0c-.95-1-2.23-1.28-2.85-.67l-4.81,4.7-2.5,2.44c-.62.6-1.9.3-2.85-.67l0,0c-1-1-1.23-2.26-.61-2.87l2.5-2.44,9.26-9c.62-.6.34-1.89-.61-2.86l0,0c-1-1-2.23-1.28-2.85-.68l-9.26,9-.76.75a105,105,0,0,0,8.28,30.67L80.4,220.06a104.82,104.82,0,0,0,29.26,8.81,3.41,3.41,0,0,1-1-.73Z"/><path class="cls-6" d="M125.67,218.47l0,0c-1-1-2.23-1.27-2.85-.67l-11,10.72-.33.32a1,1,0,0,1-.45.26q3.3.44,6.61.68l8.62-8.42C126.89,220.73,126.62,219.44,125.67,218.47Z"/><path class="cls-7" d="M227.5,101.11h0s0-.06,0-.09h0c-.34-1.45-.72-2.9-1.12-4.34-.11-.39-.22-.78-.34-1.17-.36-1.26-.75-2.52-1.17-3.77-.06-.2-.12-.4-.19-.6-.48-1.42-1-2.83-1.54-4.23l-.43-1.08c-.47-1.17-.95-2.33-1.46-3.48-.13-.28-.25-.57-.37-.85-.62-1.37-1.28-2.73-2-4.08-.16-.32-.33-.63-.5-1q-.78-1.52-1.62-3a89.45,89.45,0,0,1-3.27,13.26v0a151.13,151.13,0,0,1-14.59,31.05c-3,5-6.38,10.06-10.06,15.12a254.68,254.68,0,0,1-25.81,30.1,250.68,250.68,0,0,1-35.67,29.74,188.63,188.63,0,0,1-23.1,13.55l-.07,0q-5,2.43-9.76,4.35a105.1,105.1,0,0,1-17.81,5.5h0c-.9.18-1.79.33-2.67.48l-.43.08a104.64,104.64,0,0,0,30.57,11.32l.32-.17c1.1-.59,2.21-1.19,3.32-1.81q5-2.76,10.05-5.89l.07,0q7.71-4.75,15.49-10.31l1-.7c8.09-5.83,16.2-12.29,24.21-19.34q8.18-7.18,16.17-15.17t15-16q6.72-7.64,12.72-15.35c.8-1,1.58-2,2.36-3.06,1.65-2.19,3.27-4.37,4.83-6.55q2.82-3.93,5.43-7.86,3.79-5.67,7.14-11.28,3.18-5.33,6-10.57C227.93,103.06,227.73,102.08,227.5,101.11Z"/></g></g></g></svg>