<svg xmlns="http://www.w3.org/2000/svg" viewBox="0 0 250 250"><defs><style>.cls-1{fill:#d9d2e0;}.cls-2{fill:#654880;}.cls-3{fill:none;}.cls-4{fill:#402063;}</style></defs><title>purple_planet</title><g id="Layer_10" data-name="Layer 10"><circle class="cls-1" cx="125" cy="125" r="125"/><circle class="cls-2" cx="125" cy="125" r="117.74"/><path class="cls-3" d="M17,78l130,162.7.09,0L17.08,77.88Z"/><path class="cls-4" d="M33,198.51a117.71,117.71,0,0,0,114.05,42.16L17,78A117.71,117.71,0,0,0,33,198.51Z"/><path class="cls-4" d="M17.08,77.88,147.17,240.65a117,117,0,0,0,44-18.26L205.41,211c1-.94,2-1.91,3-2.89a4.2,4.2,0,0,0-.81-4l0,0c-1.38-1.73-3.67-2.22-5.08-1.1l-25,20-.75.6c-1.41,1.12-3.7.63-5.08-1.1l0,0a3.86,3.86,0,0,1-.27-4.9l20.19-16.13c1.41-1.13,1.43-3.47,0-5.2l0,0c-1.38-1.73-3.67-2.23-5.08-1.1L162.3,214.37c-1.41,1.13-3.7.63-5.08-1.1l0,0c-1.39-1.73-1.37-4.07,0-5.2l5-4,12.55-10c1.41-1.12,1.43-3.46.05-5.19l0,0c-1.39-1.73-3.67-2.23-5.08-1.1l-12.56,10-8.49,6.79-2.48,2c-1.41,1.12-3.7.63-5.08-1.1l0,0c-1.38-1.73-1.36-4.07,0-5.2l2.48-2,8.5-6.79,7.44-6c1.41-1.13,1.43-3.47,0-5.2l0,0c-1.38-1.73-3.67-2.22-5.08-1.1L147.07,185l-2.85,2.28c-1.41,1.13-3.69.63-5.08-1.1l0,0c-1.38-1.73-1.36-4.07,0-5.19L156,167.49c1.41-1.13,1.44-3.47,0-5.2l0,0c-1.38-1.73-3.67-2.23-5.08-1.1l-14,11.18-8.49,6.79-8.5,6.79c-1.41,1.13-3.7.63-5.08-1.1l0,0c-1.38-1.73-1.36-4.07,0-5.19l8.5-6.8,8.49-6.79,5.34-4.26c1.41-1.13,1.43-3.47,0-5.2l0,0c-1.38-1.73-3.67-2.22-5.08-1.1l-13.83,11.06h0l-6.69,5.35c-1.41,1.12-3.7.63-5.08-1.1l0,0c-1.39-1.73-1.37-4.07,0-5.2l15.19-12.14.22-.18c1.41-1.12,1.43-3.46,0-5.19l0,0c-1.39-1.73-3.67-2.23-5.08-1.1l-.22.17-8.5,6.79-3.53,2.83c-1.41,1.13-3.7.63-5.08-1.1l0,0c-1.39-1.73-1.37-4.07,0-5.2l3.54-2.82,8.49-6.79,3.53-2.82c1.41-1.13,1.43-3.47,0-5.2l0,0c-1.39-1.73-3.67-2.23-5.08-1.1l-3.53,2.82-6.24,5c-1.41,1.12-3.69.63-5.08-1.1l0,0c-1.38-1.73-1.36-4.07.05-5.2l6.23-5,9-7.21c1.41-1.13,1.44-3.47,0-5.2l0,0c-1.38-1.73-3.67-2.23-5.08-1.1l-9,7.21-8.49,6.79L77.1,137.09c-1.41,1.12-3.69.63-5.08-1.1l0,0c-1.38-1.73-1.36-4.07.05-5.2l10.83-8.66,8.5-6.79,2.77-2.22c1.41-1.12,1.43-3.46,0-5.19l0,0c-1.39-1.74-3.67-2.23-5.08-1.1L86.3,109l-8.49,6.79-4.67,3.72c-1.41,1.13-3.69.64-5.08-1.1l0,0c-1.38-1.73-1.36-4.07,0-5.19l4.66-3.73,8.5-6.79,11-8.77c1.41-1.13,1.43-3.47.05-5.2l0,0c-1.39-1.73-3.67-2.23-5.08-1.1l-11,8.77L74,98c-1.41,1.13-3.7.64-5.08-1.1l0,0c-1.39-1.73-1.37-4.07,0-5.19L71.11,90,88.25,76.25c1.41-1.12,1.43-3.46,0-5.19l0,0c-1.39-1.73-3.67-2.23-5.08-1.1L66,83.62l-8.49,6.79-1.28,1c-1.41,1.13-3.7.64-5.08-1.1l0,0c-1.38-1.73-1.36-4.07.05-5.19l1.27-1L61,77.29l11-8.78c1.41-1.12,1.43-3.46,0-5.19l0,0c-1.38-1.74-3.67-2.23-5.08-1.1L55.91,71,50.2,75.51c-1.41,1.13-3.69.64-5.08-1.1l0,0c-1.38-1.73-1.36-4.07,0-5.19l5.71-4.57L72,47.72c1.41-1.12,1.43-3.46,0-5.19l0,0c-1.39-1.73-3.67-2.23-5.08-1.1L45.79,58.28l-2.86,2.28c-1.41,1.12-3.69.63-5.08-1.1l0,0A4.25,4.25,0,0,1,37,55.58l31.3-25c1.41-1.13,1.43-3.47,0-5.2l0,0a4.37,4.37,0,0,0-3.17-1.7q-2.77,1.64-5.46,3.44L43.88,39.66A117.08,117.08,0,0,0,17.08,77.88Z"/><circle class="cls-4" cx="137.18" cy="57.06" r="5.9"/><circle class="cls-4" cx="208" cy="138.45" r="8.84"/><circle class="cls-4" cx="171.38" cy="56.79" r="11.79"/></g></svg>