<?xml version="1.0" encoding="utf-8"?>
<!-- Generator: Adobe Illustrator 21.1.0, SVG Export Plug-In . SVG Version: 6.00 Build 0)  -->
<svg version="1.1" id="Capa_1" xmlns="http://www.w3.org/2000/svg" xmlns:xlink="http://www.w3.org/1999/xlink" x="0px" y="0px"
	 viewBox="0 0 309.1 309.1" style="enable-background:new 0 0 309.1 309.1;" xml:space="preserve">
<style type="text/css">
	.st0{fill:#FFFFFF;}
</style>
<g>
	
		<image style="overflow:visible;opacity:0.69;" width="379" height="380" xlink:href="37D13F5228D3F738.png"  transform="matrix(1 0 0 1 -34.0157 -34.9157)">
	</image>
	<g>
		<g>
			<path class="st0" d="M30.1,172.9c23.7-34.1,37.6-56.1,47.8-72.3c-39.1,3.5-76.5,52-76.5,52l25.8,25.8
				C27.9,176.5,28.9,174.7,30.1,172.9z"/>
			<path class="st0" d="M130.7,282l25.8,25.8c0,0,48.6-37.4,52-76.5c-16.2,10.2-38.2,24.1-72.3,47.8
				C134.5,280.3,132.6,281.2,130.7,282z"/>
			<path class="st0" d="M91.5,268.7c-4.4,1.8-8.8,3.7-13.3,5.2c-12.1,4-24.6,6.8-37.2,8.5c-5.3,0.7-10.6,1.4-16,1.8
				c0.1-0.7,0.1-1.3,0.2-2c1.1-12.9,3.1-25.7,6.2-38.2c1.5-6.1,3.5-11.9,5.6-17.8c1.3-3.7,2.9-7.1,4.6-10.6l-2.8-2.8
				c-6.3,4.2-11.8,9.6-16.4,15.6c-6.9,9-12,19.1-15.7,29.8c-3.9,11.5-6.2,23.7-6.5,35.8c-0.1,1.7-0.2,3.4,0.1,5.1
				c0.3,2.2,1.3,4.3,2.7,5.9c1.4,1.7,3.3,2.9,5.4,3.6c1.7,0.6,3.5,0.6,5.3,0.6c11-0.1,22.2-2,32.7-5.1c19.3-5.7,38.7-16.5,50.1-33.5
				l-2.8-2.8C93,268,92.3,268.4,91.5,268.7z"/>
			<path class="st0" d="M306,3.1L306,3.1c-2-2-4.7-3.1-7.6-3.1c-0.1,0-0.1,0-0.2,0c-34.4,0.7-119.3,7.1-164.4,52.2
				c-20.5,20.5-27.1,31.1-41.7,54.5c-10.5,16.8-24.9,39.8-51.1,77.6c-3,4.2-2.4,10,1.2,13.7l68.9,68.9c2.1,2.1,4.8,3.1,7.6,3.1
				c2.1,0,4.2-0.6,6.1-1.9c37.8-26.3,60.8-40.6,77.6-51.1c23.3-14.6,34-21.2,54.5-41.7c45.2-45.2,51.6-130,52.2-164.4
				C309.2,8,308.1,5.2,306,3.1z M226.2,133.2c-13.9,13.9-36.4,13.9-50.2,0c-13.9-13.9-13.9-36.4,0-50.2c13.9-13.9,36.4-13.9,50.2,0
				C240.1,96.8,240.1,119.3,226.2,133.2z"/>
		</g>
	</g>
</g>
</svg>
