<svg id="Layer_16" data-name="Layer 16" xmlns="http://www.w3.org/2000/svg" viewBox="0 0 1920 1080"><defs><style>.cls-1{fill:#b3b3b3;}</style></defs><title>trace</title><path class="cls-1" d="M960.5,230.75h-.77c-3.76,0-7.5,0-11.25,0v1q6,0,12,0v-1Zm-24,.11-3,0H929l-4.5.06,0,1q6-.09,12-.14v-1Zm-24,.31-3.68.07h-.52l-7.81.16,0,1c4-.09,8-.17,12-.24v-1Zm-24,.53-1.41,0h-.58l-3,.09h-1.15l-.57,0h-.08l-5.22.16,0,1q6-.2,12-.35l0-1Zm-24,.74-6.67.25h-.63l-4.7.19,0,1,12-.46,0-1Zm-24,1h-.21l-.39,0h-.27l-.57,0h-.15l-.6,0h-.16l-.55,0h-.23l-.48,0h-.3l-.39,0-7.68.37.05,1q6-.3,12-.57l-.05-1Zm-24,1.17-4.48.25H812l-.67,0h-.1l-.63,0h-.12l-.62,0h-.12l-.64,0H809l-.71,0h0l-3.73.22.06,1q6-.36,12-.68l-.05-1Zm-24,1.41-3.88.24-.58,0h0l-7.45.49.07,1,11.95-.79-.06-1Zm-24,1.62-8.74.65h-.15l-.14,0-2.92.22.08,1q6-.47,11.94-.9l-.07-1Zm-23.93,1.86q-6,.5-11.94,1l.08,1q6-.53,11.95-1l-.09-1Zm-23.9,2.08q-6,.55-11.95,1.14l.1,1q6-.59,11.94-1.13l-.09-1Zm-23.88,2.33-1.78.18h0l-.29,0h-.07l-.3,0h0l-9.48,1,.11,1L697,244.87l-.1-1Zm-23.86,2.56q-6,.67-11.94,1.38l.12,1q5.94-.7,11.94-1.38l-.12-1Zm-23.84,2.81-1.39.17-.1,0h0q-3.72.45-7.43.93h0l-.18,0-2.79.35.13,1q5.94-.77,11.91-1.5l-.12-1Zm-23.81,3.07q-5.86.78-11.69,1.6h0l-.15,0,.13,1q5.93-.83,11.88-1.62l-.13-1Zm-23.78,3.32c-4,.57-7.92,1.16-11.85,1.76l.15,1c3.92-.6,7.91-1.19,11.85-1.76l-.15-1Zm-23.73,3.59-4.76.75h0l-.13,0-.27,0h0l-6.64,1.07.16,1c3.91-.64,7.9-1.28,11.84-1.89l-.16-1Zm-23.67,3.86-1,.18-.24,0h0l-6.52,1.12-.3.06h0l-3.67.64.17,1c3.91-.69,7.89-1.38,11.83-2l-.16-1Zm-23.63,4.15-4,.74-.12,0-.2,0-.17,0-.13,0-7.16,1.33.18,1c3.91-.74,7.88-1.47,11.81-2.19l-.17-1ZM507,271.68c-3.63.71-7.19,1.41-10.79,2.14l-.17,0-.13,0-.25.05h-.07l-.34.07.2,1,11.74-2.33-.19-1Zm-23.53,4.75c-3.92.82-7.84,1.65-11.73,2.49l.21,1c3.87-.84,7.82-1.67,11.73-2.49l-.21-1ZM460,281.49l-4.4,1h0l-.29.06-.11,0-.18,0-6.71,1.53.22,1c3.87-.89,7.81-1.79,11.72-2.66l-.22-1Zm-23.39,5.4-1.25.3-.07,0-.22.05-.11,0-.35.08-.14,0-.18,0-.15,0-.16,0-.16,0-.32.08-.14,0-.16,0-.17,0-.15,0-.18,0-.16,0h-.06l-.46.12H432l-.23.06-.08,0-1,.25h-.05l-1.08.26h0l-1.05.26h-.08l-.22.06-.09,0-.22,0-.28.07-.12,0-.23.06-.1,0-2.12.52.24,1c3.84-.94,7.76-1.9,11.65-2.82l-.23-1Zm-23.32,5.76-4.18,1.07h0l-.25.06-.06,0-.34.09-.17,0-.17,0-.17,0-.14,0-.23.06-.09,0-.32.08-.08,0-.25.07-.1,0-.66.17-.08,0-.26.07-.08,0-.31.08h0l-.32.08-.11,0-.22.06-.13,0-.26.07h-.05l-.31.09-.14,0-.19.05-.13,0-.2.05-.19.05-.22.06-.16,0-.16,0-.17.05-.17,0-.23.06-.19.05-.06,0,.26,1c3.82-1,7.72-2,11.59-3l-.25-1Zm-23.18,6.11-5.81,1.6h0l-.31.09h0l-.68.19-.07,0-.29.08h-.05l-.34.1h0l-.33.09-.05,0-3.58,1,.27,1c3.82-1.07,7.71-2.15,11.58-3.2l-.26-1ZM367,305.27c-3.87,1.13-7.67,2.26-11.48,3.41l.29.95c3.78-1.14,7.64-2.28,11.47-3.4l-.28-1Zm-23,6.93c-3.84,1.2-7.67,2.41-11.44,3.63l.3.95c3.77-1.21,7.62-2.43,11.44-3.63l-.3-.95Zm-22.83,7.36q-5.73,1.92-11.35,3.86l.32.95c3.73-1.29,7.55-2.59,11.35-3.86l-.32-.95Zm-22.69,7.85c-3.8,1.36-7.55,2.73-11.28,4.12l.35.94c3.7-1.38,7.49-2.76,11.26-4.12l-.33-.94ZM276,335.77q-4.41,1.69-8.74,3.42l-2.41,1,.37.93c3.66-1.47,7.4-2.94,11.14-4.38l-.36-.93Zm-22.28,8.92-6.49,2.73,0,0-.18.08h0l-.42.18h0l-.2.08h0l-3.68,1.58.4.92c3.62-1.57,7.33-3.14,11-4.69l-.38-.92Zm-22,9.54c-3.69,1.67-7.3,3.33-10.89,5l.42.91c3.56-1.68,7.22-3.36,10.88-5l-.41-.92ZM210,364.44q-5.44,2.67-10.71,5.38l.46.89c3.49-1.79,7.09-3.6,10.69-5.37l-.44-.9Zm-21.33,11-1.41.76h0l-.16.09,0,0-.14.07-.05,0-.12.07-.06,0-.14.07,0,0-.54.29h0l-.16.09h0l-.15.09h0l-.16.08,0,0-.15.08,0,0c-2.4,1.31-4.75,2.62-7.09,3.94l.49.87c3.42-1.93,7-3.88,10.5-5.79l-.48-.88Zm-20.89,11.83c-3.49,2.08-6.89,4.16-10.24,6.27l.53.85c3.32-2.09,6.76-4.2,10.22-6.26l-.51-.86ZM147.48,400l-1.34.89q-3.52,2.38-6.95,4.78h0l-.12.09-.05,0-.09.06-.09.06,0,0-1.19.84.58.81c3.19-2.26,6.5-4.54,9.86-6.78l-.56-.83Zm-19.55,13.89q-4.84,3.69-9.42,7.41l.63.78c3-2.47,6.18-4.95,9.39-7.39l-.6-.8Zm-18.59,15.19c-3,2.7-6,5.4-8.83,8.14l.69.72c2.81-2.71,5.77-5.44,8.81-8.11l-.67-.75ZM92.07,445.79l0,0-.1.11,0,0-.1.1,0,0-.38.4h0l-.12.13h0l-.12.13h0l-.25.27h0l-.12.13,0,0-.11.12v0l-.38.4,0,0-.1.11,0,0L90,448l0,0-.24.26,0,0-.08.09,0,0-.07.08,0,0-.08.1,0,0-.11.12,0,.06-.07.07-.06.06,0,.06-.06.07,0,0c-.08.09-.16.19-.25.28l0,0-.08.09,0,0-.08.09,0,0-.08.1h0l-.3.34h0l-.09.11h0l-.5.56h0l-.49.57h0l-.09.11h0l-.39.45h0l-.09.11v0c-.13.14-.25.27-.37.42l0,0-.07.08,0,.05-.06.07,0,.06-.06.07-.08.09,0,.06-.09.1,0,0-.09.1,0,0-.1.12h0l-1.08,1.26.77.64c2.5-3,5.18-6,7.94-8.9l-.72-.69ZM76.64,464.12c-1.89,2.54-3.7,5.11-5.4,7.68h0l-.15.22v0l-.14.21,0,0-.06.1,0,0,0,.07,0,0-.05.08,0,0,0,.05,0,.06,0,0-.07.1v0l-.15.22h0l-.55.86.84.54c2.1-3.28,4.39-6.58,6.8-9.83l-.8-.6ZM63.72,484.34c-.29.55-.57,1.08-.85,1.63h0l0,.1h0l-.06.11v0l0,.08,0,0-.05.1v0l0,.09v0l0,.07,0,0-.05.1,0,0,0,.07,0,0,0,.1,0,0,0,.07,0,.05,0,.07,0,0,0,.08,0,.05,0,.06,0,0,0,.1,0,0,0,.06,0,0,0,.09,0,0,0,.07,0,0,0,.07v0l-.05.09,0,0,0,.08v0l0,.1v0l-.05.09v0l-.11.21v0l0,.1h0l-.06.11h0l0,.11h0c-1,2-1.87,3.95-2.72,5.95l.92.39C61,492,62.7,488.36,64.6,484.81l-.88-.47Zm-9.4,22.05c-1.12,3.5-2,7-2.82,10.55h0a1.89,1.89,0,0,1-.05.23v0l0,.09v0l0,.1v0l0,.09v.1l0,.06v0l0,.13v.1h0l1,.2a117.22,117.22,0,0,1,3-11.49l-1-.3Zm-4.84,23.45q-.42,4.44-.47,8.91h0a1.93,1.93,0,0,1,0,.24v.38h0v.36h0V540h0v.91h0c0,.3,0,.61,0,.91l1,0c0-.6,0-1.21,0-1.81,0-3.34.16-6.73.48-10.07l-1-.09Zm1.4,23.82-1,.13c0,.28.07.55.11.83h0c0,.12,0,.24,0,.36v.12l0,.14v.25l0,.11v1.08l0,.08v.59l0,.09v.26l0,.13v0l0,.07v0l0,.08h0l0,.17v.12q.63,3.63,1.5,7.24h0l1-.24a107.47,107.47,0,0,1-2.17-11.68Zm5.55,23.09-1,.33,0,.08h0l0,.08v0l0,.12,0,0,0,.05,0,.07v0l0,.1h0l0,.12h0q1.74,4.84,3.91,9.62v0l0,.09v0l.05.1,0,.05,0,0,0,.06v0l.07.15h0l.08.17.91-.42c-1.68-3.65-3.19-7.36-4.48-11Zm9.92,21.61-.86.49c1.75,3.1,3.64,6.16,5.67,9.23h0l.07.11v0l0,.08,0,0,0,0,.07.11h0l.37.56.83-.56c-2.26-3.36-4.38-6.77-6.3-10.15Zm13.27,19.8-.79.61q3.58,4.62,7.57,9.19l0,0,0,0,.75-.66c-2.66-3-5.21-6.14-7.59-9.21Zm15.7,18-.71.69c1.47,1.52,3,3,4.53,4.55l0,0,.08.08,0,0,.08.08,0,0,.07.07.07.07,0,0,.13.12,0,0,.1.09,0,0,.1.09,0,0,.11.11h0c1,1,2,1.92,3,2.87l.69-.73c-3-2.76-5.82-5.58-8.54-8.37Zm17.42,16.35-.65.76,1.77,1.51,0,0,.07.06.07.07,0,0,.1.08,0,0,.11.09,0,0,.12.11h0q3.33,2.82,6.83,5.61l.63-.78c-3.16-2.52-6.25-5.09-9.21-7.63Zm18.69,14.92-.6.81q4.74,3.53,9.74,7l.57-.82c-3.31-2.3-6.58-4.65-9.71-7Zm19.63,13.69-.55.84c3.05,2,6.15,4,9.32,5.95l0,0,.11.07.14.08,0,0,.48.3.53-.85c-3.42-2.13-6.82-4.29-10.1-6.44Zm20.36,12.62-.51.86c1.48.87,3,1.73,4.48,2.6l.06,0,.08,0,.1.05.05,0q2.81,1.61,5.65,3.19l.49-.87c-3.52-2-7-4-10.4-5.94Zm20.93,11.67-.47.88,2.45,1.3,0,0,.1.06.14.07h0c2.59,1.36,5.23,2.72,7.89,4.07l.45-.89c-3.59-1.82-7.17-3.68-10.64-5.52Zm21.39,10.84-.44.9,2.18,1.05h0l.15.07h0l.48.23h0l.12.06.05,0,.13.06,0,0,.12,0,.06,0,.13.06h0l.64.31h0l.15.08h0l.16.07h0c2,.93,4,1.87,6,2.79l.35.17.42-.91c-3.65-1.69-7.29-3.42-10.83-5.14Zm21.72,10.09-.4.91c2.35,1,4.69,2.08,7.08,3.12h0l.19.08h0l.41.18h0l.18.08.05,0,.15.06.05,0,.15.07.06,0,.39.17,0,0,.17.08h0l.18.08h0l1.79.77.39-.92c-3.69-1.58-7.38-3.19-11-4.79Zm22,9.42-.38.93,1,.42h0l.1,0,5.85,2.37.07,0,.09,0,4,1.58.37-.93c-3.74-1.48-7.48-3-11.13-4.49Zm22.32,8.84-.35.93,2.63,1,.05,0,.18.07.22.08.1,0,.27.1,0,0q3.84,1.44,7.72,2.87l.34-.94c-3.75-1.38-7.52-2.79-11.21-4.19Zm22.48,8.26-.34.94.7.25h0l.3.1.06,0,.28.1.14.05.16.06.16.05.07,0,.37.13.06,0c3,1.06,6,2.09,9,3.13l.32-1c-3.79-1.29-7.6-2.62-11.32-3.94ZM325,760.64l-.31,1,3,1h.05c2.79.91,5.57,1.81,8.39,2.71l.3-.95c-3.81-1.22-7.64-2.46-11.39-3.7Zm22.82,7.28-.3,1,5.12,1.57.15,0,.14,0,.31.09h0l5.73,1.72h0l.28-1c-3.84-1.15-7.7-2.32-11.48-3.49Zm23,6.87-.28,1c2,.56,3.89,1.12,5.86,1.67l.16.05.14,0,.27.07,0,0,.32.09.07,0,.3.08h0l.69.2h0l.34.09h0l.33.1.1,0,.21,0,.15.05.12,0,2.34.66.27-1c-3.84-1.07-7.72-2.17-11.51-3.26Zm23.08,6.43-.26,1,5.93,1.59.12,0,.16,0,.29.08h0l.36.1h0l4,1.05.17,0,.12,0,.47.12.25-1c-3.87-1-7.78-2-11.61-3.09Zm23.2,6.06-.24,1,.36.09h0l.71.18H418l.28.08.08,0,.68.17h0l.31.07h0l6.9,1.72h0l.33.08h.05l.19,0,1.62.39.24-1c-3.88-.95-7.8-1.92-11.64-2.89Zm23.33,5.7-.23,1,2.52.6h0l.28.06.1,0,.27.06h.06l.33.08.09,0,.25.06.09,0,.25.06.1,0,.69.17h0l6.56,1.51.23-1c-3.89-.89-7.81-1.8-11.66-2.71Zm23.36,5.34-.22,1,8.23,1.79h0l.77.16.11,0,.16,0,.19,0,.14,0,.22.05.11,0,.33.07h0l.31.06.12,0,.2,0,.16,0,.14,0,.52.11.21-1c-3.91-.83-7.87-1.69-11.74-2.55Zm23.45,5-.2,1,1.2.25.25.05h0q5.11,1.05,10.28,2.08l.19-1c-3.92-.78-7.87-1.58-11.76-2.39Zm23.54,4.7-.19,1,2.52.48.23,0h0l9,1.7.19-1c-3.92-.73-7.88-1.49-11.77-2.24Zm23.58,4.4-.17,1,5.88,1.05h0l.29,0,.16,0,.15,0,4.27.75.29,0h0l.74.13.17-1c-3.93-.68-7.9-1.38-11.8-2.08Zm23.62,4.1-.16,1,4.94.82.14,0,.17,0,.23,0,.09,0,6.29,1,.16-1-11.86-2Zm23.68,3.82-.15,1,9.09,1.39.16,0h.09l.29,0h0l2.22.34.15-1c-4-.59-7.95-1.2-11.88-1.81Zm23.73,3.54-.14,1q5.34.78,10.71,1.52l1.17.16.14-1q-6-.83-11.88-1.68Zm23.78,3.29-.13,1,.84.11,11,1.43.13-1-11.88-1.54Zm23.8,3-.12,1,4.24.52.21,0h0l7.43.88.12-1L653,830.2ZM676.8,833l-.11,1q5.94.66,11.93,1.29l.1-1q-6-.63-11.92-1.29Zm23.85,2.53-.1,1,6.36.63,5.6.55.09-1q-6-.57-12-1.17Zm23.88,2.28-.09,1,8.19.73h.15l3.64.32.08-1q-6-.51-12-1.06Zm23.9,2.05-.08,1,9.73.77,2.25.17.08-1q-6-.45-12-.94Zm23.93,1.82-.07,1,4,.28.36,0,.24,0,.66,0h0l6.74.45.07-1q-6-.4-12-.83Zm23.94,1.59-.06,1,2.51.16H799l.41,0,.54,0H800c2.73.17,5.45.33,8.19.48l0-1q-6-.33-12-.71Zm24,1.37-.06,1,11.13.56h.43l.42,0,.05-1q-6-.29-12-.6Zm24,1.15,0,1,2.61.11H847l.27,0,.66,0h0l7.45.31h.06l.55,0h.18l0-1-12-.49Zm24,.92,0,1,1.39.05h.62l7.9.25.46,0h.18l1.42,0,0-1q-6-.18-12-.39Zm24,.71,0,1,7.17.17h2.59l2.22,0,0-1q-6-.12-12-.28Zm24,.5,0,1,3.72.06h5.3l3,0v-1q-6-.07-12-.17Zm24,.28v1q5.21,0,10.44.06h1.55v-1l-12-.07Zm36,0-12,0v1h3.35l7.51,0h1.15v-1Zm24-.25q-6,.09-12,.15v1l6.73-.08h2.72l2.56,0,0-1Zm24-.45q-6,.13-12,.25l0,1,3-.06h.76l8.24-.18,0-1Zm24-.67q-6,.2-12,.36l0,1q6-.16,12-.36l0-1Zm24-.88q-6,.24-12,.46l0,1,.74,0h0l.62,0h.65l.42,0h.21l.54,0h.73l.38,0h.32l.46,0h.25l.53,0h.18l.64,0h.06l2.95-.11h.07l.63,0h.21l.37,0,1,0,0-1Zm24-1.11q-6,.3-12,.58l.05,1,1.95-.09h.41l.6,0h.06l5.95-.29h0l.63,0h.22l.4,0,1.72-.09,0-1Zm24-1.32q-6,.36-12,.69l0,1,3.19-.18.42,0h.24l.58,0h.1l2.94-.17h0l.68,0h.15l.52,0,.32,0h.11l2.68-.16-.06-1Zm24-1.55q-6,.42-12,.8l.07,1,1.67-.11.5,0h.11l6.68-.44h0l.56,0L1144,843l-.07-1Zm23.93-1.77q-6,.46-12,.91l.08,1q5.88-.43,11.72-.9h0l.22,0-.08-1Zm23.91-2q-6,.54-12,1l.08,1,7.34-.63h0l.3,0h.07l.27,0h.08l.26,0h.11l.25,0h.05l.31,0h0l2.88-.25-.09-1Zm23.89-2.24q-6,.6-12,1.15l.09,1c4-.37,8-.76,12-1.15l-.1-1Zm23.86-2.48q-6,.66-12,1.28l.1,1,2.47-.26h.08l.22,0h.15l.16,0,.27,0h0l7.72-.83.85-.09-.11-1Zm23.83-2.72q-5.94.71-11.92,1.39l.11,1h0l9.65-1.13h.07l.22,0,2-.24-.12-1Zm23.8-3-11.89,1.52.12,1,9.08-1.15,2.82-.37-.13-1Zm23.76-3.23q-5.91.84-11.86,1.64l.14,1,2.12-.29,6.9-.95.16,0,.11,0,2.57-.36-.14-1Zm23.75-3.5c-3.92.6-7.91,1.2-11.86,1.78l.15,1,2.12-.31c3.25-.48,6.51-1,9.74-1.47l-.15-1Zm23.7-3.76-11.85,1.92.15,1q5.92-.93,11.8-1.91h.06l-.16-1Zm23.64-4c-3.91.7-7.89,1.39-11.84,2.06l.17,1,1.4-.24h0l.18,0,.21,0,.08,0,10-1.73-.18-1Zm23.58-4.33c-3.89.74-7.85,1.48-11.78,2.2l.18,1,3-.54h0l.32-.06h.07l.21,0,5.85-1.1h0l.25-.05.11,0,.2,0,.25,0h.08l1.46-.28-.19-1Zm23.54-4.64c-3.88.79-7.83,1.58-11.75,2.35l.2,1,5.85-1.16.15,0,.17,0,.22,0h.06l5.3-1.07-.2-1Zm23.48-4.95c-3.87.84-7.82,1.69-11.73,2.51l.2,1q5.91-1.25,11.75-2.52l-.22-1Zm23.4-5.28c-3.87.9-7.81,1.8-11.71,2.68l.22,1,1.42-.32.11,0,.22-.05.12,0,.27-.06.19,0,.18,0,.16,0,.16,0,.18,0,.22,0,.09,0,.32-.08.11,0,.25-.06.08,0,.32-.07h0l7.3-1.69-.22-1Zm23.29-5.62c-3.83,1-7.74,1.91-11.62,2.85l.23,1c3.89-.94,7.79-1.89,11.63-2.85l-.24-1Zm23.25-6c-3.82,1-7.73,2-11.6,3l.25,1q4.35-1.12,8.65-2.26l.13,0,.09,0,2.74-.72-.26-1Zm23.12-6.37c-3.81,1.09-7.7,2.18-11.56,3.24l.26,1,2.13-.58.08,0,.14,0,6.16-1.73.07,0,.2,0,.18-.05.11,0,.32-.09.06,0,2.12-.6-.27-1Zm23-6.77c-3.78,1.15-7.64,2.31-11.47,3.44l.28,1q4.68-1.38,9.32-2.78l.09,0,.2-.06.16-.05.08,0,1.63-.5-.29-1Zm22.88-7.2c-3.76,1.22-7.61,2.46-11.43,3.66l.3,1,3-.94.06,0,.32-.1.17-.06.13,0q3.92-1.24,7.78-2.5l-.31-.95Zm22.71-7.67c-3.72,1.3-7.53,2.61-11.32,3.89l.32.95,0,0,.18-.06.27-.09.08,0,.68-.23h0l.69-.23h0l.69-.24h0l.23-.08h0l.38-.13.1,0,.18-.06.15,0,.21-.07.19-.07.15-.05.2-.07.09,0,.3-.1.09,0,.28-.1h0l.34-.12h0l3.13-1.08.07,0,.3-.1.08,0,.22-.08.15,0,.09,0,1.59-.55-.33-1Zm22.56-8.17c-3.7,1.39-7.49,2.79-11.27,4.15l.34,1,3.88-1.42h0l.31-.12.12,0,.16-.06.17-.06.05,0,6.39-2.37,0,0,.12,0-.35-.94Zm22.33-8.71c-3.65,1.48-7.4,3-11.13,4.42l.36.93c3.76-1.46,7.46-2.93,11.14-4.42l-.37-.93Zm22.08-9.3c-3.61,1.58-7.32,3.17-11,4.73l.39.92q5.58-2.34,11-4.73l-.4-.92Zm21.82-10c-3.56,1.7-7.21,3.4-10.87,5.07l.42.91.66-.3,0,0,.12-.06.09,0,.08,0,.16-.07h0q4.92-2.25,9.71-4.54l-.43-.9Zm21.45-10.68c-3.49,1.81-7.08,3.64-10.68,5.44l.45.89c3-1.47,5.87-2.95,8.76-4.44l1.93-1-.46-.89Zm21-11.49c-3.4,1.95-6.91,3.92-10.44,5.85l.48.88,1.43-.79h0l.13-.07.06,0,.13-.07,0,0,.13-.07,0,0,.11-.07.35-.19,0,0,.13-.07,0,0,.14-.07,0,0,.15-.08h0l.15-.08h0l.16-.08h0c2.41-1.34,4.79-2.68,7.14-4l-.5-.86ZM1766,683.69c-3.3,2.12-6.72,4.25-10.16,6.33l.51.86,1.45-.88h0l.11-.07.06,0,.09,0,.09-.06,0,0,.13-.08,0,0c2.78-1.7,5.48-3.39,8.17-5.12l-.54-.84Zm19.8-13.47c-3.17,2.3-6.47,4.61-9.81,6.88l.57.83c3.35-2.29,6.63-4.58,9.82-6.9l-.58-.81Zm18.9-14.68c-3,2.5-6.13,5-9.32,7.5l.61.79c1.48-1.14,2.94-2.3,4.39-3.45h0c1.68-1.34,3.34-2.7,5-4.06l-.65-.77Zm17.71-16.06c-2.76,2.74-5.68,5.5-8.68,8.21l.67.74c1.31-1.18,2.58-2.35,3.84-3.54h0l.1-.09,0,0,.09-.09,0,0,.09-.08,0,0,.28-.26,0,0,.06-.06.07-.06.06-.06.07-.07,0,0,.09-.09,0,0c1.26-1.2,2.5-2.41,3.71-3.61l-.7-.71Zm16.06-17.65c-2.45,3-5.07,6-7.8,9l.74.67q3.09-3.37,5.95-6.79v0l.11-.12v0l.1-.12,0,0,.22-.27,0,0,.07-.09,0,0,.07-.08,0,0,.09-.1,0-.06.08-.09,0-.07.05-.06.06-.07,0,0,.06-.08,0,0,.13-.16,0,0,.07-.08,0-.05.06-.08,0,0,.07-.09,0,0,.19-.23-.78-.63Zm13.82-19.45c-2,3.31-4.23,6.66-6.57,10l.82.58q2.84-4,5.38-8h0l.09-.14h0l0-.06,0,0,0-.05.05-.09,0,0,.06-.1h0l.07-.12h0c.27-.44.54-.87.8-1.31l-.85-.52Zm10.66-21.28c-1.42,3.62-3.07,7.28-4.87,10.87l.89.45q2.3-4.56,4.2-9.17h0l.15-.36h0l.24-.6h0a2.29,2.29,0,0,1,.1-.23h0l0-.11h0l.09-.23h0c0-.08.06-.14.08-.21l-.93-.37Zm6.48-22.84a111.88,111.88,0,0,1-2.65,11.59l1,.27c.26-.9.51-1.81.74-2.71v0l0-.08v0l.06-.24v0l0-.06v-.05l0-.07,0-.08v0l0-.06v0l0-.08v0l0-.1v0l0-.08v0l0-.11h0l0-.11v0l0-.09v0l.05-.23v0l0-.1v0l.06-.23h0l0-.11h0l.06-.24h0l0-.11h0c0-.08,0-.16.05-.24h0c0-.25.11-.49.16-.73h0q.6-2.67,1.07-5.36l-1-.17Zm2.44-23.74-1,.05c.09,1.8.14,3.63.14,5.43,0,2.15-.07,4.32-.2,6.46l1,.06c0-.27,0-.54,0-.81h0c0-.09,0-.18,0-.27V545h0v-.38c0-.12,0-.24,0-.36h0v-.12h0c0-.71,0-1.41.06-2.12h0v-.11h0c0-.12,0-.24,0-.37h0v-.11h0v-.11h0a1.85,1.85,0,0,1,0-.24v-1h0v-.24h0v-.24h0v-.24h0v-.12h0V539h0a2.18,2.18,0,0,1,0-.25h0q0-2-.12-4h0v-.23ZM1868,510.88l-1,.27a111,111,0,0,1,2.54,11.61l1-.16c-.17-1-.35-2-.54-3.07h0l0-.11h0l0-.12v-.15l0-.07v0l0-.1v-.1l0-.07v0a2,2,0,0,1-.05-.24v-.1h0q-.75-3.75-1.79-7.49Zm-8.58-22.36-.9.44c1.78,3.61,3.39,7.27,4.79,10.9l.93-.36q-.91-2.37-1.93-4.74h0c0-.08-.07-.16-.11-.25h0l0-.07v0l-.06-.14v0l0-.06,0-.05,0-.06,0-.07,0-.06,0-.06,0-.05,0-.07,0,0,0-.1v0l0-.08v0l0-.1v0l0-.1h0l-.1-.23h0l0-.11h0c-.66-1.47-1.35-2.92-2.07-4.38ZM1847.13,468l-.82.57c2.32,3.3,4.5,6.65,6.5,10l.86-.52c-1-1.59-2-3.19-3-4.77h0l-.14-.22h0l-.07-.11v0l-.06-.09,0,0-.06-.1,0,0,0-.07,0,0-.06-.09,0,0,0-.07,0,0-.06-.09,0-.05,0,0,0-.06h0l-.1-.15v0l-.15-.22h0c-.82-1.23-1.65-2.45-2.51-3.67Zm-15-18.73-.75.67c2.72,3,5.33,6.06,7.77,9.1l.78-.63c-.72-.89-1.45-1.79-2.19-2.68h0l-.09-.11h0l-.36-.43,0,0-.07-.09,0,0-.08-.09,0,0-.25-.29,0-.05-.07-.07,0-.06-.07-.07,0-.05-.15-.18h0l-.06-.08,0-.05-.06-.07,0-.06-.06-.07-.07-.08,0-.05-.11-.12,0,0-.08-.09,0-.05-.08-.09,0,0-.11-.13h0l-.12-.14h0l-.1-.12,0,0-.1-.12h0q-1.48-1.71-3-3.41Zm-16.93-17-.68.74c3,2.72,5.89,5.49,8.64,8.24l.71-.71-1.71-1.68h0l-.12-.11,0,0-.11-.12h0l-.12-.12h0l-.12-.12,0,0-.09-.08,0-.05-.07-.07-.06-.06-.06-.05-.07-.07-.05-.05-.07-.07,0,0-.3-.29,0,0-.09-.09,0,0-.09-.08,0,0-.09-.09,0,0-.1-.09h0c-.16-.14-.31-.29-.46-.44h0l-.11-.11h0l-.1-.11h0l-.68-.65h0l-.11-.11h0l-.11-.1h0l-.47-.43h0l-.11-.1h0l-.1-.1,0,0-.1-.09,0,0-.1-.09h0l-.33-.32h0l-.1-.08,0,0-.09-.08,0,0-.08-.07,0,0-.08-.08,0,0-.08-.08,0,0-.19-.17,0,0-.09-.08,0,0-.08-.08,0-.05-.08-.07,0,0L1816,433l0,0-.09-.08h0l-.21-.2,0,0-.09-.08,0,0-.09-.08,0,0-.09-.07,0,0,0-.05Zm-18.36-15.46-.62.79c3.19,2.48,6.32,5,9.3,7.53l.65-.77,0,0-.09-.07,0,0-.1-.08,0,0-.11-.09,0,0-.12-.1,0,0-.56-.46,0,0-.11-.09,0,0-.11-.09,0,0-.11-.09,0,0-.1-.08,0,0-.09-.08,0,0-.09-.08,0,0-.1-.08,0,0-.09-.07-.05,0-.1-.08,0,0-.14-.11,0,0-.11-.09-.06-.05-.08-.07-.07-.05-.07-.06-.06-.05-.08-.06-.07-.06-.06-.05-.08-.06-.06-.06-.08-.06-.06-.05-.07-.06-.07-.06-.07-.05-.07-.06-.07-.06,0,0-.48-.4h0l-.11-.1h0l-.11-.09,0,0-.11-.08,0,0-.1-.09,0,0-.11-.08,0,0-.11-.09,0,0-.11-.1h0l-1.21-1h0l-.26-.21h0c-.81-.65-1.64-1.3-2.47-1.95Zm-19.4-14.14-.56.82c3.33,2.28,6.62,4.6,9.78,6.9l.59-.81q-4.77-3.48-9.81-6.91Zm-20.17-13-.52.85c3.44,2.1,6.86,4.23,10.15,6.35l.54-.84-2.13-1.36,0,0-.12-.08-.05,0-.1-.06-.06,0-.06,0-3.11-1.95h0l-.15-.09,0,0-.13-.08,0,0-.11-.07-.07,0-.08-.05-.1-.07-.06,0-.13-.09h0l-3.59-2.2Zm-20.77-12-.48.87c3.52,1.94,7,3.92,10.43,5.88l.5-.87-1.57-.91h0l-.16-.09h0l-.11-.06c-2.27-1.3-4.56-2.59-6.89-3.87l-.07-.05-.06,0-.14-.08h0l-1.41-.77Zm-21.26-11.13-.44.89c3.59,1.8,7.18,3.63,10.66,5.45l.47-.88-.71-.37-.13-.07,0,0-.15-.08h0l-.17-.09h0c-1.75-.91-3.49-1.81-5.27-2.71l-.05,0-.13-.06-.06,0-.11,0-.09-.05-.08,0-.11-.05,0,0-.13-.06,0,0-3.36-1.68Zm-21.66-10.37-.42.91c3.66,1.68,7.31,3.39,10.87,5.09l.43-.91q-3-1.44-6.06-2.86l-.06,0-.11-.05-.12-.05-.06,0-4.47-2.07Zm-22-9.67-.38.93c3.69,1.56,7.39,3.15,11,4.74l.4-.92q-3.55-1.56-7.17-3.11l-.07,0-.1,0-3.67-1.56Zm-22.21-9-.36.93c3.73,1.46,7.48,2.95,11.13,4.43l.37-.92-.57-.24h0l-.2-.08h0l-.42-.17h0l-.18-.08,0,0-.16-.06,0,0-.13-.05-.14-.06-.13-.05-.08,0-.11-.05-.1,0-.11,0-.09,0-.18-.07-.11,0-.08,0-.12-.05-.07,0-.13-.06h0l-.49-.19h0l-.15-.06h0l-.15-.07h0l-.49-.2h0l-.14-.06-.06,0-.63-.25,0,0-.15-.06h0l-.49-.19h0l-.15-.07h0l-.16-.06h0l-.3-.12,0,0-.15-.06h0l-.16-.06h0l-.49-.2h0l-.14,0-.06,0-.14-.06h0l-.45-.18-.06,0-.14-.05,0,0-.15-.06h0l-.3-.12h0l-.14-.05-.07,0-.11,0-.09,0-.41-.16-.08,0-.11,0-.09,0-.11,0-.07,0-.24-.09-.07,0-.1,0-.07,0ZM1626.87,329l-.34.94c3.78,1.37,7.57,2.77,11.27,4.17l.35-.94q-4.71-1.77-9.5-3.52s0,0,0,0l-.7-.25h0l-.68-.25h0l-.34-.12Zm-22.61-7.93-.32.94c3.79,1.29,7.6,2.6,11.32,3.9l.33-.94-5.49-1.91h0l-.21-.07-.14-.05-.2-.07-.23-.08-.09,0-4.94-1.68Zm-22.85-7.47-.3.95c3.83,1.21,7.68,2.45,11.44,3.68l.31-1-6.17-2-.1,0-.18-.05-.29-.1-.08,0-.3-.1h0l-4.31-1.37Zm-22.92-7-.28,1c3.83,1.13,7.69,2.29,11.47,3.44l.3-.95-2.8-.85-.13,0-.11,0-7.5-2.24-.16-.05-.13,0-.27-.08h0l-.35-.1Zm-23.1-6.6-.26,1c3.85,1.06,7.74,2.15,11.54,3.24l.28-1-6.29-1.78-.13,0-.13,0-.26-.08h-.05l-4.7-1.31Zm-23.18-6.19-.25,1c3.88,1,7.78,2,11.61,3.05l.26-1-4.82-1.27-.17,0-.12,0-6.51-1.7ZM1488.94,288l-.24,1c3.88.93,7.79,1.9,11.63,2.85l.24-1-5.78-1.43h-.06l-.27-.07-.1,0-.21-.05-.14,0-.29-.07-.18,0-.13,0-.19-.05-.13,0-.2,0h0l-.5-.12h0l-.23-.06-.07,0-1-.25-.08,0-.22-.05-.07,0-.4-.1-.12,0-.17,0-.16,0-.16,0-.22,0-.09,0L1489,288Zm-23.39-5.47-.22,1c3.9.88,7.84,1.79,11.7,2.69l.22-1-4.35-1h-.06l-.27-.06-.1,0-.23-.05-.12,0-.29-.06-.21,0-.1,0-.22-.05h-.08l-5.67-1.3Zm-23.44-5.13-.21,1c3.92.83,7.87,1.68,11.74,2.53l.22-1-1.83-.4h0l-.32-.07-.1,0-.19,0-.19,0h0c-3-.66-6-1.3-9.07-1.95Zm-23.5-4.8-.19,1c3.91.77,7.86,1.57,11.74,2.36l.2-1-7.13-1.44-.14,0-.16,0-.2,0-.11,0-.29-.05h0l-3.67-.73Zm-23.58-4.5-.18,1c3.92.72,7.88,1.46,11.77,2.21l.19-1-5.4-1-6.38-1.18Zm-23.64-4.21-.17,1c3.94.68,7.92,1.37,11.83,2.07l.17-1-1.83-.33h0l-.23,0c-3.23-.58-6.49-1.14-9.74-1.7ZM1347.71,260l-.16,1c4,.63,7.94,1.27,11.86,1.92l.16-1c-3.93-.65-7.9-1.3-11.86-1.93ZM1324,256.32l-.15,1c4,.58,7.94,1.18,11.86,1.78l.15-1-2.43-.38h0l-.22,0-.17,0-.15,0-.29,0h0l-5.91-.89h0l-.29,0-.1,0-.24,0-.12,0-.13,0-1.7-.25ZM1300.24,253l-.13,1q5.94.81,11.86,1.65l.14-1q-5.91-.84-11.87-1.65Zm-23.8-3.12-.12,1q6,.75,11.88,1.53l.13-1-9.83-1.26h0l-.27,0h-.1l-.22,0-.19,0-.15,0-1.09-.14ZM1252.6,247l-.11,1,11.92,1.4.12-1-2.6-.31h0l-.27,0-.19,0h-.08l-5.87-.68-.17,0-.13,0-2.61-.3Zm-23.86-2.61-.11,1q6,.63,11.95,1.28l.11-1-5.92-.65h-.11l-.21,0-.18,0h-.12l-5.41-.57ZM1204.85,242l-.09,1,12,1.16.1-1-6.77-.66-5.2-.49ZM1181,239.86l-.09,1,12,1,.09-1-10-.87-2-.16ZM1157,238l-.08,1,12,.92.08-1-6.09-.48h0l-.29,0-.19,0h-.14l-4.43-.33h-.22l-.57,0Zm-23.94-1.67-.07,1q6,.39,12,.81l.07-1-1.42-.1h-.12l-.54,0-.35,0-.33,0-.44,0-.3,0-.43,0-.41,0-.3,0-.46,0h-.23l-.55,0H1139l-.67-.05h0l-5.23-.34Zm-24-1.45-.05,1q6,.33,12,.69l.06-1-6.69-.4h-.11l-.55,0-.32,0h-.08l-4.22-.24Zm-24-1.22,0,1q6,.27,12,.58l.05-1q-6-.3-12-.58Zm-24-1,0,1q6,.22,12,.48l0-1q-6-.26-12-.47Zm-24-.79,0,1q6,.16,12,.36l0-1L1044,232h0l-.7,0h-.11l-.63,0h-.12l-.63,0h-.11l-.66,0h-.06l-3.72-.11Zm-24-.57,0,1q6,.12,12,.26l0-1h-2.64l-.57,0h-2.12l-.61,0h-.09l-6-.12Zm-24-.36v1q6,.06,12,.15l0-1-8.22-.11h-3.78Zm-24-.15v1l12,.05v-1h-1.52l-10.48,0Z"/><path class="cls-1" d="M960.5,295.89h-2.08l-9.93,0v1c4,0,8,0,12,0v-1Zm-24,.13-9.37.13h-.48l-2.14,0,0,1c4-.07,8-.12,12-.17v-1Zm-24,.41-4.87.11H905l-4.48.12,0,1c4-.11,8-.22,12-.3l0-1Zm-24,.67-2.12.07h-.54c-3.12.11-6.24.22-9.34.35l0,1c4-.16,8-.31,12-.44l0-1Zm-24,.94-4.3.2h-.67l-.44,0h-.42l-.74,0h-.05l-.24,0h-.06l-1.08.05h0l-.81,0h0l-.23,0h-.1l-.32,0h-.62l-1.84.09.05,1c4-.2,8-.4,12-.58l0-1Zm-24,1.23c-3.59.2-7.15.41-10.72.64h-.31l-.78.05h-.17l.06,1c4-.25,8-.49,12-.71l-.06-1Zm-23.94,1.5-9.83.7-.23,0h-.07l-1.85.13.07,1c4-.3,8-.58,12-.86l-.07-1Zm-24,1.8-2.77.23h0l-.75.06h-.38l-.43,0h0l-.21,0h-.43l-.31,0-.17,0h-.34l-.14,0-.3,0h-.12l-.23,0h-.11l-.68.06h-.05l-.34,0h0l-4.1.35.09,1,11.94-1-.08-1Zm-23.9,2.08q-6,.57-12,1.16l.1,1c4-.4,8-.79,11.94-1.16l-.09-1ZM744.87,307,736,308l-.11,0h-.17l-2.72.31.11,1c3.94-.44,7.95-.88,11.91-1.3l-.11-1ZM721,309.74l-.6.07h-.07l-.17,0-.2,0-.11,0-.32,0h-.06l-.31,0h0l-2.59.32h0l-.71.09h-.06l-.34.05h0l-.32,0H715l-.27,0h-.06l-.31,0h-.12l-.22,0-.12,0-.3,0-.11,0-.23,0h-.1l-.32,0h-.08l-.25,0h-.11l-.32,0h0l-.36.05h0l-2.58.33.12,1c3.94-.5,7.95-1,11.91-1.47l-.12-1Zm-23.8,3c-4,.53-8,1.08-11.88,1.63l.14,1c3.92-.55,7.92-1.1,11.87-1.63l-.13-1Zm-23.78,3.34-2.58.39h-.07l-.23,0-.15,0-.15,0-.34.05h0l-5.45.83h-.07l-.41.06h-.05l-.21,0h-.1l-.31.05-.13,0-.19,0-.14,0-.22,0-.21,0-.16,0-.16,0-.19,0-.23,0h-.06l.15,1c3.92-.61,7.91-1.21,11.86-1.8l-.15-1Zm-23.71,3.68c-3.38.55-6.72,1.11-10.07,1.68l-.24,0h-.07l-1.44.24.17,1c3.9-.67,7.88-1.33,11.81-2l-.16-1Zm-23.66,4c-4,.7-7.9,1.42-11.81,2.15l.18,1c3.9-.73,7.87-1.46,11.81-2.16l-.18-1Zm-23.59,4.4q-5.93,1.16-11.76,2.34l.2,1c3.87-.79,7.83-1.57,11.75-2.34l-.19-1ZM579,333l-7.34,1.58h0l-.35.07h0l-.71.15h0l-3.28.72.22,1c3.87-.85,7.82-1.71,11.73-2.54l-.21-1Zm-23.45,5.2-4.16,1-.12,0-.18,0-.23.06-.14,0-.22.05-.15,0-.23.05-.1,0-.29.06-.09,0-.64.15h-.06l-.32.08h-.06l-.28.07h-.06l-.3.07-.09,0-.29.06-.12,0-.16,0-3.38.81.23,1c3.85-.92,7.77-1.85,11.67-2.75l-.23-1Zm-23.32,5.63-1.3.33-.09,0-.1,0-.14,0h0l-4.08,1-.12,0h0l-.18.05h0l-5.52,1.44.25,1c3.82-1,7.73-2,11.61-3l-.25-1ZM509,349.92l-7.06,2h0l-.16,0-.07,0-.22.06-.08,0-.09,0-.1,0-.1,0-.11,0-.07,0-.13,0-.07,0-.15,0h0l-.61.17h0l-.2.06h0l-.16,0-.07,0-.15,0h0l-.18.05h0l-.41.11h0l-.19.05h0l-.15.05h-.06l-.13,0-.09,0-.08,0-.12,0-.06,0-.31.09.27,1c3.8-1.09,7.69-2.17,11.56-3.23l-.27-1Zm-23.09,6.6-4.26,1.28-.1,0-.06,0-.15,0h0q-3.46,1.05-6.89,2.12l.29,1c3.77-1.17,7.63-2.35,11.48-3.49l-.29-1ZM463,363.65l0,0-.1,0-.06,0L455.85,366h0l-.15.05,0,0-.12,0-.1,0-.07,0-.16.06h0l-3.58,1.21.32.94c3.73-1.26,7.56-2.54,11.38-3.78l-.31-1Zm-22.73,7.72q-5.7,2-11.28,4.1l.35.94c3.69-1.38,7.48-2.75,11.27-4.1l-.34-.94Zm-22.49,8.37q-5.65,2.19-11.15,4.44l.38.93c3.64-1.49,7.38-3,11.13-4.44l-.36-.93Zm-22.22,9.08-5.72,2.49-.1.05-.06,0-5.1,2.28.41.91c3.58-1.62,7.27-3.24,11-4.83l-.4-.92Zm-21.86,9.89-3.58,1.73h0l-.15.07,0,0-.1.05-.08,0-.07,0-.11,0h0l-.13.07h0c-2.17,1.06-4.33,2.14-6.46,3.21l.45.89c3.5-1.76,7.12-3.54,10.75-5.27l-.43-.91Zm-21.41,10.82-1.41.76h0l-.13.07,0,0-.12.06,0,0-.11.06-.15.08,0,0-.13.07,0,0-.13.07,0,0-.15.08h0q-4.06,2.21-8,4.45l.49.86c3.4-1.93,6.92-3.88,10.47-5.78l-.47-.88Zm-20.85,11.9q-4.06,2.47-8,5h0l-.14.09,0,0-.11.07-.05,0-.1.07,0,0-.14.09-.07.05-.07,0-.09.06,0,0-.11.07h0l-1.18.77.55.83c3.26-2.13,6.67-4.28,10.12-6.39l-.52-.85Zm-20.06,13.15-2.23,1.59h0l-.3.22-.05,0-.07.05-.08.05-.05,0-.14.1h0l-.14.09,0,0-.12.1h0l-.3.22h0c-1.62,1.18-3.22,2.37-4.78,3.56h0l-.29.22h0l-.12.1,0,0-.27.21,0,0-.11.08,0,0-.1.08,0,0-.13.1-.05,0-.07.06,0,0,.61.79c3.07-2.37,6.31-4.76,9.61-7.09l-.57-.82Zm-19,14.67c-2.63,2.23-5.16,4.46-7.6,6.73h0l-.07.07,0,0-.07.06-.05.05,0,0-.06,0h0l-1,.93.69.73c2.81-2.65,5.8-5.32,8.89-7.93l-.65-.76Zm-17.44,16.46q-1.71,1.83-3.35,3.67h0l-.07.08h0l-.15.18h0l-.06.07,0,0-.07.07v0l-.07.08,0,0L271,470l0,0,0,.05,0,0-.05.05,0,0-.05.06,0,.05,0,0,0,0,0,0,0,.05h0l-.1.11,0,0,0,.06,0,0-.05.05,0,0-.16.18h0l-.06.07h0l-.17.2h0l-.05.06,0,0-.23.27h0l-.05.06h0l-.18.2h0l-.05.06h0l-.05.06,0,0-.16.19h0l-.05.06,0,0-.05.06,0,0-.07.09,0,0,0,0,0,0,0,0,0,0,0,0-.07.07,0,0-.05.06,0,0-.05.06,0,0-.14.17h0l-.07.08h0c-.41.49-.81,1-1.2,1.46l.77.63c2.44-3,5.08-6,7.86-9l-.73-.69Zm-15.11,18.6c-.81,1.17-1.59,2.34-2.34,3.52h0l0,.08h0l0,.07v0l-.12.18v0l0,.06,0,0,0,.05,0,0,0,0,0,0,0,0,0,0v0c-.06.1-.12.2-.19.3h0l0,.08h0c-.81,1.3-1.6,2.6-2.35,3.91h0l0,.07h0l-.17.31v0l0,.05,0,0,0,.06,0,0,0,0,0,0,0,.05,0,0,0,0,0,.08,0,0,0,.06,0,0,0,.06,0,0,0,.07v0l0,.08h0l-.19.35.88.48c1.87-3.37,4-6.77,6.28-10.11l-.82-.57Zm-11.59,21a98.23,98.23,0,0,0-4,11.32l1,.27a95.55,95.55,0,0,1,3.91-11.2l-.92-.39Zm-6.41,23.05c-.09.64-.17,1.3-.25,1.94h0V531a2.11,2.11,0,0,0,0,.25s0,0,0,0v.09h0v.08h0v.08h0v.08h0v.09h0c-.17,1.73-.29,3.46-.35,5.2h0V537h0v.09h0c0,.21,0,.42,0,.63h0v.92h0v.17h0V540h0v.3h1V540a84.2,84.2,0,0,1,.8-11.53l-1-.14Zm1.07,23.78-1,.15c.16,1.1.34,2.2.55,3.29v.72l0,.07v0l0,.07v0l0,.08h0c.27,1.4.58,2.78.92,4.17h0l0,.09h0l0,.08V561l0,.07v0l0,.06v0l0,.07v0l0,.06v.18l0,.05v.12l0,.07h0c.19.73.39,1.46.6,2.18l1-.27a87.86,87.86,0,0,1-2.51-11.59Zm6.49,22.76-.92.4h0v0l0,.05,0,0,0,0,0,0,0,0,0,.06v0l0,.07h0A107.48,107.48,0,0,0,253.76,586l.87-.49a112.91,112.91,0,0,1-5.26-10.65ZM261,595.6l-.82.57c.57.82,1.15,1.63,1.74,2.45h0l.06.09h0l.13.18h0l.05.07,0,0,0,0,0,0,0,0,0,0,.06.08,0,0,0,0,0,0,0,0,0,.05,0,0,.2.27,0,0,0,.06h0c1,1.37,2.08,2.74,3.16,4.1h0l.24.29h0l.06.07h0l.05.07h0l.05.07h0l.12.14h0l.05.06,0,0,0,0,0,0,0,.05,0,0,0,0,.06.08,0,0,0,0,0,0,0,0,0,0,0,.06,0,0,.05.06,0,0,.05.07,0,0,.05.07,0,0,.06.07h0l.08.1.77-.64c-2.58-3.14-5-6.34-7.21-9.51ZM276.06,614l-.73.69c.75.8,1.52,1.59,2.3,2.38v0l.05,0,0,0,0,0,.07.07,0,0,.07.07,0,0,.06.07h0c1.88,1.91,3.82,3.8,5.84,5.69l.68-.73c-3-2.78-5.82-5.62-8.48-8.43Zm17.4,16.34-.64.77,1.35,1.13h0l.39.33,0,0,.08.07.06,0,.1.08.08.06.05,0,.08.07,0,0,.13.1,0,0,.12.1h0q3.32,2.72,6.8,5.39l.61-.79c-3.22-2.47-6.36-5-9.34-7.5Zm19,14.57-.57.82h0l.13.09,0,0,.08.06.06,0,.06,0c2.16,1.52,4.36,3,6.61,4.52h0l.11.07,0,0,.12.07.11.08,0,0,.13.08v0l2.38,1.56.54-.84c-3.39-2.21-6.72-4.47-9.9-6.71Zm20,13.09-.52.85.05,0,.07.05.09,0,0,0c2.1,1.28,4.26,2.56,6.43,3.82l0,0,.11.06.05,0,.09.06.06,0,.09.05.07,0,.08,0,.14.08.05,0,.1.06.06,0,.1.06.06,0,.1.06,0,0,.14.08h0l.31.18,0,0,.14.07,0,0,.14.08h0l.48.28h0l.14.09h0l.13.08h0l.13.08,0,0,.31.17.05,0,.1.06.07,0,.08,0,0,0,.5-.87c-3.52-2-7-4-10.34-6.07Zm20.81,11.84-.47.88c1.74.92,3.49,1.85,5.26,2.77h0l.13.07,0,0,.1.06.06,0,.11,0,0,0,.1.05.06,0,.11.06.05,0,.11,0,.34.17h0l.13.07h0l.12.07h0l.13.07h0l2.39,1.22h0l.12.06,0,0,.11,0,.06,0,.09.05.08,0,.08,0,.1,0,.05,0,.5.25.45-.9c-3.6-1.81-7.18-3.66-10.63-5.5Zm21.38,10.77-.43.9q5.36,2.55,10.89,5l.41-.91c-3.67-1.65-7.32-3.35-10.87-5Zm21.84,9.85-.39.92q4.26,1.83,8.62,3.63h0l.16.06h0l.13.06.07,0,.09,0,.08,0,.07,0,1.83.75.38-.92c-3.73-1.52-7.45-3.08-11.06-4.63Zm22.19,9.06-.36.93h0l.1,0,.08,0,.08,0,.12,0,0,0,.13.05h0l.15.06h0l.16.06h0l2.77,1.06q3.71,1.43,7.47,2.82l.35-.94c-3.77-1.4-7.54-2.83-11.21-4.25Zm22.47,8.33-.33,1,3.68,1.29h0l.1,0,.09,0,.07,0,.12,0,.05,0,.15.05h0c2.32.81,4.64,1.61,7,2.41h.05l.32-.94c-3.8-1.29-7.61-2.61-11.33-3.93Zm22.71,7.7-.31.95,2.66.86c2.91.93,5.83,1.85,8.78,2.77l.3-1c-3.83-1.19-7.68-2.41-11.43-3.62Zm22.9,7.11-.28,1,1.22.36h.05l.11,0,.11,0,.07,0c3.29,1,6.62,1.94,10,2.89l.28-1c-3.86-1.1-7.73-2.23-11.52-3.35Zm23.08,6.58-.27,1,2.23.61.09,0h0q4.59,1.25,9.24,2.46l.25-1c-3.88-1-7.77-2.06-11.58-3.1ZM533,735.34l-.24,1q5.78,1.46,11.64,2.87l.24-1c-3.89-.93-7.81-1.9-11.64-2.86ZM556.33,741l-.23,1,.06,0,.27.06.14,0,.14,0,.6.14h0L565,744l.08,0,.28.06.2,0,.11,0,.3.06.06,0,1.81.4.22-1c-3.91-.86-7.85-1.75-11.7-2.64Zm23.43,5.19-.21,1q5.84,1.25,11.75,2.44l.2-1c-3.92-.79-7.87-1.61-11.74-2.43Zm23.49,4.77-.19,1,1.09.21h0l.31.06.22,0h0l7.26,1.38.25,0h0l2.58.49.19-1c-3.93-.73-7.89-1.48-11.78-2.24Zm23.58,4.39-.18,1,9.43,1.65h0l.62.11.19,0,.13,0,.31,0h0l1.09.19.17-1c-3.95-.67-7.93-1.36-11.83-2.06Zm23.65,4-.16,1,1.83.3h0l.34.06.12,0,.16,0,6.59,1h.09l.16,0,2.53.39.16-1c-4-.61-7.93-1.24-11.84-1.87Zm23.7,3.66-.15,1,1.44.22h.09l.24,0,.16,0,.21,0,.21,0h.07l6.22.89.15,0,.14,0,3,.41.14-1c-4-.55-8-1.13-11.88-1.71Zm23.76,3.34-.13,1,3.05.4.24,0h.07l5.17.67h0l.35,0h.07l.24,0,.14,0h.14l2.41.31.12-1c-4-.5-8-1-11.88-1.54Zm23.79,3-.12,1q5.94.7,11.94,1.39l.11-1c-4-.44-8-.91-11.93-1.38ZM745.57,772l-.11,1,7.8.81h0l.29,0h.08l.29,0,.2,0h.08l3.14.32.1-1c-4-.39-8-.81-11.92-1.22Zm23.87,2.37-.09,1q4.64.44,9.29.84h.08l.22,0,2.36.21.09-1c-4-.34-8-.71-11.95-1.08Zm23.89,2.08-.08,1,3.1.25h.1l.25,0,.25,0h.12l.22,0h.11l.31,0h0l.36,0h0l.3,0h.06l.34,0h0l.28,0h.46l.29,0h.32l.21,0h0l4.74.36.07-1c-4-.29-8-.61-12-.93Zm23.94,1.79-.07,1,8.75.58h0l.7,0H827l.3,0h0l1.87.12.06-1c-4-.25-8-.51-12-.78Zm23.93,1.5-.06,1,2.6.14h.53l5.25.28h1l2.63.14.05-1c-4-.2-8-.42-12-.64Zm24,1.21,0,1c4,.18,8,.35,12,.51l0-1c-4-.16-8-.33-12-.51Zm24,.94,0,1,2,.07q5,.16,10,.3l0-1c-4-.11-8-.23-12-.37Zm24,.67,0,1c4,.09,8,.16,12,.23l0-1c-4-.07-8-.14-12-.23Zm24,.39v1q6,.07,12,.1v-1c-4,0-8-.05-12-.1Zm36,.09c-4,0-8,0-12,0v1l7.75,0h.54l3.72,0v-1Zm24-.27c-4,.07-8,.12-12,.17v1c4-.05,8-.1,12-.17l0-1Zm24-.54c-4,.11-8,.21-12,.3l0,1,9-.22h.26l2.74-.07,0-1Zm24-.82c-4,.16-8,.31-12,.44l0,1c2.79-.09,5.56-.19,8.34-.3h.7l3-.12,0-1Zm24-1.09c-4,.2-8,.4-12,.58l0,1,4.29-.2h.08l.23,0h.07l.42,0h.74l.32,0h.8l.34,0h.79l.33,0h.76l.4,0h.71l.4,0h.74l.35,0h.21l0-1Zm24-1.37c-4,.25-8,.49-12,.72l.06,1,10.86-.65h0l.3,0,.81,0-.06-1Zm23.93-1.66c-4,.3-8,.59-12,.87l.07,1,7.23-.52h.32l.31,0h0l2.56-.19h.28l1.26-.1-.07-1Zm23.9-1.94-11.94,1,.08,1,8.56-.71h.07l.22,0,3.1-.27-.09-1Zm23.89-2.25c-4,.4-8,.79-12,1.16l.1,1q6-.57,12-1.16l-.1-1Zm23.84-2.54c-3.94.45-8,.89-11.91,1.31l.11,1,2.21-.23.23,0h0c3.16-.34,6.28-.69,9.42-1l-.11-1Zm23.83-2.86c-3.94.5-7.94,1-11.91,1.47l.12,1,2.61-.31h0l.33,0h.13l.19,0,.16,0h.09l8.4-1-.13-1Zm23.76-3.18c-3.93.55-7.92,1.1-11.87,1.63l.13,1c4-.53,7.93-1.08,11.88-1.63l-.14-1Zm23.74-3.52c-3.91.61-7.91,1.22-11.86,1.8l.15,1c4-.59,7.94-1.19,11.87-1.8l-.16-1Zm23.66-3.86c-3.91.67-7.88,1.33-11.82,2l.16,1,7.74-1.28.1,0,.19,0,3.79-.64-.16-1Zm23.63-4.22c-3.9.72-7.87,1.45-11.81,2.15l.18,1c4-.71,7.88-1.43,11.81-2.16l-.18-1Zm23.53-4.6c-3.88.79-7.84,1.58-11.75,2.34l.19,1,1.79-.36h.08l.26,0,.21,0h0l9.4-1.88-.2-1Zm23.46-5c-3.87.86-7.82,1.72-11.74,2.55l.21,1,.36-.08h0l.31-.07.17,0,.09,0c3.61-.77,7.22-1.56,10.79-2.36l-.21-1Zm23.36-5.42c-3.84.93-7.77,1.86-11.66,2.76l.22,1,5.12-1.19h0l.33-.08h.07l.26-.06.13,0,.22,0,.15,0,.1,0,.35-.08h0l4.91-1.18-.24-1Zm23.24-5.87c-3.82,1-7.72,2-11.6,3l.25,1,8.76-2.24.17,0h0l2.68-.7-.26-1Zm23.12-6.34c-3.8,1.09-7.68,2.17-11.55,3.24l.27,1,2-.54.06,0,.08,0,.14,0h0c2.72-.75,5.39-1.5,8.08-2.27h0l.14,0,.11,0h0l.15,0h0l.72-.2-.28-1Zm23-6.87c-3.77,1.18-7.63,2.35-11.47,3.5l.28,1q5.8-1.72,11.49-3.5l-.3-1Zm22.8-7.42c-3.73,1.27-7.56,2.54-11.37,3.78l.3.95,3.22-1c2.37-.78,4.7-1.56,7-2.35l.07,0h0l1-.36-.32-.94Zm22.58-8c-3.69,1.37-7.48,2.75-11.26,4.1l.34.94,2.13-.76h0l.17-.06h0l.15-.06h.06l.12,0,.07,0,.11,0,.07,0,.12,0h0l.14-.05.08,0,.1,0,.36-.13.06,0,.12,0,0,0,.15,0h0l.15-.06h0l.13,0,.08,0,.11,0,.06,0,.12,0,.06,0,.13,0,0,0,.12,0,.08,0,.1,0,.08,0,.09,0,.09,0,.1,0,.08,0,.08,0,.11,0,.08,0,.09,0,.1,0,.08,0,.11,0,.07,0,.09,0,.09,0,.12,0,.05,0,.15-.06h0l.17-.06h0l4-1.49-.35-.94Zm22.33-8.72c-3.64,1.49-7.38,3-11.13,4.45l.37.93q5.64-2.2,11.14-4.46l-.38-.92Zm22-9.48c-3.57,1.62-7.26,3.25-11,4.84l.39.92,5.7-2.49h0l.15-.06,5.12-2.29-.42-.91Zm21.6-10.35c-3.49,1.77-7.11,3.55-10.74,5.29l.43.9q5.13-2.44,10.08-4.95l.06,0,.09,0,.09,0,0,0,.4-.2-.45-.9Zm21.09-11.33c-3.4,1.94-6.92,3.89-10.48,5.8l.47.88c.9-.47,1.78-1,2.66-1.44h0l.13-.07,0,0,.12-.07,0,0,.12-.07,0,0,.13-.07h0l.15-.09.06,0,.09,0,.08,0,.08,0,.08,0,.06,0,.1,0,0,0,.1-.05,0,0,.51-.28h0l.12-.07,0,0,.12-.06h0l.13-.07h0l.55-.3h0l.12-.07h0l.11-.07,0,0,.1-.06,0,0,.11-.06h0l.37-.21,0,0,.09-.06.05,0,.1,0,0,0,.1-.05.06,0,.09,0,.06,0,.09,0,.14-.08,0,0,.11-.06,0,0,.1,0,.06,0,.1-.05,0,0,.11-.07,0,0,.15-.08h0l2.09-1.19-.49-.87ZM1599.67,651c-3.26,2.14-6.67,4.3-10.12,6.41l.53.85q5.2-3.18,10.14-6.42l-.55-.84Zm19.48-13.86c-3.08,2.38-6.31,4.78-9.62,7.12l.58.82.23-.16,0,0,.1-.06,0-.05.11-.07.1-.07,0,0,.12-.08,0,0q4.56-3.27,8.86-6.59l-.61-.79Zm18.17-15.49c-2.81,2.66-5.8,5.34-8.88,8l.65.76,2.86-2.47v0l.06,0h0l.19-.17,0,0,.06,0h0l.11-.1,0,0,0-.05,0,0,0,0,.08-.07,0,0,0,0,0,0,0,0,.07-.07,0,0,0,0,0,0,0,0,.08-.06,0,0,0,0,0,0,0-.05,0,0,.08-.06,0,0,.06-.06,0,0,.08-.07,0,0,.07-.05,0,0,.08-.06v0l.09-.07,0,0,.06-.05,0,0,.09-.07v0l.07-.06,0,0,.07-.06h0l.08-.08,0,0,.06,0,0,0,.08-.07,0,0,0,0,0,0,0,0,.09-.08,0,0,0,0,0,0,.06-.05h0l.11-.11h0l.06,0,0,0,.19-.18h0c.87-.79,1.72-1.59,2.56-2.38l-.68-.73Zm16.26-17.46c-2.43,3-5.06,6-7.83,9l.73.69q4.18-4.49,7.88-9l-.78-.63Zm13.36-19.69c-1.86,3.38-4,6.79-6.24,10.14l.83.56.17-.25h0l0-.08v0l0-.06,0,0,0,0,0,0,0,0a2.75,2.75,0,0,0,.19-.28h0l.05-.08h0q2.41-3.62,4.51-7.26h0l0-.06,0,0,0,0,0,0,0-.06,0,0,0-.05,0-.06,0-.05,0-.06,0,0,0-.06,0,0,0-.07v0l0-.07v0c.23-.41.46-.81.68-1.22l-.87-.48Zm9-21.93a96,96,0,0,1-3.85,11.22l.93.38c.81-2,1.56-4,2.23-5.94v0l0-.08h0l0-.08v0l0-.07v0l0-.06v0l0-.07v0l0-.07v0l0-.06v0l0-.07,0-.08v0l0-.07v0l0-.07v0l0-.06v0l0-.06v0l0-.07h0l0-.08h0l0-.08h0c.42-1.3.81-2.6,1.16-3.91l-1-.26Zm4.07-23.46h-1V540a83.78,83.78,0,0,1-.72,11l1,.13c.11-.82.21-1.65.29-2.48v-.53h0V548h0v-.38h0v-.09h0l0-.39h0c.11-1.25.18-2.49.23-3.74h0v-.09h0v-.09h0c0-.16,0-.32,0-.48h0v-.09h0v-.09h0v-.09h0c0-.13,0-.25,0-.38v-.39h0v-.2h0v-.68h0V540h0v-.22h0v-.67Zm-3.59-23.66-1,.29a87.88,87.88,0,0,1,2.58,11.57l1-.15c-.19-1.23-.4-2.45-.64-3.67h0l0-.08h0l0-.08v-.39l0-.07v0l0-.06v0l0-.07v0l0-.07v0l0-.09v-.19l0-.07v0l0-.06v0l0-.07v0l0-.06v0l0-.07v0l0-.07v0l0-.07v0l0-.07v-.1h0v-.09h0l0-.08h0c-.07-.33-.14-.65-.22-1h0l0-.1h0l0-.09h0c-.12-.51-.25-1-.38-1.54h0l0-.1h0c0-.09,0-.19-.08-.28h0c-.08-.32-.17-.64-.26-1h0l0-.08v0l0-.07v0l0-.07v0l0-.07v0l0-.07v0l0-.06v0l0-.07v0l0-.06v-.13l0-.06v0l0-.07v0l0-.07v0l0-.08v0l0,0v-.1l0-.05v0l0,0v-.13Zm-9.47-22-.86.49a111.85,111.85,0,0,1,5.31,10.62l.92-.39c-.42-1-.87-2-1.33-2.94h0l0-.07v0l0-.06,0,0,0-.06,0,0,0-.05,0-.05,0,0,0-.05,0,0,0-.09v0l0-.07v0l0-.06v0l0-.06v0l0-.07v0l0-.07v0c-.07-.15-.15-.31-.23-.46h0l0-.09h0c-1-2.06-2.09-4.1-3.26-6.14Zm-13.71-19.67-.77.64c2.59,3.13,5,6.32,7.24,9.48l.82-.58c-2.25-3.2-4.68-6.39-7.29-9.54Zm-16.52-17.39-.68.74c3,2.76,5.84,5.59,8.51,8.39l.72-.69q-3.24-3.41-6.77-6.76h0l-.18-.18h0l-.08-.08,0,0-.07-.06v0l-.08-.07,0,0,0,0,0,0,0,0-.05,0h0l-.12-.12,0,0,0-.05h0l-.91-.85ZM1618.33,441l-.6.8c3.23,2.46,6.37,5,9.36,7.48l.64-.77,0,0-.08-.07-.06-.05-.06,0-.13-.11,0,0-.09-.06,0,0-.4-.33h0c-2.13-1.77-4.34-3.55-6.59-5.3l0,0-.1-.07,0,0-.12-.09-.08-.06-.06-.05-.08-.06,0,0-.13-.1,0,0-.12-.09,0,0-1.05-.81Zm-19.6-13.78-.55.84c3.39,2.2,6.73,4.45,9.92,6.69l.57-.82c-2.64-1.85-5.35-3.7-8.13-5.52h0l-.12-.07h0l-.12-.08h0l-.21-.14,0,0L1600,428l-.07-.05-.06,0-.1-.07,0,0-.31-.2h0l-.63-.41Zm-20.54-12.45-.5.87c3.52,2,7,4,10.34,6.05l.52-.85-1.26-.76h0l-.14-.09h0l-.31-.19,0,0-.1-.06-.07,0-.07-.05-.08,0-.06,0-.09-.05,0,0-.35-.21h0l-.1-.06,0,0-.11-.06,0,0-.64-.38h0l-.12-.07h0l-.12-.07h0l-.52-.31h0l-.12-.07h0l-.12-.07,0,0-.5-.29,0,0-.09-.06,0,0-.09-.05-.07,0-.08-.05-.06,0-.13-.08-.1-.06-.05,0-.11-.06,0,0-.1-.05-.06,0-.09-.05-.06,0-.12-.07h0l-.15-.09h0l-.15-.09h0l-.14-.08h0l-.14-.08h0l-.65-.37s0,0,0,0l-.16-.09h0l-1-.57h0l-.65-.37h0l-.15-.08h0l-.16-.09h0l-.32-.18ZM1557,403.47l-.45.89c3.6,1.81,7.18,3.66,10.63,5.5l.47-.88-.65-.35h0l-.14-.07,0,0-.11-.06,0,0-.09,0-.08,0,0,0c-1.58-.83-3.2-1.68-4.82-2.51l0,0-.11-.05,0,0-.1-.05-.06,0-.1-.05-.06,0-.09-.05-.1-.05,0,0-.5-.25h0l-3.37-1.71Zm-21.68-10.3-.41.91c3.67,1.66,7.33,3.35,10.87,5l.43-.9-2.51-1.19h0l-.15-.07,0,0-.12-.06-.05,0-.1-.05-.08,0-.07,0-.1-.05h0l-.13-.07h0l-4.79-2.21h0l-.13-.06-.06,0-.1-.05-.08,0-.08,0-.12-.06,0,0-2.06-.93Zm-22.07-9.44-.38.93c3.73,1.52,7.45,3.07,11.06,4.61l.4-.92q-5.46-2.33-11.08-4.62Zm-22.38-8.67-.34.93c3.76,1.4,7.54,2.82,11.21,4.25l.36-.93-4.41-1.7c-2.26-.86-4.52-1.71-6.82-2.55Zm-22.62-8-.32.94c3.8,1.29,7.61,2.6,11.33,3.92l.33-.94q-5.61-2-11.34-3.92Zm-22.84-7.39-.29.95c3.83,1.19,7.67,2.41,11.43,3.62l.31-.95q-5.67-1.83-11.45-3.62Zm-23-6.83-.27,1c3.85,1.09,7.73,2.22,11.51,3.34l.29-.95-2.18-.65h-.06l-.12,0-.1,0-.08,0-.12,0-.07,0-.11,0-.09,0-.11,0h0l-.46-.13-.07,0-.11,0-.07,0-.12,0-.08,0-.11,0-.08,0-.1,0-.13,0h0c-2.35-.69-4.7-1.37-7.08-2Zm-23.17-6.32-.26,1c3.88,1,7.78,2.06,11.6,3.1l.26-1c-2.6-.7-5.21-1.41-7.83-2.1h0l-.16-.05h0l-.14,0h-.07l-.14,0-.06,0-.18-.05-.16,0h0l-.17,0h0l-2.36-.62h0l-.13,0ZM1376,340.68l-.23,1c3.88.93,7.8,1.89,11.63,2.85l.24-1-3.22-.8-.09,0-.2-.05-.3-.08h0l-7.81-1.91Zm-23.39-5.39-.21,1c3.9.86,7.84,1.75,11.7,2.64l.22-1-3.62-.83,0,0-.29-.06-.1,0L1360,337l-.16,0-.1,0-.34-.07h0l-6.78-1.52Zm-23.5-5-.19,1c3.92.79,7.87,1.61,11.75,2.43l.2-1q-5.83-1.23-11.76-2.43Zm-23.54-4.57-.18,1c3.93.73,7.89,1.48,11.78,2.24l.19-1-9.29-1.77-.22,0h-.07l-2.21-.41Zm-23.64-4.21-.17,1c3.94.67,7.92,1.36,11.83,2.05l.18-1-1.32-.23h-.06l-.18,0q-5.12-.91-10.28-1.79Zm-23.68-3.83-.15,1c3.94.61,7.92,1.24,11.83,1.87l.16-1-3.81-.61h0l-.34,0-.16,0-.14,0-.26,0h0l-.34-.05h0l-3.66-.58h0l-.31-.05h-.05l-.3-.05-.18,0h-.07l-2-.32Zm-23.75-3.5-.14,1c4,.55,8,1.12,11.88,1.7l.15-1-5.31-.77H1241l-.24,0-.25,0h-.09l-5.91-.84Zm-23.79-3.15-.12,1c4,.5,8,1,11.88,1.54l.14-1-2.94-.38h-.08l-.25,0h-.11l-.28,0-.18,0-.12,0-.2,0h0l-.46-.06h0l-1.77-.23h-.05l-.74-.09h0l-4.65-.59Zm-23.84-2.84-.11,1c4,.45,8,.91,11.92,1.38l.12-1q-5.94-.71-11.93-1.38ZM1163,305.69l-.1,1c4,.39,8,.8,11.92,1.22l.11-1-5.57-.58h-.06l-.24,0-.16,0h-.11l-.4,0h-.05l-.25,0h0l-2.37-.25h0l-.2,0h-.16l-.14,0-2.2-.22Zm-23.91-2.22-.09,1c4,.34,8,.7,12,1.07l.09-1-7.82-.71h-.07l-.23,0-.19,0h0l-3.59-.32Zm-23.92-1.92-.07,1c4,.3,8,.61,12,.93l.08-1-1.71-.13h-.23c-3.33-.27-6.67-.52-10-.77Zm-23.94-1.64-.06,1c4,.25,8,.51,12,.78l.07-1-6.22-.41h0l-.23,0h-.1l-.67,0h-.62l-.35,0h0l-3.73-.24Zm-24-1.35-.06,1c4,.2,8,.42,12,.64l.06-1-3.9-.21h-.29l-.27,0h-.1l-.3,0h0l-7.12-.37Zm-24-1.07,0,1c4,.15,8,.32,12,.5l0-1-2.72-.12h-.29l-7.1-.3h-.29l-1.59-.06Zm-24-.8,0,1c4,.11,8,.24,12,.37l0-1-1.52-.05-10.47-.32Zm-24-.52,0,1c4,.07,8,.14,12,.23l0-1-3-.06h-4.19l-4.86-.09Zm-24-.25v1c4,0,8,.05,12,.09v-1L977,296h-1.39l-3.64,0h-.62Z"/><path class="cls-1" d="M960.5,368.84h-12v1c4,0,8,0,12,0v-1Zm-24,.19c-3.39.05-6.76.11-10.13.19H924.5l0,1c4-.09,8-.17,12-.23v-1Zm-24,.57q-6,.19-12,.43l0,1c4-.16,8-.3,12-.43l0-1Zm-24,1q-6,.3-12,.64l.06,1c4-.22,8-.43,12-.63l-.05-1Zm-24,1.37-2.82.18h-.29l-.21,0h-.09l-.33,0h0c-2.75.18-5.49.38-8.22.58l.08,1c4-.3,8-.58,12-.84l-.06-1Zm-23.94,1.77-2.62.22h0l-.36,0h0l-.36,0h0l-.32,0h-.06l-.31,0h-.06l-.32,0h0l-.34,0h0l-.36,0h0q-3.36.28-6.7.6l.09,1c4-.36,8-.71,11.94-1l-.08-1Zm-23.9,2.19-3.83.39h0l-.17,0h-2.45l-.15,0h0l-5.3.57.11,1c3.94-.44,8-.86,11.92-1.26l-.1-1Zm-23.86,2.62-.34,0h-.08q-5.78.69-11.48,1.43l.13,1c3.93-.5,7.93-1,11.89-1.48l-.12-1Zm-23.79,3.08-4.58.64h0l-.15,0h0l-.13,0h-.07l-.11,0h-.25l-.11,0h-.17l-.09,0h-.18l-.09,0h-.18l-.14,0h0l-.17,0h0l-.17,0h0l-.55.08h-.05l-.13,0h-.25l-.12,0h-.17l-.11,0h-.06l-.14,0h0l-.15,0h0l-3.4.5.15,1c3.91-.58,7.91-1.16,11.86-1.71l-.13-1Zm-23.73,3.55-2,.33h-.17l-.11,0h0l-.14,0h0l-4.81.79h0l-.16,0h0l-.14,0h-.07l-.1,0h-.09l-.08,0-.11,0h-.07l-3.66.62.17,1c3.9-.67,7.88-1.33,11.82-2l-.15-1Zm-23.66,4.05-1,.18h-.06l-.11,0q-5.37,1-10.66,2l.19,1c3.88-.76,7.85-1.51,11.79-2.23l-.18-1Zm-23.57,4.59q-5.93,1.23-11.74,2.5l.22,1c3.86-.85,7.8-1.69,11.72-2.5l-.2-1Zm-23.43,5.16c-2.58.6-5.13,1.21-7.67,1.82h0l-.14,0,0,0-.12,0-.06,0-.12,0-.33.08h0l-.12,0h0l-.14,0h0l-2.81.69.24,1c3.82-.94,7.74-1.89,11.64-2.8l-.22-1Zm-23.29,5.78q-3.3.87-6.55,1.75h0l-.15,0h0l-.15,0h0l-.33.09h-.07l-.1,0-.07,0-.09,0-.08,0-.08,0-.36.1h0l-.11,0h0l-.12,0h0l-3.15.87.27,1c3.79-1.06,7.69-2.12,11.57-3.15l-.25-1Zm-23.12,6.47-2.71.81h0l-.16.05h0l-.16,0-.07,0-.08,0-.1,0-.05,0-.53.15h0l-2.67.81h0l-.39.12h0l-.1,0-.06,0-.09,0-.09,0-.06,0-.16.05h0l-.14,0h0l-.14,0h0l-3.54,1.11.3.95c3.74-1.18,7.59-2.36,11.44-3.5l-.28-1Zm-22.89,7.23q-4.93,1.66-9.76,3.37s0,0,0,0l-.17.05h0l-.15.05-.07,0-.07,0-.1,0h0l-1,.36.34.94c3.69-1.33,7.5-2.65,11.31-3.93l-.32-.95Zm-22.57,8.1-2.91,1.12h0l-.31.12-.09,0-.06,0-.15.06h0l-.17.06h0c-2.51,1-5,2-7.44,3l.38.92c3.62-1.49,7.37-3,11.14-4.42l-.35-.93Zm-22.2,9.11q-5.45,2.4-10.65,4.86h0l-.22.1h0l-.05,0,.43.9c3.53-1.67,7.2-3.35,10.9-5l-.4-.92Zm-21.68,10.31q-2.94,1.51-5.79,3.05l0,0-.07,0,0,0,0,0,0,0,0,0q-2.29,1.23-4.52,2.49l.49.87c3.39-1.9,6.93-3.81,10.54-5.67l-.46-.89ZM518,457.72l-1.62,1h0l-.07,0h0l-.07.05h0l-.07.05h0l-.07.05h0L516,459l-.05,0,0,0-.05,0,0,0-.06,0h0l-.06,0,0,0-.07,0h0l-.08.05h0q-3.86,2.46-7.48,4.94l.56.82c3.19-2.18,6.56-4.37,10-6.51l-.53-.85Zm-19.75,13.6h0l-.06.05h0l-.07.05h0l-.07.05h0l-.07.06h0q-4,3.1-7.63,6.27h0l-.06.05v0l-.05,0,0,0,0,0,0,0,0,0-.05,0,0,0-.05,0h0l-.07,0h0L489,479l.66.74c2.87-2.54,6-5.1,9.19-7.6l-.61-.79Zm-17.89,16q-3.14,3.3-5.89,6.65h0l-.05.07h0l-.06.07h0l-.17.21,0,0,0,.05,0,0,0,0,0,0,0,0,0,0,0,0,0,0,0,0,0,.05h0c-.46.56-.91,1.13-1.34,1.69l.79.61a116.5,116.5,0,0,1,7.77-9l-.73-.69Zm-14.58,19c-.7,1.2-1.37,2.39-2,3.59h0l0,.08h0l-.09.16h0l0,.07v0l0,.07h0l0,.08h0l0,.07v0l0,.07h0l-.08.16h0l0,.07v0l0,.06v0l-.08.15v0l0,.06v0l0,.07h0l0,.08h0l0,.07v0l0,.06v0l-.08.15v0l0,.06v0l0,.07h0l-.07.16h0l0,.07h0l0,.08h0l-.08.17h0l0,.07h0l-.12.25h0c-.05.11-.11.22-.16.34h0c-.63,1.35-1.21,2.7-1.75,4.06l.93.37a76.72,76.72,0,0,1,5.22-10.63l-.86-.51Zm-8.68,22.26q-.54,2.85-.83,5.71h0c0,.18,0,.36,0,.54h0v.08h0V535h0v.12h0v.13h0v.12h0v.08h0v0h0v.07h0v1.81h0v.19h0v.27h0v.27h0v.13h0v0h0v.13h0v.06h0v.06h0v.06h0v.06h0v.06h0V539h0v.14h0v.13h0v0h0v.13h0v.06h0v.06h0v.06h0v.06h0v.06h0v.06h0V540h0v.17h0v.28h1V540a58.91,58.91,0,0,1,1.1-11.28l-1-.19Zm1.17,23.63-1,.21c.06.3.13.6.19.9h0l0,.13v.05l0,0v.28h0c.47,2,1.05,4,1.72,6h0l0,.13h0l.05.12h0l0,.12v0l0,.06h0l0,0v0l0,0v.13l0,0v.08l0,.06v0l0,0h0l0,.08h0l0,0h0l0,.09h0c.34.95.7,1.9,1.09,2.84l.93-.38a64.68,64.68,0,0,1-3.49-11.27ZM467.11,574l-.85.52q1.5,2.49,3.21,5h0q1.71,2.46,3.63,4.89l.78-.62a96.1,96.1,0,0,1-6.77-9.74Zm14.62,18.69-.72.69c2.7,2.8,5.6,5.55,8.7,8.28l.66-.76c-3.08-2.7-6-5.46-8.64-8.21Zm17.87,15.77-.61.8c1.84,1.4,3.72,2.8,5.67,4.18h0l.07.05h0l.06,0,0,0,.05,0h0l.05,0,0,0,0,0,0,0,.05,0,0,0,.05,0,0,0,0,0,.05,0,0,0,.05,0,0,0,.08,0h0a2.2,2.2,0,0,0,.25.17v0l.07,0h0l.07.05h0l.08,0h0l.08.06h0c.87.61,1.75,1.22,2.64,1.82l.56-.82c-3.37-2.3-6.62-4.65-9.68-7Zm19.72,13.46-.53.85c2.44,1.5,4.93,3,7.5,4.44h0l.09,0h0l.29.16,0,0,.07,0h0l.06,0,0,0,.05,0,0,0,0,0,.1.06,0,0,.06,0,0,0,.07,0h0c.6.35,1.21.69,1.82,1l.49-.87c-3.55-2-7-4-10.32-6Zm20.89,11.68-.46.89q3.66,1.88,7.46,3.71h0l.09,0h0l.1,0h0l.08,0,0,0,0,0,0,0,0,0,2.8,1.33.42-.9c-3.65-1.73-7.26-3.5-10.72-5.27Zm21.63,10.23-.4.91c3.6,1.58,7.29,3.14,11,4.67l.38-.92c-3.73-1.53-7.44-3.1-11-4.66Zm22.18,9-.36.94q5.18,2,10.53,3.88h0l.17.06h0l.17.06h0l.12,0,.06,0,.09,0,.06,0,.33-.94c-3.79-1.35-7.56-2.74-11.22-4.14Zm22.55,8-.31,1,.93.31.1,0h.05l.15,0h0c2.23.74,4.49,1.48,6.76,2.21h0l.17,0h0l.34.11h0l.12,0,.06,0,.11,0,0,0,.15.05.08,0,.08,0,.09,0,.07,0,.08,0,.08,0,.17,0,0,0,.1,0,0,0,.11,0h0l.25.08h0l.12,0h0l.11,0,0,0,.34.11.06,0,.09,0,.07,0,.09,0h0l.12,0,.3-1c-3.84-1.21-7.68-2.45-11.41-3.7Zm22.86,7.19-.29,1,.06,0h0l.16,0,.11,0h0l.15,0h0c2.37.7,4.77,1.39,7.18,2.08h0l.14,0,.05,0,.11,0,.06,0,.1,0,.21.06h0l3.13.88.27-1c-3.87-1.08-7.75-2.19-11.52-3.31Zm23.1,6.44-.25,1,3.33.86h0l.11,0h.06l.1,0,.13,0h0l.36.09h0l.17,0h0q3.61.93,7.29,1.84l.24-1c-3.89-1-7.8-2-11.61-3Zm23.26,5.75-.23,1q5.79,1.35,11.71,2.64l.21-1c-3.91-.86-7.85-1.75-11.69-2.64Zm23.42,5.13-.2,1,5.4,1.1h.05l.11,0h.07l.09,0,.1,0h.07l.12,0h.05l.16,0h0l5.54,1.09.19-1c-3.93-.76-7.89-1.55-11.76-2.35ZM722.76,690l-.18,1,2.66.48h0l.15,0h0l.14,0h0l.16,0h0l.13,0h0l.13,0,.06,0,.21,0,.08,0h.08l.09,0h.08l.11,0h.08l.08,0,.1,0h.08l.09,0h.09l.09,0h.09l.09,0h.06l.13,0h0c2.2.39,4.39.77,6.61,1.14l.17-1c-4-.67-7.92-1.37-11.81-2.08Zm23.63,4-.15,1h.09l.11,0h0l2.23.36h0l1.35.21h.05l.11,0h.06l.11,0h.17l.08,0h.09l.1,0H751l.07,0h.18l.12,0h.06l.14,0h0l.15,0h0l.17,0h0l.17,0h0l1.1.17h0l.14,0h.17l.1,0h.08l.11,0H754l.14,0h0l.16,0h0l3.81.57.15-1c-4-.58-7.94-1.2-11.85-1.82Zm23.72,3.53-.14,1,2,.27h0l.15,0h.32l.14,0h0l4.44.6h0l.16,0h0l.13,0h.36l.1,0H778l.15,0h0l.16,0h0l3.47.45.13-1c-4-.51-8-1-11.88-1.58Zm23.78,3.05-.12,1,2.23.26h0l.17,0h.34l9.19,1,.1-1c-4-.43-8-.89-11.91-1.36Zm23.84,2.61-.1,1,2.22.22h0l.33,0h.08l.26,0,.14,0,.22,0h.18l5.59.54.23,0H827l.28,0h.06l2.22.2.09-1c-4-.36-8-.75-11.94-1.14Zm23.88,2.17-.08,1,1.49.12h0l.37,0h0l.36,0h0l.35,0h0l.36,0h0l.37,0h0l3.35.26h0l.35,0h0l.32,0H849l.3,0h.09l.27,0h.12l.23,0,.26,0h.1l3.11.23.07-1c-4-.29-8-.6-12-.93Zm23.92,1.75-.06,1,2.22.14h0l.29,0h.12l.22,0h.35l.32,0h0l8.38.5,0-1c-4-.23-8-.47-12-.73Zm24,1.35-.05,1,5,.23h0l6.95.29,0-1c-4-.15-8-.33-12-.52Zm24,.95,0,1,1.67.05h.42c3.29.1,6.6.19,9.91.27l0-1c-4-.1-8-.21-12-.33Zm24,.56,0,1,6,.08h2.49c1.18,0,2.37,0,3.55,0v-1c-4,0-8-.07-12-.13Zm36,.12c-4,0-8,0-12,0v1h2.26c2.37,0,4.75,0,7.11,0h2.63v-1Zm24-.4c-4,.1-8,.18-12,.25l0,1,6-.11h1.7l4.16-.09h.15l0-1Zm24-.78c-4,.16-8,.31-12,.44l0,1,1.23,0h.66c3.38-.12,6.75-.24,10.11-.38l0-1Zm23.95-1.18c-4,.23-8,.45-12,.64l.05,1q6-.3,12-.64l-.06-1Zm23.93-1.58c-4,.3-8,.58-12,.85l.07,1c3.12-.2,6.24-.42,9.35-.64h0l.3,0h.33l2-.15-.08-1Zm23.9-2c-4,.37-8,.72-11.94,1.05l.08,1q6-.51,12-1.05l-.1-1Zm23.86-2.42c-3.94.44-8,.86-11.92,1.27l.1,1c4-.4,8-.83,11.93-1.26l-.11-1Zm23.81-2.86c-3.93.51-7.93,1-11.9,1.49l.12,1,3.09-.37h.14l.11,0h0c2.66-.33,5.32-.66,8-1h0l.14,0h.3l.11,0-.13-1Zm23.74-3.33c-3.91.59-7.9,1.17-11.86,1.73l.14,1,7.39-1.06h0l.13,0h.15l.12,0h0l4-.6-.15-1Zm23.68-3.81c-3.9.67-7.88,1.33-11.83,2l.16,1,2.76-.45h.13l.11,0h0c3-.49,5.9-1,8.84-1.49l-.17-1Zm23.59-4.33c-3.88.76-7.84,1.51-11.78,2.23l.18,1c3.83-.7,7.61-1.42,11.38-2.15h0l.14,0h0l.12,0h.11l-.19-1Zm23.47-4.89c-3.85.86-7.8,1.7-11.72,2.52l.21,1q4.65-1,9.26-2h0l.12,0,.07,0h.08l2.17-.48-.22-1Zm23.33-5.47c-3.83.95-7.74,1.9-11.65,2.81l.23,1h0l.12,0h.05l.35-.08h0l.16,0h0l.15,0h0l.16,0h0l.73-.17h0l4-1h0l.17,0h0l.17,0h0l.72-.18h0l4.7-1.15-.24-1Zm23.19-6.14c-3.8,1.06-7.69,2.12-11.57,3.15l.25,1,4.2-1.12s0,0,0,0l.17,0h0l4-1.08h0l.53-.15h0l.11,0,.07,0,.09,0,.09,0h0l2.26-.63-.27-1Zm23-6.86c-3.75,1.19-7.6,2.38-11.45,3.52l.29,1,.45-.13h0l.1,0,.09,0,.06,0q5.45-1.62,10.73-3.31l-.3-.95Zm22.7-7.68c-3.69,1.33-7.49,2.66-11.3,4l.32.95.71-.25h0l.17-.06h0l.13-.05.07,0,.09,0,.08,0h0l.21-.08h0l.13,0h0q4.88-1.66,9.63-3.38l-.34-.94Zm22.36-8.61c-3.62,1.49-7.37,3-11.14,4.44l.36.93.44-.17h0l1.23-.48h0l.33-.13h0l.1,0,.06,0,.14-.06.08,0,.08,0,.08,0,.06,0,.14-.05.06,0,.11,0h0l.15-.07h0l.15-.06h0l.34-.13h0c2.51-1,5-2,7.44-3l-.38-.93Zm21.89-9.7c-3.53,1.68-7.19,3.36-10.89,5l.4.92,4.45-2h0l.33-.16h0l.1,0h0l.21-.1h0l.09,0h0l.09,0h0l.11,0h0l.1,0h0l.21-.1h0l.09,0h0l.11-.05h0l.11,0h0l.1,0h0l4.66-2.19-.43-.9Zm21.22-11c-3.38,1.91-6.91,3.82-10.51,5.69l.46.89,2.42-1.27h0l.19-.1h0l.07,0h0l.08,0,0,0,.08,0h0l.09-.05,0,0,0,0,0,0,0,0,.05,0,0,0,0,0,0,0,.1-.05,0,0,0,0,0,0,0,0,0,0,.06,0h0l.13-.07h0l.05,0,0,0,0,0,0,0,0,0,0,0,.22-.11h0l.07,0,0,0,.06,0,0,0,.07,0,0,0,.11-.06h0l0,0,0,0,.05,0,0,0,.06,0,0,0,0,0,.09,0h0l.07,0,0,0,0,0,.05,0,0,0,0,0,.09,0h0l.09,0,0,0,0,0,0,0,.06,0,0,0,.08,0h0l.09,0h0l.08,0h0l.08,0h0l.09,0h0l.19-.1h0l.09-.05h0l.08,0h0l.19-.1h0l.08-.05h0l.07,0h0l.09,0h0l.09-.05h0l.09,0h0l.07,0h0l.07,0h0l.09-.05h0l.1-.06h0l.09-.05h0l.06,0,0,0,.05,0,0,0,.06,0,.08,0h0l.06,0h0l0,0,0,0,1.91-1.07-.49-.87Zm20.29-12.66c-3.17,2.2-6.54,4.4-10,6.55l.53.85,2.77-1.75h0l.09-.06h0l.08,0h0l.07,0h0l.07,0h0l.09-.06h0l.06,0,0,0,.05,0,0,0,0,0,0,0,0,0,0,0h0l.06,0,0,0,.06,0,0,0,.06,0h0l.3-.2h0l.07,0h0l.07,0h0l.08,0h0l1.33-.87h0l.61-.4,0,0,.06,0,0,0,0,0,0,0,0,0,0,0,0,0,0,0,0,0,.06,0,0,0,.26-.17h0c1-.67,2-1.34,3-2l-.57-.82ZM1432,599.68c-2.85,2.56-5.93,5.13-9.15,7.65l.62.79,1.33-1q2.09-1.67,4.06-3.34h0l.06-.05h0l.06,0v0l.06,0,0,0,0,0,0,0,0,0,0,0,0,0,0,0,0,0,.05,0,0,0,.06,0h0l.06-.05h0l.07-.06h0c1-.89,2-1.78,3-2.67l-.67-.74Zm16.22-17.38a113.87,113.87,0,0,1-7.69,9.06l.73.68q3-3.21,5.66-6.47h0l0-.07h0l0-.06h0l0-.06h0l.05-.06h0l0-.07h0l0-.07h0l0-.06v0l0,0,0,0,0-.05,0,0,0,0,0,0,0,0,0,0,0,0,0,0,0,0,.06-.08,0,0,0,0,0,0,0,0,0,0,0,0,0,0,0,0,0,0,0,0,0,0,0,0v0l.24-.3h0l0-.05h0l.05-.06h0l0-.06h0l.59-.76-.8-.61Zm11.67-20.54a74.92,74.92,0,0,1-5.08,10.67l.86.5,0-.08h0l0-.08h0l.14-.25h0l0-.08h0l.09-.17h0l0-.08h0l0-.07h0l.09-.16h0l0-.07v0l0-.07h0l.05-.09h0l0-.07v0l0-.07h0l.08-.16h0l0-.07,0,0,0-.06v0l0-.07h0l0-.07v0l0-.06,0,0,0-.07h0l0-.08v0l0-.05v0l0,0,0,0,0-.06v0l0-.07v0l0,0v0l0,0v0l0-.07,0,0,0,0,0,0,0,0,0,0,0,0,0-.08v0l0-.05,0,0,0,0,0,0,0-.05h0l.06-.11h0l0-.06v0l0,0v0l.1-.18h0l0-.06h0l.12-.26h0q1.67-3.35,3-6.74l-.94-.35Zm5.09-23.14-1,0c0,.45,0,.9,0,1.35a58.68,58.68,0,0,1-.93,10.39l1,.18c.11-.57.2-1.15.29-1.72h0v-.07h0a2,2,0,0,1,0-.24h0v-.23h0v-.08h0v-1.1a.88.88,0,0,1,0-.17v-.24l0-.18h0v-.21h0l0-.19h0v-.21h0c0-.07,0-.13,0-.2h0v-.2h0c0-.07,0-.13,0-.2h0v-.06h0v-.06h0V545h0c0-.07,0-.12,0-.19h0v-.21h0c0-.06,0-.13,0-.19v-.22h0a1.09,1.09,0,0,0,0-.18v-.22h0v-.54h0v-.41h0v-2h0v-.41h0v-.47h0v-.31h0c0-.33,0-.66,0-1Zm-5.18-23.28-.92.39a65.31,65.31,0,0,1,3.65,11.23l1-.22c-.18-.78-.37-1.57-.58-2.35h0l0-.13h0v-.06h0l0-.06v0l0-.05h0l0-.06h0l0-.05v-.14h0v-.24l0-.06v-.07l0-.07h0v0h0l0-.08h0v-.05h0a69.47,69.47,0,0,0-2.79-7.81Zm-12.47-20.41-.78.63a96.78,96.78,0,0,1,6.87,9.68l.85-.53c-.45-.72-.91-1.44-1.38-2.15h0l-.05-.07h0l0-.06h0l-.15-.23h0l0-.07h0l0-.06v0l0-.06h0a1.3,1.3,0,0,0-.1-.15v0l0,0v0l0-.05,0,0,0-.05,0,0,0-.06h0l-.05-.07v0l0-.05,0,0,0,0,0,0,0,0,0,0,0,0,0,0,0,0-.06-.1,0,0,0,0v0l0-.05,0,0,0,0,0,0,0-.05h0l-.12-.18h0l0-.05v0l0-.05h0l0-.06h0l-.17-.26h0l0-.06h0c-1.19-1.7-2.47-3.38-3.81-5.06Zm-16.73-17.18-.65.76c3.08,2.68,6,5.42,8.68,8.15l.71-.7-1-1h0l-.52-.52h0l-.06,0h0l0-.06h0l-.05,0h0l0,0,0,0,0-.05h0l0-.05,0,0-.05-.05h0l0-.05,0,0,0,0v0l0-.05h0l-.05-.06h0l-.06-.06s0,0,0,0q-3.06-3-6.41-5.88Zm-19.08-14.53-.56.83c3.38,2.28,6.65,4.62,9.72,6.95l.6-.8-1.64-1.23h0l-.08-.06h0l-.07-.05,0,0,0,0,0,0-.05,0,0,0,0,0,0,0,0,0,0,0h0q-2.37-1.75-4.86-3.49h0l-.06-.05h0l-.06,0h0l-.06,0,0,0-.06,0,0,0-.06,0h0l-.06,0,0,0-.06,0h0l-.06,0,0,0-.16-.11-.06,0,0,0-.05,0,0,0,0,0,0,0,0,0,0,0,0,0,0,0,0,0,0,0,0,0,0,0,0,0,0,0,0,0,0,0,0,0,0,0-.05,0,0,0,0,0,0,0,0,0,0,0-.07,0,0,0-.06,0,0,0,0,0,0,0,0,0,0,0,0,0,0,0,0,0,0,0,0,0,0,0,0,0,0,0,0,0,0,0,0,0,0,0Zm-20.47-12.48-.49.87c3.55,2,7,4,10.34,6l.52-.85c-1.25-.76-2.51-1.52-3.8-2.27h0l-.07,0h0l-.07,0h0l-.06,0h0l-.07,0h0l-.1-.06-.05,0,0,0,0,0,0,0,0,0,0,0-.06,0,0,0-.08,0h0l-.09,0,0,0-.06,0,0,0-.07,0h0l-.08-.05h0l-.28-.17h0l-.09-.05h0l-.09,0h0l-.29-.17h0l-.09-.05h0l-.08,0h0l-.09-.05h0l-.19-.11h0L1395,453h0l-.08,0h0l-.08,0h0l-.08-.05h0l-.19-.1h0l-.07-.05h0l-.07,0,0,0-.06,0,0,0-.07,0h0l-.08,0,0,0,0,0,0,0,0,0,0,0,0,0-.06,0,0,0-.3-.17h0l-2.32-1.3Zm-21.39-10.89-.42.9c3.66,1.72,7.28,3.49,10.74,5.25l.46-.89c-1.64-.84-3.3-1.66-5-2.49h0l-.33-.16h0l-.08,0h0l-.32-.15h0l-.07,0h0l-.33-.16h0l-.33-.15h0l-.09,0h0q-2.07-1-4.19-2Zm-22-9.6-.37.93c3.74,1.52,7.45,3.08,11,4.64l.4-.92-1.79-.77h0l-.1-.05h0l-.16-.07-.08,0-.06,0-.12-.05h0l-.15-.06,0,0-.13-.06h0l-.16-.08h0c-2.68-1.14-5.4-2.28-8.17-3.4Zm-22.43-8.51-.33.94c3.79,1.35,7.57,2.74,11.23,4.13l.36-.94c-3.68-1.39-7.45-2.77-11.26-4.13Zm-22.77-7.59-.3,1c3.83,1.2,7.67,2.44,11.39,3.68l.32-1-.08,0-.07,0-.07,0-.11,0h0q-5.45-1.82-11-3.57Zm-23-6.78-.26,1c3.87,1.08,7.75,2.19,11.53,3.3l.28-1q-5.7-1.68-11.55-3.3Zm-23.22-6.06-.24,1c3.9,1,7.8,1.94,11.61,2.94l.25-1-2.6-.67h0l-.13,0-.07,0-.08,0q-4.34-1.11-8.73-2.19Zm-23.37-5.42-.22,1c3.92.85,7.85,1.74,11.7,2.63l.23-1q-5.8-1.33-11.71-2.63Zm-23.52-4.82-.19,1c3.93.76,7.89,1.54,11.76,2.34l.2-1-5.12-1h0l-.17,0h0l-.55-.11h0l-.16,0H1215l-.12,0-.06,0-.11,0h-.07l-.1,0-.09,0-.08,0-.09,0h-.08l-.1,0h0l-4.74-.92Zm-23.62-4.28-.17,1c4,.67,7.92,1.36,11.81,2.07l.17-1c-3.91-.71-7.84-1.39-11.81-2.07ZM1162,383l-.14,1c4,.59,7.94,1.2,11.85,1.82l.15-1c-3.93-.62-7.87-1.23-11.86-1.82Zm-23.77-3.27-.13,1c4,.51,8,1,11.89,1.58l.13-1c-2.55-.35-5.1-.7-7.67-1h0l-.15,0h-.06l-.11,0h-.17l-.14,0h0l-3.54-.46Zm-23.84-2.82-.1,1c4,.43,8,.88,11.91,1.35l.12-1q-5.92-.71-11.93-1.36Zm-23.88-2.37-.09,1c4,.36,8,.74,11.94,1.13l.1-1-4.46-.43h0l-.34,0h-.05l-.31,0h-.08l-.29,0h-.09l-.28,0h-.11l-.25,0-.13,0-.24,0h-.14l-.22,0-.16,0h-.17l-.21,0-.15,0-.23,0h-.13l-.25,0H1094l-.28,0h-.07l-.31,0h-.05l-.33,0h0l-.34,0h0l-2.08-.19Zm-23.92-1.94-.07,1c4,.29,8,.6,12,.92l.09-1q-6-.49-12-.92Zm-23.95-1.54-.06,1c4,.22,8,.46,12,.72l.07-1c-3.73-.24-7.47-.46-11.23-.68h-.75Zm-24-1.13,0,1c4,.15,8,.33,12,.52l0-1h0l-.28,0H1030c-3.77-.18-7.57-.34-11.37-.49Zm-24-.74,0,1c4,.09,8,.2,12,.32l0-1q-5-.15-10.12-.27h-1l-.92,0Zm-24-.35v1c4,0,8,.07,12,.13l0-1-1.25,0H978l-5.65-.06h-1.64Z"/><path class="cls-1" d="M960,430.92h-3.12c-2.08,0-4.13,0-6.2,0h-1L948,431l0,1c4-.05,8-.08,12-.08v-1Zm-24,.3q-6,.15-12,.38l0,1c4-.15,8-.28,12-.38l0-1Zm-24,.91-7,.38h-.48l-4.46.28.07,1c3.95-.25,8-.48,12-.68l-.05-1Zm-23.95,1.53q-5,.39-9.91.83h0l-.18,0h-.21l-.11,0h-.17l-1.37.12.1,1c3.94-.36,8-.7,11.95-1l-.08-1Zm-23.91,2.19-.47,0h0l-.22,0h-.18l-.1,0H863l-.15,0h0l-.15,0h0l-.17,0h0l-3.16.35h0l-.17,0h0l-.16,0h-.69l-.21,0h0l-5.81.68.12,1c3.93-.47,7.93-.92,11.91-1.34l-.11-1Zm-23.83,2.88q-6,.81-11.87,1.71l.15,1c3.9-.6,7.89-1.17,11.86-1.71l-.14-1Zm-23.72,3.61-3.34.58h0l-.17,0h0l-.16,0h0l-.15,0h0l-.15,0h0l-.14,0h0l-.13,0h0l-.14,0h0l-.15,0h0l-.11,0h0l-.14,0h-.06l-.14,0h0l-.14,0h0l-.13,0h0l-.15,0h0l-.16,0h0l-.16,0h0l-.18,0h0l-.18,0h0l-5.12.94.18,1c3.87-.72,7.84-1.43,11.8-2.1l-.17-1ZM793,446.77q-5.61,1.16-11.06,2.39h0l-.07,0h-.08l-.5.11.22,1c3.83-.87,7.77-1.73,11.7-2.54l-.2-1Zm-23.39,5.32-4.56,1.16h0l-.06,0h-.08l0,0h-.12l-.07,0h0l-.07,0h0l-.08,0h0l-.09,0h0l-3.43.91h0l-.09,0h0l-.07,0h0l-.07,0h-.08l-.05,0h-.13l-.06,0h0l-.07,0h0l-2.23.61.27,1c3.77-1,7.67-2.06,11.58-3l-.24-1Zm-23.14,6.36c-2.94.88-5.81,1.78-8.65,2.7h0l-.08,0h0l-.06,0h0l0,0-.07,0h0l-2.45.81.31.95c3.71-1.23,7.55-2.45,11.42-3.61l-.29-1ZM723.71,466l-1,.39h0l-.08,0h0l-.08,0h0l-.07,0h0l-.07,0h0l-.3.11h0l-.06,0h0l-.06,0h0l-.06,0h0l-.06,0,0,0-.06,0h0l-.06,0h0l-.06,0h0l-.07,0h0l-.31.11h0l-.08,0h0l-.08,0h0l-.08,0h0l-.08,0h0l-.07,0h0c-2.76,1-5.47,2.11-8.12,3.19l.38.92c3.59-1.46,7.34-2.92,11.16-4.32l-.35-.94Zm-22.2,9.1c-2.2,1-4.36,2-6.46,3.07h0l-.27.13h0l-.06,0h0l-.05,0h0l-.06,0h0l-.1.06h0l0,0h0l0,0,0,0,0,0,0,0,0,0-.08,0h0l0,0,0,0-.05,0h0l-.06,0h0l-.16.08h0l-.08,0h0l-.08,0h0l-2.78,1.41.46.89c3.42-1.77,7-3.53,10.75-5.23l-.42-.91Zm-21.27,11.08q-2.88,1.73-5.59,3.49h0l-.15.1h0l-.07.05h0l-.14.09h0l-.06,0h0l-.07,0h0l-.05,0h0l0,0,0,0-.06,0,0,0,0,0,0,0-.06,0,0,0,0,0,0,0,0,0-.07,0h0l0,0,0,0-.15.09h0l0,0h0l-.15.11h0l-1.9,1.29h0l-.21.15h0l-.15.11h0l0,0h0l-.09.06,0,0,0,0,0,0,0,0,0,0-.06,0,0,0,0,0,0,0,0,0,0,0,0,0-.05,0h0l.57.81c3.11-2.18,6.47-4.36,10-6.48l-.51-.86ZM660.69,500.1l-.11.1h0l0,0h0l0,0h0l0,0v0l0,0h0l0,0,0,0h0l0,0v0l0,0h0l-.1.09h0l0,0h0l0,0h0q-3.55,3.14-6.57,6.34h0l0,0h0l-.11.12h0l0,0h0l0,0h0l-.08.09h0l0,0v0h0l0,0,0,0v0l0,0,0,0v0l0,0,0,0,0,0h0v0l0,0,0,0v0l-.07.07h0l0,0h0l0,0h0l-.14.15h0l-.46.52.74.67a90.52,90.52,0,0,1,8.48-8.3l-.66-.75ZM645,518.1l-.27.46v0l0,0v.07h0l0,0h0a46.2,46.2,0,0,0-4.5,10.3l1,.28a46.25,46.25,0,0,1,4.77-10.7l-.86-.51Zm-5.47,22.75-1,0a36.08,36.08,0,0,0,.36,4.4h0v0h0v0h0v0h0v0h0v0h0v0h0l.06.41h0v0h0v0h0v.08h0v.08h0v.08h0v.08h0v.08h0v0h0v0h0v0h0v.55h0v.08h0v0h0c0,.08,0,.14,0,.22h0v0h0v0h0v0h0v0h0v0h0v0h0v0h0v0h0v0h0v0h0v0h0l.12.51h0c.31,1.36.7,2.72,1.15,4.07l1-.33a38.53,38.53,0,0,1-2.07-11.46Zm7.23,22-.84.54a66.77,66.77,0,0,0,5.92,7.79h0l0,0h0l0,0h0l0,0h0l0,0h0l0,0h0l0,0h0v0l0,0,0,0,0,0h0l0,0h0l0,0h0l0,0h0l0,0h0l0,0h0c.33.36.66.73,1,1.09l.73-.68a67.61,67.61,0,0,1-7.29-9.29Zm15.93,17.43L662,581q2.6,2.18,5.48,4.31h0l0,0h0l.1.07h0l0,0h0l.1.07h0l0,0h0l0,0h0l0,0,0,0,0,0h0l0,0,0,0h0l0,0,0,0,0,0h0l.07,0h0l0,0h0l.1.07h0l0,0h0q1.54,1.11,3.15,2.22l.57-.82c-3.41-2.35-6.61-4.76-9.5-7.17Zm19.57,13.54-.5.86,1.57.91h0l.06,0h0l.07,0h0l.07,0h0l0,0,0,0,0,0,0,0h0l.1.06h0l0,0h0c1.58.89,3.19,1.78,4.84,2.65h0l.06,0h0l.18.09,0,0,0,0,0,0,0,0,.05,0,0,0,0,0h0l0,0h0l.06,0h0l.08,0h0l.07,0h0l.08,0h0l2.56,1.33.46-.89c-3.66-1.87-7.19-3.79-10.5-5.72Zm21.27,10.87-.41.91.87.39h0l.43.19h0l.05,0h0l.06,0h0l0,0,0,0,0,0,.06,0,0,0,.07,0h0l0,0h0l0,0h0l.06,0h0l.06,0h0q4.23,1.86,8.68,3.65h0l.07,0h0l.06,0h0l0,0h0l.37-.93c-3.78-1.52-7.48-3.09-11-4.68Zm22.19,9-.34.94,2.26.81h0l.08,0h0l0,0,.06,0h0l0,0h0l.07,0h0l.08,0h0c1.36.48,2.74,1,4.13,1.43h0l.08,0h0l.06,0h0l.07,0h0l0,0,.07,0h0l.09,0h0c1.31.45,2.63.89,4,1.33l.31-1c-3.85-1.26-7.65-2.57-11.31-3.89Zm22.74,7.46-.28,1,2,.59h0l.07,0h0l.07,0h.12l0,0h.08l.06,0h0l.07,0h0q4.42,1.29,9,2.52l.26-1c-3.89-1.05-7.77-2.15-11.52-3.27Zm23.12,6.27-.24,1q2.86.7,5.78,1.39h0l.06,0h.28l0,0h.14l.07,0h0l.4.09h0l.09,0h0l.08,0h0l.09,0h0l.1,0h0l.09,0h0l.59.14h0l.08,0h0l.07,0h.23l.06,0H780l3,.68.22-1c-3.93-.88-7.86-1.8-11.67-2.74Zm23.38,5.24-.2,1q5.81,1.18,11.78,2.29l.18-1c-4-.72-7.91-1.49-11.76-2.28ZM818.5,637l-.17,1,4.69.77h0l.14,0h.15l.14,0h0l.14,0h0l.17,0h0c2.09.34,4.2.66,6.32,1l.15-1c-4-.59-8-1.22-11.84-1.87Zm23.7,3.55-.13,1q5.91.78,11.9,1.5l.12-1c-4-.47-8-1-11.89-1.5ZM866,643.34l-.1,1q5.93.61,11.94,1.15l.09-1c-4-.36-8-.75-11.93-1.15Zm23.87,2.13-.07,1c4,.3,7.94.57,12,.82l.06-1c-4-.25-8-.53-12-.83ZM913.81,647l0,1,2.23.1h.33c3.12.14,6.28.27,9.43.39l0-1c-4-.15-8-.32-12-.51Zm24,.86,0,1,5.22.11h1.4l5.37.07,0-1c-4,0-8-.11-12-.2Zm36,.16c-4,.06-8,.09-12,.1v1q6,0,12-.1v-1Zm24-.65c-4,.16-8,.3-12,.4l0,1c2.28-.06,4.58-.13,6.85-.21h1.22l3.93-.15,0-1Zm23.94-1.26c-4,.26-8,.5-12,.71l.05,1q3.76-.19,7.5-.43h0l.36,0h1.06l3.05-.2-.06-1Zm23.89-1.9c-3.94.37-8,.72-11.94,1l.08,1,2.23-.18h.48c3.09-.26,6.18-.53,9.24-.81l-.09-1Zm23.83-2.57c-3.92.48-7.93.94-11.9,1.37l.11,1h.3l.18,0h0l.34,0h0c1.26-.14,2.5-.27,3.74-.42h0l.34,0h0l.16,0h.24l.1,0h.72l.34,0h0l.18,0h0l4.44-.53h0l.34,0h0l.15,0h.2l-.12-1Zm23.75-3.29c-3.9.6-7.89,1.18-11.86,1.73l.14,1c3.43-.47,6.84-1,10.22-1.48h0l.17,0h0l.16,0h0l.14,0h0l.14,0h.14l.15,0h0l.62-.1-.15-1Zm23.61-4.07c-3.87.74-7.84,1.46-11.79,2.14l.17,1,1-.18h0l.19,0h.17l.16,0h0l.13,0h.08l.08,0,.12,0h.07l.1,0,.09,0h.16l.14,0h0l.15,0h0l.14,0h0l.17,0h0l.16,0h0l.17,0h0l.18,0h0l.19,0h0c2.65-.47,5.29-1,7.9-1.46l-.19-1Zm23.46-4.92c-3.83.89-7.77,1.75-11.7,2.58l.2,1,2.59-.54h.37c1.78-.38,3.53-.77,5.28-1.16h0l.08,0h.18l3.21-.73-.22-1Zm23.22-5.88c-3.78,1-7.67,2.08-11.58,3.07l.25,1c2.8-.71,5.56-1.43,8.3-2.17h0l.07,0h.13l.05,0h.09l0,0h.12l.08,0h0l2.67-.74-.26-1Zm22.89-7c-3.69,1.25-7.53,2.48-11.4,3.66l.29,1,2-.63h0l.08,0h0l.08,0h0l.08,0h0l.07,0h0l.06,0h0l.07,0h0l.07,0h0l.07,0h0l.07,0h0l.07,0h0l0,0h0l0,0h0l.05,0h0l0,0h.09l0,0h.05l0,0h0l0,0h0l.07,0h0l.63-.2h0l.06,0h0l.27-.09h0l.07,0h0l.06,0h0l.06,0h0l0,0h0l0,0h0l.06,0h.09l0,0h0l.06,0h0l0,0h0l.06,0h0l.06,0h0l.07,0h0l.06,0h0l.06,0h0l.07,0h0l.07,0h0l.06,0h0l.07,0h0l.08,0h0l.08,0h0l.08,0h0l.08,0h0c1.59-.51,3.17-1,4.72-1.56l-.32-1Zm22.41-8.38c-3.58,1.49-7.32,3-11.13,4.38l.35.94q5-1.87,9.8-3.83h0l1.35-.56-.38-.93Zm21.65-10.12c-3.4,1.8-7,3.58-10.71,5.31l.42.91q5.61-2.61,10.76-5.34l-.47-.88Zm20.31-12.48c-3.07,2.22-6.41,4.44-9.93,6.59l.52.85c1.07-.66,2.12-1.31,3.16-2h0l0,0h0l.15-.1h0l0,0h0l.09-.06,0,0,0,0,0,0,.06,0,0,0,0,0,0,0,0,0,.05,0,0,0,0,0,0,0,0,0h0l.07-.05h0l.06,0h0l.07,0h0l.07,0h0l.15-.1h0c1.89-1.24,3.71-2.5,5.45-3.76l-.58-.81Zm17.59-15.89A85.33,85.33,0,0,1,1260,578l.66.75.08-.07h0l0,0h0l0,0,0,0,0,0h0l0,0,0,0,0,0,0,0v0l0,0,0,0,0,0h0l0,0h0l.1-.09h0l0,0h0l0,0h0a83.09,83.09,0,0,0,7.78-8l-.76-.64ZM1279.38,549A44.48,44.48,0,0,1,1275,559.9l.88.48c0-.07.08-.16.13-.23h0l0,0h0l0,0h0l0,0h0l0,0h0l0,0h0l0,0h0l0,0h0l0,0v-.05h0v0h0l0,0h0l0,0v-.13l0,0v0h0l0,0h0l0,0v0l0-.08h0c.15-.28.29-.57.44-.86h0l0-.08h0l0-.09h0l0,0h0l0,0h0l0-.09h0l0-.09h0l0-.08h0l0,0h0l0-.05h0l0,0h0l0,0h0l0-.05h0l0,0h0c.22-.47.44-.95.65-1.42h0l0,0h0l0,0h0l0,0h0l0,0h0v0h0v0h0l0,0h0l0,0h0l0,0h0l0,0h0l0,0h0v0h0v0h0l0,0h0l0,0h0l0,0h0l0,0h0v0h0l0,0h0l0,0h0l0,0h0l0-.09h0c.13-.32.26-.63.38-1h0l0,0h0l0,0h0v0h0v0h0l0,0h0v0h0v0h0l0,0h0v0h0l0,0h0v0h0v0h0l0,0h0v0h0l0,0h0v0h0v0h0l0,0h0v0h0l0,0h0v0h0v0h0l0,0h0a41.41,41.41,0,0,0,1.2-4l-1-.24Zm-.61-23.32-.93.36a39.19,39.19,0,0,1,2.57,11.37l1-.07h0a39.65,39.65,0,0,0-.67-5h0v0h0v0h0v0h0v0h0v0h0v0h0v-.08h0v0h0v0h0v0h0v0h0l0-.13v-.52h0v0h0v0h0v0h0c0-.14-.07-.28-.1-.42h0v0h0v0h0l0,0h0v0h0a41,41,0,0,0-1.52-4.76Zm-13.28-19.8-.71.69a71.28,71.28,0,0,1,7.52,9.12l.83-.57a70.49,70.49,0,0,0-6-7.5h0l0,0h0l0,0h0l-.16-.18h0l0,0h0l0,0v0l0,0h0l0,0h0l0,0v0l0,0,0,0v0l0,0h0l0,0h0l0,0h0l0,0h0l0,0h0l0,0h0l0,0h0l-.18-.19h0l0,0h0l-.7-.72ZM1247,490.75l-.56.84c3.44,2.29,6.67,4.66,9.6,7l.63-.78q-4.47-3.62-9.67-7.1Zm-20.79-11.95-.44.89c3.66,1.83,7.2,3.73,10.52,5.63l.5-.87c-.76-.44-1.53-.87-2.31-1.3h0l-.07,0h0l-.16-.09h0l-.06,0h0l-.06,0h0l-.15-.08h0l0,0,0,0,0,0,0,0-.07,0,0,0,0,0,0,0,0,0h0l0,0,0,0-.06,0,0,0,0,0,0,0,0,0,0,0,0,0-.09-.05h0l0,0,0,0-.05,0h0l-.17-.09h0l-.05,0h0l-.06,0h0l-.18-.1h0l-.06,0h0l-.24-.13h0l-.06,0h0q-2.82-1.51-5.79-3Zm-21.93-9.74-.37.93c3.78,1.5,7.49,3.05,11,4.62l.4-.92q-2.24-1-4.53-2h0l-.07,0h0l-.06,0h0l0,0h0l0,0-.08,0h0l-.07,0h0l-.06,0h0l-.06,0h0l-.07,0h0q-2.71-1.14-5.52-2.25h0l-.06,0,0,0-.05,0h-.07l0,0ZM1181.64,461l-.31,1c3.85,1.24,7.67,2.54,11.33,3.84l.34-.94q-5.54-2-11.36-3.86Zm-23-6.76-.26,1c3.9,1,7.78,2.12,11.54,3.22l.28-1-2.75-.79h0l-.07,0h-.13l0,0H1167l0,0h-.09l-.06,0h0l-.06,0h0l-.08,0h0l-.08,0h0l-.08,0h0l-.08,0h0c-2.55-.72-5.12-1.43-7.74-2.13Zm-23.32-5.67-.21,1c3.93.87,7.85,1.78,11.67,2.71l.23-1c-2.56-.63-5.16-1.24-7.78-1.84h-.08l-.06,0h0l-.07,0h-.11l-3.56-.79Zm-23.53-4.73-.18,1c4,.72,7.91,1.48,11.77,2.25l.2-1c-2.2-.44-4.44-.88-6.67-1.3h0l-.15,0h-.06l-.08,0-.12,0h-.08l-.08,0-.11,0h-.08l-.09,0-.11,0h-.06l-.14,0h0l-.13,0h-.06l-.12,0h0l-.15,0h-.05l-.15,0h0l-.15,0h0l-.14,0h0l-.15,0h-.05l-.15,0h0l-.13,0H1114l-.12,0h-.06l-.13,0h-.06l-.13,0-.07,0h-.09l-.12,0-.06,0-.3-.05h0l-1-.19Zm-23.68-3.9-.14,1c4,.59,7.94,1.21,11.84,1.85l.16-1-.63-.1h0l-.09,0-.13,0h0l-.15,0h0l-.18,0h0c-2.51-.41-5-.8-7.58-1.19h0l-.17,0h0l-.17,0h0l-.16,0h0l-.13,0h0l-.14,0H1090l-.12,0h-.06l-.18,0h0l-1.55-.23Zm-23.79-3.13-.12,1c4,.46,8,1,11.89,1.48l.13-1c-2.3-.3-4.59-.59-6.91-.87h0l-.16,0h-.34l-.12,0h0l-.16,0h0l-.34,0h0l-3.74-.44Zm-23.88-2.43-.09,1c4,.35,8,.73,11.94,1.13l.1-1q-5.92-.6-11.95-1.13Zm-23.94-1.76-.06,1c4,.24,8,.51,12,.8l.07-1-4.45-.32h-.34l-.33,0h0c-2.11-.15-4.22-.28-6.36-.41h-.48Zm-24-1.13,0,1c4,.14,8,.3,12,.49l0-1-1,0h0l-.35,0h-2l-.35,0h-.39q-3.93-.16-7.88-.3Zm-24-.51v1c4,0,8,.1,12,.18l0-1-2.61-.05h-4.51L968.5,431Z"/></svg>