<svg xmlns="http://www.w3.org/2000/svg" viewBox="0 0 250 250"><defs><style>.cls-1{fill:#ffe78a;}.cls-2{fill:#ffcf82;}</style></defs><title>yellow_planet</title><g id="Layer_12" data-name="Layer 12"><circle class="cls-1" cx="125" cy="125" r="122"/><path class="cls-2" d="M125,247A122,122,0,0,0,232.91,182H17.09A122,122,0,0,0,125,247Z"/><path class="cls-2" d="M17.05,181.87H233a121.17,121.17,0,0,0,13.69-47.43V115.56c-.11-1.44-.25-2.87-.41-4.29a4.36,4.36,0,0,0-3.77-1.94h-.05c-2.3,0-4.18,1.53-4.18,3.4v34.21c0,1.87-1.87,3.4-4.17,3.4H234a4,4,0,0,1-4.14-3V120.61c0-1.87-1.88-3.4-4.18-3.4h-.05c-2.3,0-4.18,1.53-4.18,3.4v32c0,1.87-1.88,3.4-4.17,3.4h-.06c-2.29,0-4.17-1.53-4.17-3.4V129.3c0-1.87-1.88-3.4-4.18-3.4h0c-2.3,0-4.18,1.53-4.18,3.4v31.21c0,1.87-1.88,3.4-4.17,3.4h0c-2.3,0-4.18-1.53-4.18-3.4V136.08c0-1.87-1.88-3.4-4.18-3.4h0c-2.3,0-4.18,1.53-4.18,3.4v13.65c0,1.87-1.87,3.4-4.17,3.4h0c-2.3,0-4.18-1.53-4.18-3.4V127.4c0-1.87-1.88-3.4-4.18-3.4h0c-2.3,0-4.18,1.53-4.18,3.4v41.09c0,1.87-1.87,3.4-4.17,3.4h-.05c-2.3,0-4.18-1.53-4.18-3.4V138.87c0-1.87-1.88-3.4-4.18-3.4h0c-2.3,0-4.17,1.53-4.17,3.4v18.35h0v8.88c0,1.87-1.88,3.4-4.18,3.4H150c-2.3,0-4.18-1.53-4.18-3.4V145.66c0-1.87-1.88-3.4-4.18-3.4h0c-2.29,0-4.17,1.53-4.17,3.4v16.25c0,1.87-1.88,3.4-4.18,3.4h-.05c-2.3,0-4.18-1.53-4.18-3.4V141.27c0-1.87-1.88-3.4-4.17-3.4h-.06c-2.29,0-4.17,1.53-4.17,3.4v12.95c0,1.87-1.88,3.4-4.18,3.4h-.05c-2.3,0-4.18-1.53-4.18-3.4V134c0-1.87-1.88-3.4-4.17-3.4H108c-2.29,0-4.17,1.53-4.17,3.4v37.61c0,1.87-1.88,3.4-4.18,3.4h-.05c-2.3,0-4.18-1.53-4.18-3.4V142.27c0-1.87-1.88-3.4-4.17-3.4h-.06c-2.29,0-4.17,1.53-4.17,3.4V163.4c0,1.87-1.88,3.4-4.18,3.4h0c-2.3,0-4.18-1.53-4.18-3.4v-32c0-1.87-1.88-3.4-4.17-3.4h-.06c-2.29,0-4.17,1.53-4.17,3.4v17.45c0,1.87-1.88,3.4-4.18,3.4h0c-2.3,0-4.18-1.53-4.18-3.4V123.21c0-1.87-1.88-3.4-4.17-3.4h-.06c-2.29,0-4.17,1.53-4.17,3.4v35.7c0,1.87-1.88,3.4-4.18,3.4h0c-2.3,0-4.18-1.53-4.18-3.4V131.39c0-1.87-1.88-3.4-4.17-3.4h0c-2.3,0-4.18,1.53-4.18,3.4v22.14c0,1.87-1.88,3.4-4.18,3.4h-.05c-2.3,0-4.18-1.53-4.18-3.4V117.92c0-1.87-1.88-3.4-4.17-3.4h-.05c-2.3,0-4.18,1.53-4.18,3.4v31.81c0,1.87-1.88,3.4-4.18,3.4h-.05a4.4,4.4,0,0,1-3.66-1.77V109.84c0-1.87-1.88-3.4-4.18-3.4h0a4.48,4.48,0,0,0-3.43,1.47c-.31,2.19-.56,4.41-.75,6.64v20.9A121.14,121.14,0,0,0,17.05,181.87Z"/></g></svg>